<svg xmlns="http://www.w3.org/2000/svg" width="25.688" height="25.688" viewBox="0 0 25.688 25.688"><defs><style>.a{fill:#fff;}</style></defs><g transform="translate(-0.5 -0.5)"><path class="a" d="M13.344,26.188A12.844,12.844,0,1,1,26.188,13.344,12.858,12.858,0,0,1,13.344,26.188Zm0-24.571A11.727,11.727,0,1,0,25.071,13.344,11.74,11.74,0,0,0,13.344,1.617Z"/><path class="a" d="M11.76,21.253a1.677,1.677,0,0,1-1.675-1.675V15.668H6.175A1.677,1.677,0,0,1,4.5,13.993V11.76a1.677,1.677,0,0,1,1.675-1.675h3.909V6.175A1.677,1.677,0,0,1,11.76,4.5h2.234a1.677,1.677,0,0,1,1.675,1.675v3.909h3.909a1.677,1.677,0,0,1,1.675,1.675v2.234a1.677,1.677,0,0,1-1.675,1.675H15.668v3.909a1.677,1.677,0,0,1-1.675,1.675ZM6.175,11.2a.559.559,0,0,0-.558.558v2.234a.559.559,0,0,0,.558.558h4.467a.559.559,0,0,1,.558.558v4.467a.559.559,0,0,0,.558.558h2.234a.559.559,0,0,0,.558-.558V15.11a.559.559,0,0,1,.558-.558h4.467a.559.559,0,0,0,.558-.558V11.76a.559.559,0,0,0-.558-.558H15.11a.559.559,0,0,1-.558-.558V6.175a.559.559,0,0,0-.558-.558H11.76a.559.559,0,0,0-.558.558v4.467a.559.559,0,0,1-.558.558Z" transform="translate(0.467 0.467)"/></g></svg>