<svg xmlns="http://www.w3.org/2000/svg" width="69.621" height="69.621" viewBox="0 0 69.621 69.621"><defs><style>.a{fill:#fff;}</style></defs><path class="a" d="M33.36,69.621a4.357,4.357,0,0,1-4.351-4.351V59.909a35.575,35.575,0,0,1-6.724-2.318L18.4,61.478a4.356,4.356,0,0,1-6.156,0l-4.113-4.1a4.36,4.36,0,0,1,0-6.156l3.887-3.887A35.916,35.916,0,0,1,9.7,40.612H4.351A4.357,4.357,0,0,1,0,36.261v-2.9a4.357,4.357,0,0,1,4.351-4.351H9.712a35.78,35.78,0,0,1,2.318-6.724L8.143,18.4a4.354,4.354,0,0,1,0-6.153l4.1-4.1a4.363,4.363,0,0,1,6.153,0l3.884,3.878a35.7,35.7,0,0,1,6.724-2.315V4.351A4.357,4.357,0,0,1,33.36,0h2.9a4.357,4.357,0,0,1,4.351,4.351V9.715a35.477,35.477,0,0,1,6.721,2.318l3.887-3.884a4.363,4.363,0,0,1,6.156,0l4.111,4.1a4.354,4.354,0,0,1,0,6.153L57.6,22.285a35.645,35.645,0,0,1,2.318,6.724H65.27a4.357,4.357,0,0,1,4.351,4.351v2.9a4.357,4.357,0,0,1-4.351,4.351H59.921a35.74,35.74,0,0,1-2.327,6.739l3.884,3.887a4.354,4.354,0,0,1,0,6.153l-4.1,4.1a4.356,4.356,0,0,1-6.156,0l-3.89-3.884a35.817,35.817,0,0,1-6.721,2.318V65.27a4.357,4.357,0,0,1-4.351,4.351ZM21.983,54.391a1.458,1.458,0,0,1,.644.151,32.956,32.956,0,0,0,8.117,2.779,1.453,1.453,0,0,1,1.166,1.421V65.27a1.451,1.451,0,0,0,1.45,1.45h2.9a1.451,1.451,0,0,0,1.45-1.45V58.757a1.453,1.453,0,0,1,1.163-1.421,32.676,32.676,0,0,0,8.111-2.779,1.468,1.468,0,0,1,.644-.151,1.442,1.442,0,0,1,1.024.424l4.618,4.61a1.457,1.457,0,0,0,2.054,0l4.1-4.1a1.453,1.453,0,0,0,0-2.051l-4.609-4.612A1.448,1.448,0,0,1,54.545,47a32.742,32.742,0,0,0,2.788-8.128,1.453,1.453,0,0,1,1.421-1.163H65.27a1.451,1.451,0,0,0,1.45-1.45v-2.9a1.451,1.451,0,0,0-1.45-1.45H58.751a1.453,1.453,0,0,1-1.421-1.163,32.718,32.718,0,0,0-2.779-8.117,1.448,1.448,0,0,1,.273-1.671l4.61-4.607a1.451,1.451,0,0,0,0-2.051l-4.111-4.1a1.453,1.453,0,0,0-2.051,0l-4.612,4.609a1.437,1.437,0,0,1-1.024.424,1.471,1.471,0,0,1-.647-.151A32.832,32.832,0,0,0,38.878,12.3a1.456,1.456,0,0,1-1.166-1.421V4.351a1.451,1.451,0,0,0-1.45-1.45h-2.9a1.451,1.451,0,0,0-1.45,1.45v6.524A1.456,1.456,0,0,1,30.746,12.3a32.656,32.656,0,0,0-8.114,2.779,1.471,1.471,0,0,1-.647.151,1.442,1.442,0,0,1-1.024-.424l-4.612-4.6a1.457,1.457,0,0,0-2.054,0l-4.1,4.1a1.451,1.451,0,0,0,0,2.051l4.612,4.609a1.448,1.448,0,0,1,.273,1.671A32.894,32.894,0,0,0,12.3,30.749a1.456,1.456,0,0,1-1.421,1.163H4.351a1.451,1.451,0,0,0-1.45,1.45v2.9a1.451,1.451,0,0,0,1.45,1.45h6.515a1.456,1.456,0,0,1,1.421,1.163,32.915,32.915,0,0,0,2.779,8.117,1.448,1.448,0,0,1-.273,1.671l-4.612,4.612a1.451,1.451,0,0,0,0,2.051l4.113,4.1a1.457,1.457,0,0,0,2.054,0l4.609-4.612A1.428,1.428,0,0,1,21.983,54.391Z"/><path class="a" d="M21.5,36.01a14.5,14.5,0,1,1,14.5-14.5A14.521,14.521,0,0,1,21.5,36.01ZM21.5,9.9a11.6,11.6,0,1,0,11.6,11.6A11.615,11.615,0,0,0,21.5,9.9Z" transform="translate(13.306 13.308)"/></svg>