<svg xmlns="http://www.w3.org/2000/svg" width="26.004" height="26" viewBox="0 0 26.004 26"><defs><style>.a{fill:#fff;}</style></defs><g transform="translate(0.002)"><path class="a" d="M23.292,26a.542.542,0,0,1-.542-.542V23.833H3.25v1.625a.542.542,0,0,1-1.083,0V23.833H1.625A1.627,1.627,0,0,1,0,22.208v-3.25a1.627,1.627,0,0,1,1.625-1.625h.542V9.393A3.636,3.636,0,0,1,0,5.94V4.875A.23.23,0,0,1,0,4.83a.584.584,0,0,1,.031-.142.019.019,0,0,1,0-.008.352.352,0,0,1,.016-.043L1.925.9A1.616,1.616,0,0,1,3.378,0H22.622a1.614,1.614,0,0,1,1.453.9l1.868,3.734a.328.328,0,0,1,.017.043c0,.006.005.013.007.017a.518.518,0,0,1,.03.139.288.288,0,0,1,0,.042V5.954A3.629,3.629,0,0,1,23.833,9.4v7.937h.542A1.627,1.627,0,0,1,26,18.958v3.25a1.627,1.627,0,0,1-1.625,1.625h-.542v1.625A.542.542,0,0,1,23.292,26ZM1.625,18.417a.542.542,0,0,0-.542.542v3.25a.542.542,0,0,0,.542.542h22.75a.542.542,0,0,0,.542-.542v-3.25a.542.542,0,0,0-.542-.542ZM22.75,17.333V9.688c-.089.011-.174.017-.26.019l-.134,0a3.619,3.619,0,0,1-2.224-.762A4.926,4.926,0,0,1,13,9.581a4.935,4.935,0,0,1-6.554-.018,5.017,5.017,0,0,1-.579-.615A3.631,3.631,0,0,1,3.643,9.7a3.679,3.679,0,0,1-.393-.022v7.653H4.624a2.146,2.146,0,0,1-.29-1.083,2.163,2.163,0,0,1,3.792-1.428,2.163,2.163,0,0,1,3.792,1.428,2.146,2.146,0,0,1-.29,1.083h2.747a2.165,2.165,0,0,1,1.338-3.181A2.164,2.164,0,0,1,18.6,12.038a2.166,2.166,0,0,1,1.438,2.115,2.174,2.174,0,0,1,1.628,2.1,2.146,2.146,0,0,1-.29,1.083ZM19.5,15.167a1.083,1.083,0,1,0,1.083,1.083A1.084,1.084,0,0,0,19.5,15.167Zm-3.25,0a1.083,1.083,0,1,0,1.083,1.083A1.084,1.084,0,0,0,16.25,15.167Zm-6.5,0a1.083,1.083,0,1,0,1.083,1.083A1.084,1.084,0,0,0,9.75,15.167Zm-3.25,0A1.083,1.083,0,1,0,7.583,16.25,1.084,1.084,0,0,0,6.5,15.167Zm10.3-1.011a2.157,2.157,0,0,1,1.077.665,2.169,2.169,0,0,1,1.076-.665,1.067,1.067,0,0,0-.712-1.1,1.082,1.082,0,0,0-1.383.658A1.054,1.054,0,0,0,16.8,14.156ZM13.542,8.6A3.839,3.839,0,0,0,19.5,7.966V5.417H13.542ZM6.5,7.968a3.84,3.84,0,0,0,5.957.631V5.417H6.5ZM20.583,7.9a2.544,2.544,0,0,0,1.763.724l.1,0a2.559,2.559,0,0,0,2.468-2.648V5.416H20.585V7.9ZM1.083,5.958A2.56,2.56,0,0,0,3.646,8.623c.049,0,.1,0,.145,0A2.545,2.545,0,0,0,5.417,7.9V5.417H1.083Zm23.5-1.625-1.475-2.95a.537.537,0,0,0-.484-.3H19.653l.813,3.25Zm-5.234,0-.812-3.25H13.542v3.25Zm-6.89,0V1.083H7.464l-.812,3.25Zm-6.923,0,.813-3.25H3.378a.54.54,0,0,0-.484.3L1.418,4.333Z"/></g></svg>