<svg xmlns="http://www.w3.org/2000/svg" width="75.4" height="76.801" viewBox="0 0 75.4 76.801"><defs><style>.a{fill:#fff;}</style></defs><path class="a" d="M23.471,37.8c5.421,0,11.242-2.333,16.832-6.742a47.042,47.042,0,0,0,5.507-5.13l7.12,9.165a3.2,3.2,0,0,0,5.741-1.984V13.666a3.2,3.2,0,0,0-5.76-1.942l-7.1,9.152a47.228,47.228,0,0,0-5.5-5.13C34.713,11.333,28.892,9,23.471,9,12.821,9,4.05,17.586.773,21.279a3.205,3.205,0,0,0,0,4.246C4.063,29.215,12.856,37.8,23.471,37.8Zm20.3-14.4c-2.467,2.755-10.8,11.2-20.3,11.2-9.315,0-17.3-7.834-20.307-11.2C5.5,20.776,13.858,12.2,23.471,12.2,32.969,12.2,41.3,20.645,43.769,23.4Zm11.7,9.728L47.9,23.4l7.571-9.754Z" transform="translate(16.728 19.8)"/><path class="a" d="M29.368,76.8a6.407,6.407,0,0,0,6.4-6.4V67.2a1.6,1.6,0,0,0-3.2,0v3.2a3.2,3.2,0,0,1-6.4,0V57.338a6.394,6.394,0,0,0,0-12.275l0-43.463a1.6,1.6,0,0,0-3.2,0l0,43.357a6.4,6.4,0,0,0,0,12.487V70.4A6.407,6.407,0,0,0,29.368,76.8Zm-5-28.8a3.2,3.2,0,1,1-3.2,3.2A3.2,3.2,0,0,1,24.369,48Z" transform="translate(-17.969)"/><ellipse class="a" cx="3.5" cy="3.5" rx="3.5" ry="3.5" transform="translate(30.4 38)"/></svg>