<svg xmlns="http://www.w3.org/2000/svg" width="67.102" height="66.54" viewBox="0 0 67.102 66.54"><defs><style>.a{fill:#fff;}</style></defs><g transform="translate(0 -0.102)"><path class="a" d="M2.8,34.676A2.8,2.8,0,0,1,0,31.88V27.686a4.209,4.209,0,0,1,2.8-3.954V22.094A4.2,4.2,0,0,1,6.99,17.9H23.766a4.2,4.2,0,0,1,4.194,4.194v1.638a4.209,4.209,0,0,1,2.8,3.954V31.88a2.8,2.8,0,0,1-2.8,2.8Zm1.4-8.388a1.4,1.4,0,0,0-1.4,1.4V31.88H27.96V27.686a1.4,1.4,0,0,0-1.4-1.4Zm20.97-2.8v-1.4a1.4,1.4,0,0,0-1.4-1.4H6.99a1.4,1.4,0,0,0-1.4,1.4v1.4Z" transform="translate(0 31.966)"/><path class="a" d="M58.17,55.455a1.4,1.4,0,0,1-.99-.408L29.51,27.377,23.8,33.089l.408.408a3.977,3.977,0,0,1,1.11,3.965A4.82,4.82,0,0,1,22,40.773a4.225,4.225,0,0,1-1.076.145,4.038,4.038,0,0,1-2.891-1.253L5.453,27.084a4.144,4.144,0,0,1,.115-6.042,4.541,4.541,0,0,1,3.171-1.37,4.041,4.041,0,0,1,2.888,1.244l.408.411,13.4-13.4-.408-.408a4.147,4.147,0,0,1,.115-6.045A4.548,4.548,0,0,1,28.314.1,4.03,4.03,0,0,1,31.2,1.346L43.781,13.928a4.149,4.149,0,0,1-.115,6.051A4.542,4.542,0,0,1,40.5,21.346,4.026,4.026,0,0,1,37.61,20.1l-.411-.408L31.487,25.4,59.157,53.07a1.4,1.4,0,0,1-.987,2.385ZM8.719,22.465a1.715,1.715,0,0,0-1.172.554,1.422,1.422,0,0,0-.117,2.094L20.012,37.694a1.281,1.281,0,0,0,.925.428,1.21,1.21,0,0,0,.341-.048,2,2,0,0,0,1.336-1.334,1.234,1.234,0,0,0-.386-1.267L9.648,22.892A1.313,1.313,0,0,0,8.719,22.465Zm13.1,8.648,6.66-6.66a.793.793,0,0,1,.067-.07l.025-.022,6.649-6.649L27.413,9.9l-13.4,13.4Zm17.763-12.99a1.313,1.313,0,0,0,.934.431A1.717,1.717,0,0,0,41.687,18a1.423,1.423,0,0,0,.115-2.1L29.22,3.323a1.3,1.3,0,0,0-.928-.431,1.726,1.726,0,0,0-1.174.554A1.422,1.422,0,0,0,27,5.537l1.37,1.37Z" transform="translate(7.537)"/></g></svg>