<svg xmlns="http://www.w3.org/2000/svg" width="21.054" height="11.843" viewBox="0 0 21.054 11.843"><g transform="translate(0)"><path d="M.658,17.093A.658.658,0,0,1,.193,15.97L6.5,9.663a1.977,1.977,0,0,1,2.792,0l2.744,2.744a.659.659,0,0,0,.932,0l5.842-5.842H14.475a.658.658,0,0,1,0-1.316H20.4a.645.645,0,0,1,.229.042l.028.011a.658.658,0,0,1,.352.355c0,.007.006.015.009.023a.659.659,0,0,1,.04.227v5.921a.658.658,0,0,1-1.316,0V7.5L13.9,13.338a1.976,1.976,0,0,1-2.791,0L8.36,10.593a.659.659,0,0,0-.93,0L1.123,16.9A.652.652,0,0,1,.658,17.093Z" transform="translate(0 -5.25)"/></g></svg>