<svg xmlns="http://www.w3.org/2000/svg" width="47.391" height="56.869" viewBox="0 0 47.391 56.869"><defs><style>.a{fill:#000;}</style></defs><g transform="translate(-2.004)"><path class="a" d="M33.993,56.869c-9.789,0-15.4-3.886-15.4-10.663,0-4.23,2.161-10.206,5.73-13.385L11.482,30.986v1A1.185,1.185,0,0,1,10.3,33.173H3.189a1.185,1.185,0,0,1,0-2.37H9.113V17.767a.8.8,0,0,1,0-.107V16.587H3.189a1.185,1.185,0,1,1,0-2.37H10.3A1.185,1.185,0,0,1,11.482,15.4v.8l5.77-1.649a1.178,1.178,0,0,0,.735-.609L20.73,8.473a3.586,3.586,0,0,1,1.585-1.585l3.922-1.969-.744-1.49a2.43,2.43,0,0,1-.246-1.059A2.372,2.372,0,0,1,27.616,0H40.381a2.4,2.4,0,0,1,1.04.251,2.372,2.372,0,0,1,1.054,3.18L39.454,9.478h1.554a3.551,3.551,0,0,1,2.957,1.58l.789,1.185a3.548,3.548,0,0,1,0,3.945l-.616.924a1.177,1.177,0,0,0,0,1.315l.616.924a3.548,3.548,0,0,1,0,3.945L43.9,24.572a1.176,1.176,0,0,0-.137,1.031l.45,1.358a3.531,3.531,0,0,1-.412,3.092l-1.261,1.891c4.474,2.978,6.85,10.073,6.85,14.262C49.395,52.983,43.781,56.869,33.993,56.869ZM28.3,33.173c-4.277,1.27-7.341,8.63-7.341,13.032,0,7.215,8.165,8.293,13.032,8.293s13.032-1.078,13.032-8.293c0-4.414-3.08-11.8-7.343-13.032ZM40.457,30.8l1.377-2.061a1.181,1.181,0,0,0,.137-1.033l-.45-1.358a3.523,3.523,0,0,1,.415-3.095l.851-1.275a1.177,1.177,0,0,0,0-1.315l-.616-.924a3.548,3.548,0,0,1,0-3.945l.616-.924a1.177,1.177,0,0,0,0-1.315L42,12.371a1.2,1.2,0,0,0-.988-.524H30.429a1.185,1.185,0,0,1-.412-.078c-.019-.007-.09-.038-.109-.047a1.1,1.1,0,0,1-.265-.18c-.009-.009-.052-.045-.062-.054a1.173,1.173,0,0,1-.211-.3L27.3,7.04,23.382,9a1.191,1.191,0,0,0-.531.533L20.107,15a3.56,3.56,0,0,1-2.2,1.827l-6.421,1.834v9.928L26.969,30.8ZM36.805,9.478,40.36,2.37H27.619l3.545,7.109Z"/><path class="a" d="M18.933,31.587A1.185,1.185,0,0,1,17.749,30.4V29.217H14.185a1.185,1.185,0,0,1,0-2.37h7.109a1.185,1.185,0,0,0,0-2.37H16.554a3.554,3.554,0,1,1,0-7.109h1.194V16.185a1.185,1.185,0,0,1,2.37,0V17.37h3.545a1.185,1.185,0,1,1,0,2.37H16.554a1.185,1.185,0,0,0,0,2.37h4.739a3.554,3.554,0,1,1,0,7.109H20.118V30.4A1.185,1.185,0,0,1,18.933,31.587Z" transform="translate(15.059 20.543)"/></g></svg>