<svg xmlns="http://www.w3.org/2000/svg" width="26.46" height="26.46" viewBox="0 0 26.46 26.46"><defs><style>.a{fill:#f26702;}.b{fill:#fff;}</style></defs><g transform="translate(-371 -7)"><path class="a" d="M13.23,0A13.23,13.23,0,1,1,0,13.23,13.23,13.23,0,0,1,13.23,0Z" transform="translate(371 7)"/><g transform="translate(374.29 10.29)"><g transform="translate(-1.071 -1.927)"><path class="b" d="M12.4,16.041a.83.83,0,0,1-.83-.83V14.1a2.492,2.492,0,0,1,1.66-2.349A2.49,2.49,0,1,0,10.64,7.641,2.469,2.469,0,0,0,9.91,9.4a.83.83,0,1,1-1.66,0,4.151,4.151,0,1,1,5.534,3.914.832.832,0,0,0-.553.783v1.115A.83.83,0,0,1,12.4,16.041Z" transform="translate(-1.475 -0.939)"/><circle class="b" cx="1.245" cy="1.245" r="1.245" transform="translate(9.681 16.763)"/></g></g></g></svg>