<?xml version="1.0"?>
<svg xmlns="http://www.w3.org/2000/svg" width="23" height="23" viewBox="0 0 23 23">
  <defs>
    <style>.a{fill:#011f34;}</style>
  </defs>
  <g transform="translate(-0.499 -0.5)">
    <path class="a" d="M12,23.5A11.5,11.5,0,1,1,23.5,12,11.513,11.513,0,0,1,12,23.5Zm0-22A10.5,10.5,0,1,0,22.5,12,10.512,10.512,0,0,0,12,1.5Z"/>
    <path class="a" d="M16.241,16.743a.5.5,0,0,1-.354-.146L12,12.708,8.109,16.6A.5.5,0,0,1,7.4,15.89L11.292,12,7.4,8.112a.5.5,0,0,1,.354-.853h0a.5.5,0,0,1,.354.146L12,11.294l3.889-3.889a.5.5,0,0,1,.354-.146.489.489,0,0,1,.352.146.5.5,0,0,1,0,.707L12.706,12,16.6,15.889a.5.5,0,0,1-.354.854Z"/>
  </g>
</svg>
