<svg xmlns="http://www.w3.org/2000/svg" width="20.981" height="20.983" viewBox="0 0 20.981 20.983"><defs><style>.a{opacity:0.15;}.b{fill:#0a216c;}</style></defs><g class="a" transform="translate(0 0)"><path class="b" d="M20.317,20.973a.649.649,0,0,1-.463-.192l-5.695-5.7a8.6,8.6,0,1,1,.926-.928l5.7,5.7a.655.655,0,0,1-.464,1.119ZM8.571,1.3A7.271,7.271,0,0,0,1.884,11.413a7.272,7.272,0,0,0,11.8,2.328.257.257,0,0,1,.028-.032.319.319,0,0,1,.039-.034A7.275,7.275,0,0,0,8.571,1.3Z" transform="translate(0.009 0.01)"/></g></svg>