<svg xmlns="http://www.w3.org/2000/svg" xmlns:xlink="http://www.w3.org/1999/xlink" width="29" height="29" viewBox="0 0 29 29">
  <defs>
    <clipPath id="clip-path">
      <ellipse id="Ellipse_13" data-name="Ellipse 13" cx="13.5" cy="13.5" rx="13.5" ry="13.5" fill="#fff" stroke="#707070" stroke-width="1"/>
    </clipPath>
  </defs>
  <g id="BRL" transform="translate(-426 -89)">
    <circle id="Ellipse_54" data-name="Ellipse 54" cx="14.5" cy="14.5" r="14.5" transform="translate(426 89)" fill="#e0e0e0"/>
    <g id="Group_2" data-name="Group 2" transform="translate(427 90)" clip-path="url(#clip-path)">
      <g id="bra" transform="translate(-4.865)">
        <rect id="rect552" width="36" height="27" fill="#229e45"/>
        <g id="g3551" transform="translate(3.636 -0.628)">
          <path id="path554" d="M14.444,25.149,31.4,14.143,14.341,3.106-2.673,14.169l17.117,10.98Z" fill="#f8e509" fill-rule="evenodd"/>
          <path id="path557" d="M27.368,14.168A7.174,7.174,0,1,1,20.194,7,7.169,7.169,0,0,1,27.368,14.168Z" transform="translate(-5.535 -0.039)" fill="#2b49a3" fill-rule="evenodd"/>
          <path id="polygon559" d="M19.634,9.435l-.222-.128-.23.114.052-.256-.178-.188.254-.03.119-.229.107.237L19.787,9l-.188.176Z" transform="translate(-7.334 8.983)" fill="#ffffef" fill-rule="evenodd"/>
          <path id="polygon560" d="M19.634,9.435l-.222-.128-.23.114.052-.256-.178-.188.254-.03.119-.229.107.237L19.787,9l-.188.176Z" transform="translate(-2.526 10.201)" fill="#ffffef" fill-rule="evenodd"/>
          <path id="polygon561" d="M16.961,8.151,16.77,8.04l-.2.1.045-.221-.154-.162.22-.026.1-.2.092.205.217.039-.163.152Z" transform="translate(-1.926 9.54)" fill="#ffffef" fill-rule="evenodd"/>
          <path id="polygon562" d="M16.653,8l-.188-.109-.2.1.044-.217-.151-.159.216-.025.1-.195.09.2.213.039-.16.149Z" transform="translate(3.238 8.989)" fill="#ffffef" fill-rule="evenodd"/>
          <path id="polygon563" d="M19.634,9.435l-.222-.128-.23.114.052-.256-.178-.188.254-.03.119-.229.107.237L19.787,9l-.188.176Z" transform="translate(-4.686 6.101)" fill="#ffffef" fill-rule="evenodd"/>
          <path id="polygon564" d="M19.634,9.435l-.222-.128-.23.114.052-.256-.178-.188.254-.03.119-.229.107.237L19.787,9l-.188.176Z" transform="translate(-10.606 3.878)" fill="#ffffef" fill-rule="evenodd"/>
          <path id="polygon565" d="M19.634,9.435l-.222-.128-.23.114.052-.256-.178-.188.254-.03.119-.229.107.237L19.787,9l-.188.176Z" transform="translate(-9.894 6.835)" fill="#ffffef" fill-rule="evenodd"/>
          <path id="polygon566" d="M17.343,8.334l-.2-.113-.2.1L16.99,8.1l-.157-.166.225-.026.105-.2.094.21.222.04-.166.156Z" transform="translate(-0.216 3.891)" fill="#ffffef" fill-rule="evenodd"/>
          <path id="polygon567" d="M13.659,6.564l-.154-.089-.16.079.036-.178-.124-.13.177-.021.083-.16.074.165.175.032-.131.123Z" transform="translate(3.062 7.584)" fill="#ffffef" fill-rule="evenodd"/>
          <path id="polygon568" d="M13.108,6.3l-.148-.085-.154.076.034-.171-.119-.125.17-.02.08-.153.071.158.167.03-.126.118Z" transform="translate(-4.41 10.506)" fill="#ffffef" fill-rule="evenodd"/>
          <path id="polygon569" d="M10.682,4.712l-.121-.064-.125.057.028-.128-.1-.094.138-.015.065-.115.058.119.136.023-.1.088Z" transform="translate(9.25 12.774)" fill="#ffffef" fill-rule="evenodd"/>
          <path id="polygon570" d="M13.108,6.3l-.148-.085-.154.076.034-.171-.119-.125.17-.02.08-.153.071.158.167.03-.126.118Z" transform="translate(-4.41 10.506)" fill="#ffffef" fill-rule="evenodd"/>
          <path id="polygon571" d="M13.108,6.3l-.148-.085-.154.076.034-.171-.119-.125.17-.02.08-.153.071.158.167.03-.126.118Z" transform="translate(-4.41 10.506)" fill="#ffffef" fill-rule="evenodd"/>
          <path id="polygon572" d="M13.108,6.3l-.148-.085-.154.076.034-.171-.119-.125.17-.02.08-.153.071.158.167.03-.126.118Z" transform="translate(-2.054 10.506)" fill="#ffffef" fill-rule="evenodd"/>
          <path id="polygon573" d="M13.108,6.3l-.148-.085-.154.076.034-.171-.119-.125.17-.02.08-.153.071.158.167.03-.126.118Z" transform="translate(-2.347 11.29)" fill="#ffffef" fill-rule="evenodd"/>
          <path id="polygon574" d="M13.108,6.3l-.148-.085-.154.076.034-.171-.119-.125.17-.02.08-.153.071.158.167.03-.126.118Z" transform="translate(2.545 9.863)" fill="#ffffef" fill-rule="evenodd"/>
          <path id="polygon575" d="M13.108,6.3l-.148-.085-.154.076.034-.171-.119-.125.17-.02.08-.153.071.158.167.03-.126.118Z" transform="translate(1.109 9.862)" fill="#ffffef" fill-rule="evenodd"/>
          <path id="polygon576" d="M8.214,3.947l-.093-.054-.1.048.022-.107-.074-.078.106-.012.05-.1.045.1.1.019L8.2,3.839Z" transform="translate(2.11 11.714)" fill="#ffffef" fill-rule="evenodd"/>
          <path id="polygon577" d="M13.108,6.3l-.148-.085-.154.076.034-.171-.119-.125.17-.02.08-.153.071.158.167.03-.126.118Z" transform="translate(6.642 11.807)" fill="#ffffef" fill-rule="evenodd"/>
          <path id="polygon578" d="M10.858,5.231l-.123-.071-.127.063.029-.142-.1-.1.141-.017.066-.127.059.132.139.025-.1.1Z" transform="translate(7.696 13.032)" fill="#ffffef" fill-rule="evenodd"/>
          <path id="polygon579" d="M10.113,4.864,10,4.8l-.119.059.027-.132-.092-.1.131-.015.062-.118.055.122.129.023-.1.091Z" transform="translate(9.005 13.385)" fill="#ffffef" fill-rule="evenodd"/>
          <path id="polygon580" d="M9.741,4.681l-.11-.063-.114.057.026-.127-.088-.093.126-.015.059-.114.053.118.124.023-.093.087Z" transform="translate(10.997 12.155)" fill="#ffffef" fill-rule="evenodd"/>
          <path id="polygon581" d="M12.721,5.781,12.577,5.7l-.149.07.033-.157L12.346,5.5l.165-.018.077-.141.069.145.163.028-.122.108Z" transform="translate(5.819 13.279)" fill="#ffffef" fill-rule="evenodd"/>
          <path id="polygon582" d="M11.6,5.781,11.472,5.7l-.136.07.03-.157L11.261,5.5l.15-.018.071-.141.063.145.148.028-.111.108Z" transform="translate(6.945 13.923)" fill="#ffffef" fill-rule="evenodd"/>
          <path id="polygon583" d="M9.741,4.681l-.11-.063-.114.057.026-.127-.088-.093.126-.015.059-.114.053.118.124.023-.093.087Z" transform="translate(7.722 13.568)" fill="#ffffef" fill-rule="evenodd"/>
          <path id="polygon584" d="M9.741,4.681l-.11-.063-.114.057.026-.127-.088-.093.126-.015.059-.114.053.118.124.023-.093.087Z" transform="translate(6.705 13.568)" fill="#ffffef" fill-rule="evenodd"/>
          <path id="polygon585" d="M9.741,4.681l-.11-.063-.114.057.026-.127-.088-.093.126-.015.059-.114.053.118.124.023-.093.087Z" transform="translate(4.977 12.057)" fill="#ffffef" fill-rule="evenodd"/>
          <path id="polygon586" d="M8.25,3.965l-.093-.054-.1.048.022-.108-.075-.079.107-.013.05-.1.045.1.105.019-.079.074Z" transform="translate(6.659 15.853)" fill="#ffffef" fill-rule="evenodd"/>
          <path id="polygon587" d="M19.634,9.435l-.222-.128-.23.114.052-.256-.178-.188.254-.03.119-.229.107.237L19.787,9l-.188.176Z" transform="translate(-7.334 5.402)" fill="#ffffef" fill-rule="evenodd"/>
          <path id="path726" d="M21.36,16.705a7,7,0,0,0,.325-1.113A17.589,17.589,0,0,0,8.259,10.883a7.008,7.008,0,0,0-.476,1.173A17.171,17.171,0,0,1,21.36,16.705Z" fill="#fff" fill-rule="evenodd"/>
          <path id="path790" d="M19.647,14.823l.136.074a.191.191,0,0,0-.017.126.172.172,0,0,0,.075.1.175.175,0,0,0,.113.038.1.1,0,0,0,.075-.041.071.071,0,0,0,.013-.049.129.129,0,0,0-.028-.06q-.018-.024-.086-.1a.434.434,0,0,1-.1-.165.206.206,0,0,1,.029-.172.2.2,0,0,1,.091-.074.213.213,0,0,1,.126-.011.391.391,0,0,1,.143.064.331.331,0,0,1,.148.179.23.23,0,0,1-.032.188l-.135-.083a.134.134,0,0,0,.012-.1.157.157,0,0,0-.068-.079.181.181,0,0,0-.105-.037.057.057,0,0,0-.048.026.061.061,0,0,0-.007.053.419.419,0,0,0,.091.126.755.755,0,0,1,.11.143.217.217,0,0,1,.027.115.247.247,0,0,1-.146.206.225.225,0,0,1-.137.013.445.445,0,0,1-.157-.073.342.342,0,0,1-.151-.186.3.3,0,0,1,.034-.221Z" fill="#309e3a"/>
          <path id="path791" d="M19,14.4l.139.069a.191.191,0,0,0-.012.127.173.173,0,0,0,.079.092.176.176,0,0,0,.115.034.1.1,0,0,0,.073-.044.071.071,0,0,0,.011-.049.128.128,0,0,0-.03-.059c-.012-.015-.042-.047-.09-.1a.435.435,0,0,1-.111-.161.207.207,0,0,1,.022-.173.2.2,0,0,1,.088-.078.215.215,0,0,1,.126-.016.394.394,0,0,1,.146.059.33.33,0,0,1,.155.173.23.23,0,0,1-.024.189l-.139-.078a.134.134,0,0,0,.008-.1.158.158,0,0,0-.071-.076.181.181,0,0,0-.107-.033.057.057,0,0,0-.047.028.061.061,0,0,0-.005.053.418.418,0,0,0,.1.122.753.753,0,0,1,.115.139.217.217,0,0,1,.032.114.246.246,0,0,1-.137.211.226.226,0,0,1-.137.019.449.449,0,0,1-.16-.066.343.343,0,0,1-.158-.179A.3.3,0,0,1,19,14.4Z" fill="#309e3a"/>
          <path id="path792" d="M18.2,14.185l.409-.673.5.3-.069.114-.362-.222-.091.149.337.206-.069.113-.337-.206-.111.183.374.23-.069.113-.51-.313Z" fill="#309e3a"/>
          <path id="path795" d="M17.038,13.229l.061-.118.3.157-.143.279a.432.432,0,0,1-.168.01.526.526,0,0,1-.187-.055.431.431,0,0,1-.167-.145.333.333,0,0,1-.055-.2.483.483,0,0,1,.055-.208.453.453,0,0,1,.146-.171.346.346,0,0,1,.2-.061.407.407,0,0,1,.185.051.373.373,0,0,1,.175.16.277.277,0,0,1,.017.2l-.153-.046a.165.165,0,0,0-.014-.11.187.187,0,0,0-.086-.083.214.214,0,0,0-.177-.017.278.278,0,0,0-.144.146.31.31,0,0,0-.041.216.209.209,0,0,0,.113.137.273.273,0,0,0,.1.029.345.345,0,0,0,.1,0l.046-.089-.162-.084Z" fill="#309e3a"/>
          <path id="path804" d="M11.962,11.971l.114-.78.235.035.063.553.217-.512.236.035-.114.78-.146-.022.09-.614-.244.591-.151-.022-.064-.637-.09.614-.146-.021Z" fill="#309e3a"/>
          <path id="path805" d="M11.169,11.878l.073-.785.58.055-.012.133-.422-.04-.016.174.393.037-.012.132-.393-.037-.02.214.437.041-.012.132-.595-.056Z" fill="#309e3a"/>
          <g id="g812">
            <path id="path810" d="M8.543,11.387a.5.5,0,0,1,.041-.2.374.374,0,0,1,.076-.106.307.307,0,0,1,.1-.068.43.43,0,0,1,.17-.027.367.367,0,0,1,.274.116.484.484,0,0,1-.015.6.365.365,0,0,1-.279.1.369.369,0,0,1-.276-.115.409.409,0,0,1-.1-.3Z" fill="#309e3a"/>
            <path id="path811" d="M8.706,11.386a.3.3,0,0,0,.056.2.212.212,0,0,0,.312.009.3.3,0,0,0,.067-.2.3.3,0,0,0-.054-.2.218.218,0,0,0-.315-.007.3.3,0,0,0-.065.2Z" fill="#f7ffff"/>
          </g>
          <g id="g815">
            <path id="path808" d="M9.474,11.794l.009-.788.334,0a.558.558,0,0,1,.182.024.179.179,0,0,1,.091.076.227.227,0,0,1,.033.125.212.212,0,0,1-.054.146.25.25,0,0,1-.156.071.362.362,0,0,1,.084.067.875.875,0,0,1,.089.129l.094.155-.19,0-.113-.173a1.079,1.079,0,0,0-.082-.117.119.119,0,0,0-.047-.033.254.254,0,0,0-.08-.01H9.636l0,.329-.159,0Z" fill="#309e3a"/>
            <path id="path809" d="M9.638,11.341h.117a.6.6,0,0,0,.143-.008.086.086,0,0,0,.045-.033.1.1,0,0,0,.017-.059.093.093,0,0,0-.021-.064.1.1,0,0,0-.059-.032q-.019,0-.116,0H9.64l0,.2Z" fill="#fff"/>
          </g>
          <g id="g818">
            <path id="path806" d="M10.371,11.045l.289.015a.563.563,0,0,1,.148.023.262.262,0,0,1,.115.079.344.344,0,0,1,.069.132.583.583,0,0,1,.016.187.521.521,0,0,1-.033.166.348.348,0,0,1-.091.135.277.277,0,0,1-.114.057.478.478,0,0,1-.141.01l-.3-.015.04-.788Z" fill="#309e3a"/>
            <path id="path807" d="M10.523,11.185l-.026.522.118.006a.426.426,0,0,0,.1,0,.145.145,0,0,0,.065-.03.164.164,0,0,0,.045-.074.516.516,0,0,0,.023-.144.476.476,0,0,0-.009-.141.181.181,0,0,0-.041-.079.151.151,0,0,0-.071-.041.714.714,0,0,0-.13-.014l-.071,0Z" fill="#fff"/>
          </g>
          <g id="g824">
            <path id="path800" d="M14.231,12.453l.183-.767.248.06a.919.919,0,0,1,.181.056.206.206,0,0,1,.092.1.245.245,0,0,1,.009.16.256.256,0,0,1-.054.113.217.217,0,0,1-.083.06.229.229,0,0,1-.088.017.9.9,0,0,1-.162-.028l-.1-.024-.069.289Z" fill="#309e3a"/>
            <path id="path801" d="M14.538,11.853l-.052.218.084.02a.407.407,0,0,0,.125.017.1.1,0,0,0,.057-.026.1.1,0,0,0,.032-.055.1.1,0,0,0-.008-.075.11.11,0,0,0-.054-.049.752.752,0,0,0-.11-.032l-.075-.018Z" fill="#fff"/>
          </g>
          <g id="g827">
            <path id="path798" d="M14.961,12.671l.261-.744.315.111a.56.56,0,0,1,.165.081.18.18,0,0,1,.061.1.227.227,0,0,1-.009.129.211.211,0,0,1-.1.121.25.25,0,0,1-.171.017.363.363,0,0,1,.058.091.879.879,0,0,1,.043.151l.04.177-.179-.063-.051-.2a1.1,1.1,0,0,0-.041-.137.119.119,0,0,0-.034-.047.254.254,0,0,0-.072-.035l-.03-.011-.109.311-.15-.053Z" fill="#309e3a"/>
            <path id="path799" d="M15.261,12.3l.111.039a.6.6,0,0,0,.137.038.085.085,0,0,0,.053-.017.1.1,0,0,0,.035-.05.093.093,0,0,0,0-.068.1.1,0,0,0-.046-.049q-.017-.009-.108-.041l-.117-.041Z" fill="#fff"/>
          </g>
          <g id="g830">
            <path id="path796" d="M15.884,12.643a.5.5,0,0,1,.094-.182.372.372,0,0,1,.1-.081.307.307,0,0,1,.118-.037.428.428,0,0,1,.171.021.368.368,0,0,1,.233.186.484.484,0,0,1-.177.573.365.365,0,0,1-.3.02.37.37,0,0,1-.234-.185.409.409,0,0,1-.011-.313Z" fill="#309e3a"/>
            <path id="path797" d="M16.042,12.687a.3.3,0,0,0,0,.213.2.2,0,0,0,.129.112.2.2,0,0,0,.169-.019.3.3,0,0,0,.119-.178.3.3,0,0,0,0-.211.218.218,0,0,0-.3-.093.3.3,0,0,0-.118.176Z" fill="#fff"/>
          </g>
          <g id="g833" transform="matrix(0.993, -0.118, 0.117, 0.993, -5.723, -2.975)">
            <path id="path793" d="M21.034,19.322l.44-.653.277.188a.565.565,0,0,1,.139.121.181.181,0,0,1,.034.114.228.228,0,0,1-.041.122.21.21,0,0,1-.125.092.249.249,0,0,1-.169-.027.367.367,0,0,1,.033.1.888.888,0,0,1,0,.157l-.006.181-.157-.107v-.207a1.083,1.083,0,0,0,0-.143.119.119,0,0,0-.021-.054.254.254,0,0,0-.061-.052l-.027-.018-.184.273-.131-.089Z" fill="#309e3a"/>
            <path id="path794" d="M21.419,19.034l.1.066a.6.6,0,0,0,.123.072.086.086,0,0,0,.056,0,.1.1,0,0,0,.046-.04.093.093,0,0,0,.018-.065A.1.1,0,0,0,21.727,19q-.015-.013-.094-.067l-.1-.07Z" fill="#fff"/>
          </g>
          <g id="g836" transform="translate(-3.364 -5.482)">
            <path id="path788" d="M23.7,20.662a.5.5,0,0,1,.143-.147.372.372,0,0,1,.121-.049.309.309,0,0,1,.124,0,.431.431,0,0,1,.158.069.369.369,0,0,1,.17.246.483.483,0,0,1-.334.5.366.366,0,0,1-.289-.066.372.372,0,0,1-.171-.245.409.409,0,0,1,.079-.3Z" fill="#309e3a"/>
            <path id="path789" d="M23.836,20.75a.3.3,0,0,0-.063.2.2.2,0,0,0,.091.145.2.2,0,0,0,.167.031.3.3,0,0,0,.166-.136.3.3,0,0,0,.064-.2A.219.219,0,0,0,24,20.615a.3.3,0,0,0-.163.135Z" fill="#fff"/>
          </g>
          <path id="path872" d="M13.342,12.132l.126-.554.409.094-.021.094-.3-.068-.028.123.277.064-.021.093-.277-.064-.035.151.308.071-.021.093-.419-.1Z" fill="#309e3a"/>
        </g>
      </g>
    </g>
  </g>
</svg>
