<svg xmlns="http://www.w3.org/2000/svg" xmlns:xlink="http://www.w3.org/1999/xlink" width="29" height="29" viewBox="0 0 29 29">
  <defs>
    <clipPath id="clip-path">
      <ellipse id="Ellipse_17" data-name="Ellipse 17" cx="13.5" cy="13.5" rx="13.5" ry="13.5" fill="#fff" stroke="#707070" stroke-width="1"/>
    </clipPath>
    <clipPath id="clip-path-2">
      <rect id="rect8704" width="44.544" height="33.408" transform="translate(-4.621)" fill="rgba(0,0,0,0.67)"/>
    </clipPath>
  </defs>
  <g id="ILS" transform="translate(-426 -329)">
    <circle id="Ellipse_58" data-name="Ellipse 58" cx="14.5" cy="14.5" r="14.5" transform="translate(426 329)" fill="#e0e0e0"/>
    <g id="Mask_Group_13" data-name="Mask Group 13" transform="translate(427 330)" clip-path="url(#clip-path)">
      <g id="isr" transform="translate(-3.677 -3.237)" clip-path="url(#clip-path-2)">
        <rect id="rect149" width="47.725" height="33.408" transform="translate(41.514 33.408) rotate(180)" fill="#fff"/>
        <rect id="rect585" width="47.725" height="4.387" transform="translate(41.514 7.519) rotate(180)" fill="#00c"/>
        <rect id="rect688" width="47.725" height="4.387" transform="translate(41.514 30.385) rotate(180)" fill="#00c"/>
        <path id="path706" d="M7.195,10.061l7.185,12.5,7.34-12.446L7.195,10.061Z" transform="translate(2.804 2.388)" fill="#00c" fill-rule="evenodd"/>
        <path id="path704" d="M11.9,16.76l1.367,2.317,1.4-2.307L11.9,16.76Z" transform="translate(3.922 3.977)" fill="#fff" fill-rule="evenodd"/>
        <path id="path707" d="M7.173,19.3,14.359,6.8,21.7,19.251Z" transform="translate(2.799 1.615)" fill="#00c" fill-rule="evenodd"/>
        <path id="path708" d="M11.9,10.549l1.367-2.317,1.4,2.307-2.763.009Z" transform="translate(3.922 1.954)" fill="#fff" fill-rule="evenodd"/>
        <path id="path709" d="M9.867,14.3,8.455,16.645l2.669-.008L9.867,14.3Z" transform="translate(3.103 3.393)" fill="#fff" fill-rule="evenodd"/>
        <path id="path710" d="M8.474,10.79l2.69.019L9.87,13.175l-1.4-2.385Z" transform="translate(3.108 2.561)" fill="#fff" fill-rule="evenodd"/>
        <path id="path711" d="M16.711,14.318,18.07,16.64,15.349,16.6l1.362-2.287Z" transform="translate(4.739 3.398)" fill="#fff" fill-rule="evenodd"/>
        <path id="path712" d="M18.044,10.79l-2.69.019,1.294,2.366,1.4-2.385Z" transform="translate(4.74 2.561)" fill="#fff" fill-rule="evenodd"/>
        <path id="path716" d="M11.858,10.793l-1.853,3.361,1.879,3.282,3.441.079,2.091-3.361-1.932-3.388-3.626.026Z" transform="translate(3.471 2.555)" fill="#fff" fill-rule="evenodd"/>
      </g>
    </g>
  </g>
</svg>
