<svg xmlns="http://www.w3.org/2000/svg" xmlns:xlink="http://www.w3.org/1999/xlink" width="29" height="29" viewBox="0 0 29 29">
  <defs>
    <clipPath id="clip-path">
      <ellipse id="Ellipse_27" data-name="Ellipse 27" cx="13.5" cy="13.5" rx="13.5" ry="13.5" fill="#fff" stroke="#707070" stroke-width="1"/>
    </clipPath>
  </defs>
  <g id="NZD" transform="translate(-110 -509)">
    <circle id="Ellipse_39" data-name="Ellipse 39" cx="14.5" cy="14.5" r="14.5" transform="translate(110 509)" fill="#e0e0e0"/>
    <g id="Mask_Group_23" data-name="Mask Group 23" transform="translate(111 510)" clip-path="url(#clip-path)">
      <g id="nzl" transform="translate(-1.865 0)">
        <rect id="rect580" width="36" height="27" transform="translate(0)" fill="#00006a"/>
        <g id="g560" transform="translate(0 -0.077)">
          <path id="path572" d="M2.251,9.813,20.194,26.932h3.681L6.319,9.821,2.251,9.813Z" transform="translate(-2.251 -9.736)" fill="#fff" fill-rule="evenodd"/>
          <path id="path577" d="M3.68,10,21.248,27.118l1.367-.021L4.974,10H3.68Z" transform="translate(23.959 27.196) rotate(180)" fill="red" fill-rule="evenodd"/>
          <path id="path581" d="M2.251-9.813,20.194-26.932h3.681L6.319-9.821l-4.068.008Z" transform="translate(23.875 -9.736) rotate(180)" fill="#fff" fill-rule="evenodd"/>
          <path id="path579" d="M3.678-10,21.239-27.118h1.367L4.972-10H3.679Z" transform="translate(23.954 -9.922) rotate(180)" fill="red" fill-rule="evenodd"/>
          <rect id="rect570" width="3.46" height="17.119" transform="translate(9.082 0.078)" fill="#fff"/>
          <rect id="rect569" width="21.623" height="3.424" transform="translate(0 6.925)" fill="#fff"/>
          <rect id="rect574" width="1.946" height="17.119" transform="translate(9.839 0.078)" fill="red"/>
          <rect id="rect575" width="21.623" height="1.712" transform="translate(0 7.781)" fill="red"/>
        </g>
        <g id="g8203" transform="translate(3.304 4.722)">
          <g id="g591" transform="translate(0 0)">
            <path id="polygon589" d="M25.946,5.464l-1.1-.814L23.7,5.405l.43-1.3-1.067-.858,1.367.008.482-1.285.415,1.309,1.365.064-1.11.8Z" transform="translate(0 -0.099)" fill="#fff" fill-rule="evenodd"/>
            <path id="polygon590" d="M25.553,4.575l-.673-.439-.643.482.207-.779-.655-.466.8-.043.238-.77.288.753.8-.01-.623.508Z" transform="matrix(0.999, 0.049, -0.048, 0.999, 0.202, -1.105)" fill="red" fill-rule="evenodd"/>
          </g>
          <g id="g594" transform="translate(-4.226 7.015)">
            <path id="polygon595" d="M25.946,5.464l-1.1-.814L23.7,5.405l.43-1.3-1.067-.858,1.367.008.482-1.285.415,1.309,1.365.064-1.11.8Z" transform="translate(0 -0.099)" fill="#fff" fill-rule="evenodd"/>
            <path id="polygon596" d="M25.553,4.575l-.673-.439-.643.482.207-.779-.655-.466.8-.043.238-.77.288.753.8-.01-.623.508Z" transform="matrix(0.999, 0.049, -0.048, 0.999, 0.202, -1.105)" fill="red" fill-rule="evenodd"/>
          </g>
          <g id="g597" transform="translate(4.423 6.324)">
            <path id="polygon598" d="M25.946,5.464l-1.1-.814L23.7,5.405l.43-1.3-1.067-.858,1.367.008.482-1.285.415,1.309,1.365.064-1.11.8Z" transform="translate(0 -0.099)" fill="#fff" fill-rule="evenodd"/>
            <path id="polygon599" d="M25.553,4.575l-.673-.439-.643.482.207-.779-.655-.466.8-.043.238-.77.288.753.8-.01-.623.508Z" transform="matrix(0.999, 0.049, -0.048, 0.999, 0.202, -1.105)" fill="red" fill-rule="evenodd"/>
          </g>
          <g id="g600" transform="translate(-0.098 16.304)">
            <path id="polygon601" d="M25.946,5.464l-1.1-.814L23.7,5.405l.43-1.3-1.067-.858,1.367.008.482-1.285.415,1.309,1.365.064-1.11.8Z" transform="translate(0 -0.099)" fill="#fff" fill-rule="evenodd"/>
            <path id="polygon602" d="M25.553,4.575l-.673-.439-.643.482.207-.779-.655-.466.8-.043.238-.77.288.753.8-.01-.623.508Z" transform="matrix(0.999, 0.049, -0.048, 0.999, 0.202, -1.105)" fill="red" fill-rule="evenodd"/>
          </g>
        </g>
      </g>
    </g>
  </g>
</svg>
