<svg xmlns="http://www.w3.org/2000/svg" xmlns:xlink="http://www.w3.org/1999/xlink" width="29" height="29" viewBox="0 0 29 29">
  <defs>
    <clipPath id="clip-path">
      <ellipse id="Ellipse_30" data-name="Ellipse 30" cx="13.5" cy="13.5" rx="13.5" ry="13.5" fill="#fff" stroke="#707070" stroke-width="1"/>
    </clipPath>
    <clipPath id="clip-path-2">
      <rect id="rect3733" width="36" height="27" transform="translate(0 0)" fill="rgba(0,0,0,0.67)"/>
    </clipPath>
  </defs>
  <g id="TWD" transform="translate(-110 -689)">
    <circle id="Ellipse_42" data-name="Ellipse 42" cx="14.5" cy="14.5" r="14.5" transform="translate(110 689)" fill="#e0e0e0"/>
    <g id="Mask_Group_26" data-name="Mask Group 26" transform="translate(111 690)" clip-path="url(#clip-path)">
      <g id="twn" transform="translate(-1.865 0)" clip-path="url(#clip-path-2)">
        <rect id="rect983" width="40.5" height="27" fill="#de2110"/>
        <rect id="rect984" width="20.339" height="13.5" transform="translate(0 0)" fill="#08399c"/>
        <path id="polygon1007" d="M14.833,9.361l-2.5-.513.532,2.492L10.963,9.648l-.786,2.424-.8-2.419L7.481,11.36l.513-2.5L5.5,9.4l1.692-1.9L4.77,6.7l2.418-.8L5.482,4.008l2.5.513L7.447,2.029l1.9,1.692L10.138,1.3l.8,2.418,1.892-1.707-.513,2.5,2.492-.532L13.121,5.879l2.424.785-2.418.8Z" transform="translate(0.043 0.055)" fill="#fff" fill-rule="evenodd"/>
        <path id="polygon1009" d="M12.682,9.2l-.788.418-.768.454-.892-.031-.892.01-.757-.472-.778-.436-.419-.786-.455-.766.03-.89-.01-.89.473-.755.438-.776.788-.418.768-.454.892.031.893-.01.757.471.778.436.419.786.455.766-.03.89.01.89-.473.755Z" transform="translate(-0.106 0.024)" fill="#005387" fill-rule="evenodd"/>
        <path id="path1011" d="M12.893,6.684a2.735,2.735,0,1,1-2.735-2.735,2.735,2.735,0,0,1,2.735,2.735Z" transform="translate(0.008 0.081)" fill="#fff" fill-rule="evenodd"/>
      </g>
    </g>
  </g>
</svg>
