<svg xmlns="http://www.w3.org/2000/svg" xmlns:xlink="http://www.w3.org/1999/xlink" width="29" height="29" viewBox="0 0 29 29">
  <defs>
    <clipPath id="clip-path">
      <ellipse id="Ellipse_1" data-name="Ellipse 1" cx="13.5" cy="13.5" rx="13.5" ry="13.5" fill="#fff" stroke="#707070" stroke-width="1"/>
    </clipPath>
    <clipPath id="clip-path-2">
      <rect id="rect4295" width="36" height="27" transform="translate(0 0)" fill="rgba(0,0,0,0.67)"/>
    </clipPath>
  </defs>
  <g id="USD" transform="translate(-110 -90)">
    <circle id="Ellipse_32" data-name="Ellipse 32" cx="14.5" cy="14.5" r="14.5" transform="translate(110 90)" fill="#e0e0e0"/>
    <g id="USD-2" data-name="USD" transform="translate(111 91)" clip-path="url(#clip-path)">
      <g id="usa" transform="translate(-4.865 0)" clip-path="url(#clip-path-2)">
        <g id="g390" transform="translate(0 0)">
          <g id="g169">
            <rect id="rect156" width="51.301" height="2.077" fill="#bd3d44"/>
            <rect id="rect158" width="51.301" height="2.077" transform="translate(0 4.154)" fill="#bd3d44"/>
            <rect id="rect160" width="51.301" height="2.077" transform="translate(0 8.308)" fill="#bd3d44"/>
            <rect id="rect162" width="51.301" height="2.077" transform="translate(0 12.462)" fill="#bd3d44"/>
            <rect id="rect164" width="51.301" height="2.077" transform="translate(0 16.616)" fill="#bd3d44"/>
            <rect id="rect166" width="51.301" height="2.077" transform="translate(0 20.769)" fill="#bd3d44"/>
            <rect id="rect168" width="51.301" height="2.077" transform="translate(0 24.923)" fill="#bd3d44"/>
          </g>
          <g id="g177">
            <rect id="rect157" width="51.301" height="2.077" transform="translate(0 2.077)" fill="#fff"/>
            <rect id="rect159" width="51.301" height="2.077" transform="translate(0 6.231)" fill="#fff"/>
            <rect id="rect161" width="51.301" height="2.077" transform="translate(0 10.385)" fill="#fff"/>
            <rect id="rect163" width="51.301" height="2.077" transform="translate(0 14.539)" fill="#fff"/>
            <rect id="rect165" width="51.301" height="2.077" transform="translate(0 18.692)" fill="#fff"/>
            <rect id="rect167" width="51.301" height="2.077" transform="translate(0 22.846)" fill="#fff"/>
          </g>
        </g>
        <rect id="rect200" width="20.52" height="14.538" transform="translate(0 0)" fill="#192f5d"/>
        <g id="g274" transform="translate(0 0)">
          <g id="g218">
            <g id="g194">
              <path id="polygon207" d="M0-.832l.187.575h.6L.3.1.489.673,0,.318-.489.673-.3.1-.791-.257h.6Z" transform="translate(1.71 1.454)" fill="#fff" fill-rule="evenodd"/>
              <path id="polygon188" d="M0-.832l.187.575h.6L.3.1.489.673,0,.318-.489.673-.3.1-.791-.257h.6Z" transform="translate(5.13 1.454)" fill="#fff" fill-rule="evenodd"/>
              <path id="polygon189" d="M0-.832l.187.575h.6L.3.1.489.673,0,.318-.489.673-.3.1-.791-.257h.6Z" transform="translate(8.55 1.454)" fill="#fff" fill-rule="evenodd"/>
              <path id="polygon190" d="M0-.832l.187.575h.6L.3.1.489.673,0,.318-.489.673-.3.1-.791-.257h.6Z" transform="translate(11.97 1.454)" fill="#fff" fill-rule="evenodd"/>
              <path id="polygon191" d="M0-.832l.187.575h.6L.3.1.489.673,0,.318-.489.673-.3.1-.791-.257h.6Z" transform="translate(15.39 1.454)" fill="#fff" fill-rule="evenodd"/>
              <path id="polygon192" d="M0-.832l.187.575h.6L.3.1.489.673,0,.318-.489.673-.3.1-.791-.257h.6Z" transform="translate(18.81 1.454)" fill="#fff" fill-rule="evenodd"/>
            </g>
            <g id="g205">
              <path id="polygon193" d="M0-.832l.187.575h.6L.3.1.489.673,0,.318-.489.673-.3.1-.791-.257h.6Z" transform="translate(3.42 2.908)" fill="#fff" fill-rule="evenodd"/>
              <path id="polygon201" d="M0-.832l.187.575h.6L.3.1.489.673,0,.318-.489.673-.3.1-.791-.257h.6Z" transform="translate(6.84 2.908)" fill="#fff" fill-rule="evenodd"/>
              <path id="polygon202" d="M0-.832l.187.575h.6L.3.1.489.673,0,.318-.489.673-.3.1-.791-.257h.6Z" transform="translate(10.26 2.908)" fill="#fff" fill-rule="evenodd"/>
              <path id="polygon203" d="M0-.832l.187.575h.6L.3.1.489.673,0,.318-.489.673-.3.1-.791-.257h.6Z" transform="translate(13.68 2.908)" fill="#fff" fill-rule="evenodd"/>
              <path id="polygon204" d="M0-.832l.187.575h.6L.3.1.489.673,0,.318-.489.673-.3.1-.791-.257h.6Z" transform="translate(17.1 2.908)" fill="#fff" fill-rule="evenodd"/>
            </g>
          </g>
          <g id="g232" transform="translate(0 2.908)">
            <g id="g233">
              <path id="polygon234" d="M0-.832l.187.575h.6L.3.1.489.673,0,.318-.489.673-.3.1-.791-.257h.6Z" transform="translate(1.71 1.454)" fill="#fff" fill-rule="evenodd"/>
              <path id="polygon235" d="M0-.832l.187.575h.6L.3.1.489.673,0,.318-.489.673-.3.1-.791-.257h.6Z" transform="translate(5.13 1.454)" fill="#fff" fill-rule="evenodd"/>
              <path id="polygon236" d="M0-.832l.187.575h.6L.3.1.489.673,0,.318-.489.673-.3.1-.791-.257h.6Z" transform="translate(8.55 1.454)" fill="#fff" fill-rule="evenodd"/>
              <path id="polygon237" d="M0-.832l.187.575h.6L.3.1.489.673,0,.318-.489.673-.3.1-.791-.257h.6Z" transform="translate(11.97 1.454)" fill="#fff" fill-rule="evenodd"/>
              <path id="polygon238" d="M0-.832l.187.575h.6L.3.1.489.673,0,.318-.489.673-.3.1-.791-.257h.6Z" transform="translate(15.39 1.454)" fill="#fff" fill-rule="evenodd"/>
              <path id="polygon239" d="M0-.832l.187.575h.6L.3.1.489.673,0,.318-.489.673-.3.1-.791-.257h.6Z" transform="translate(18.81 1.454)" fill="#fff" fill-rule="evenodd"/>
            </g>
            <g id="g240">
              <path id="polygon241" d="M0-.832l.187.575h.6L.3.1.489.673,0,.318-.489.673-.3.1-.791-.257h.6Z" transform="translate(3.42 2.908)" fill="#fff" fill-rule="evenodd"/>
              <path id="polygon242" d="M0-.832l.187.575h.6L.3.1.489.673,0,.318-.489.673-.3.1-.791-.257h.6Z" transform="translate(6.84 2.908)" fill="#fff" fill-rule="evenodd"/>
              <path id="polygon243" d="M0-.832l.187.575h.6L.3.1.489.673,0,.318-.489.673-.3.1-.791-.257h.6Z" transform="translate(10.26 2.908)" fill="#fff" fill-rule="evenodd"/>
              <path id="polygon244" d="M0-.832l.187.575h.6L.3.1.489.673,0,.318-.489.673-.3.1-.791-.257h.6Z" transform="translate(13.68 2.908)" fill="#fff" fill-rule="evenodd"/>
              <path id="polygon245" d="M0-.832l.187.575h.6L.3.1.489.673,0,.318-.489.673-.3.1-.791-.257h.6Z" transform="translate(17.1 2.908)" fill="#fff" fill-rule="evenodd"/>
            </g>
          </g>
          <g id="g246" transform="translate(0 5.815)">
            <g id="g247">
              <path id="polygon248" d="M0-.832l.187.575h.6L.3.1.489.673,0,.318-.489.673-.3.1-.791-.257h.6Z" transform="translate(1.71 1.454)" fill="#fff" fill-rule="evenodd"/>
              <path id="polygon249" d="M0-.832l.187.575h.6L.3.1.489.673,0,.318-.489.673-.3.1-.791-.257h.6Z" transform="translate(5.13 1.454)" fill="#fff" fill-rule="evenodd"/>
              <path id="polygon250" d="M0-.832l.187.575h.6L.3.1.489.673,0,.318-.489.673-.3.1-.791-.257h.6Z" transform="translate(8.55 1.454)" fill="#fff" fill-rule="evenodd"/>
              <path id="polygon251" d="M0-.832l.187.575h.6L.3.1.489.673,0,.318-.489.673-.3.1-.791-.257h.6Z" transform="translate(11.97 1.454)" fill="#fff" fill-rule="evenodd"/>
              <path id="polygon252" d="M0-.832l.187.575h.6L.3.1.489.673,0,.318-.489.673-.3.1-.791-.257h.6Z" transform="translate(15.39 1.454)" fill="#fff" fill-rule="evenodd"/>
              <path id="polygon253" d="M0-.832l.187.575h.6L.3.1.489.673,0,.318-.489.673-.3.1-.791-.257h.6Z" transform="translate(18.81 1.454)" fill="#fff" fill-rule="evenodd"/>
            </g>
            <g id="g254">
              <path id="polygon255" d="M0-.832l.187.575h.6L.3.1.489.673,0,.318-.489.673-.3.1-.791-.257h.6Z" transform="translate(3.42 2.908)" fill="#fff" fill-rule="evenodd"/>
              <path id="polygon256" d="M0-.832l.187.575h.6L.3.1.489.673,0,.318-.489.673-.3.1-.791-.257h.6Z" transform="translate(6.84 2.908)" fill="#fff" fill-rule="evenodd"/>
              <path id="polygon257" d="M0-.832l.187.575h.6L.3.1.489.673,0,.318-.489.673-.3.1-.791-.257h.6Z" transform="translate(10.26 2.908)" fill="#fff" fill-rule="evenodd"/>
              <path id="polygon258" d="M0-.832l.187.575h.6L.3.1.489.673,0,.318-.489.673-.3.1-.791-.257h.6Z" transform="translate(13.68 2.908)" fill="#fff" fill-rule="evenodd"/>
              <path id="polygon259" d="M0-.832l.187.575h.6L.3.1.489.673,0,.318-.489.673-.3.1-.791-.257h.6Z" transform="translate(17.1 2.908)" fill="#fff" fill-rule="evenodd"/>
            </g>
          </g>
          <g id="g260" transform="translate(0 8.723)">
            <g id="g261">
              <path id="polygon262" d="M0-.832l.187.575h.6L.3.1.489.673,0,.318-.489.673-.3.1-.791-.257h.6Z" transform="translate(1.71 1.454)" fill="#fff" fill-rule="evenodd"/>
              <path id="polygon263" d="M0-.832l.187.575h.6L.3.1.489.673,0,.318-.489.673-.3.1-.791-.257h.6Z" transform="translate(5.13 1.454)" fill="#fff" fill-rule="evenodd"/>
              <path id="polygon264" d="M0-.832l.187.575h.6L.3.1.489.673,0,.318-.489.673-.3.1-.791-.257h.6Z" transform="translate(8.55 1.454)" fill="#fff" fill-rule="evenodd"/>
              <path id="polygon265" d="M0-.832l.187.575h.6L.3.1.489.673,0,.318-.489.673-.3.1-.791-.257h.6Z" transform="translate(11.97 1.454)" fill="#fff" fill-rule="evenodd"/>
              <path id="polygon266" d="M0-.832l.187.575h.6L.3.1.489.673,0,.318-.489.673-.3.1-.791-.257h.6Z" transform="translate(15.39 1.454)" fill="#fff" fill-rule="evenodd"/>
              <path id="polygon267" d="M0-.832l.187.575h.6L.3.1.489.673,0,.318-.489.673-.3.1-.791-.257h.6Z" transform="translate(18.81 1.454)" fill="#fff" fill-rule="evenodd"/>
            </g>
            <g id="g268">
              <path id="polygon269" d="M0-.832l.187.575h.6L.3.1.489.673,0,.318-.489.673-.3.1-.791-.257h.6Z" transform="translate(3.42 2.908)" fill="#fff" fill-rule="evenodd"/>
              <path id="polygon270" d="M0-.832l.187.575h.6L.3.1.489.673,0,.318-.489.673-.3.1-.791-.257h.6Z" transform="translate(6.84 2.908)" fill="#fff" fill-rule="evenodd"/>
              <path id="polygon271" d="M0-.832l.187.575h.6L.3.1.489.673,0,.318-.489.673-.3.1-.791-.257h.6Z" transform="translate(10.26 2.908)" fill="#fff" fill-rule="evenodd"/>
              <path id="polygon272" d="M0-.832l.187.575h.6L.3.1.489.673,0,.318-.489.673-.3.1-.791-.257h.6Z" transform="translate(13.68 2.908)" fill="#fff" fill-rule="evenodd"/>
              <path id="polygon273" d="M0-.832l.187.575h.6L.3.1.489.673,0,.318-.489.673-.3.1-.791-.257h.6Z" transform="translate(17.1 2.908)" fill="#fff" fill-rule="evenodd"/>
            </g>
          </g>
          <g id="g211" transform="translate(0 11.631)">
            <path id="polygon212" d="M0-.832l.187.575h.6L.3.1.489.673,0,.318-.489.673-.3.1-.791-.257h.6Z" transform="translate(1.71 1.454)" fill="#fff" fill-rule="evenodd"/>
            <path id="polygon213" d="M0-.832l.187.575h.6L.3.1.489.673,0,.318-.489.673-.3.1-.791-.257h.6Z" transform="translate(5.13 1.454)" fill="#fff" fill-rule="evenodd"/>
            <path id="polygon214" d="M0-.832l.187.575h.6L.3.1.489.673,0,.318-.489.673-.3.1-.791-.257h.6Z" transform="translate(8.55 1.454)" fill="#fff" fill-rule="evenodd"/>
            <path id="polygon215" d="M0-.832l.187.575h.6L.3.1.489.673,0,.318-.489.673-.3.1-.791-.257h.6Z" transform="translate(11.97 1.454)" fill="#fff" fill-rule="evenodd"/>
            <path id="polygon216" d="M0-.832l.187.575h.6L.3.1.489.673,0,.318-.489.673-.3.1-.791-.257h.6Z" transform="translate(15.39 1.454)" fill="#fff" fill-rule="evenodd"/>
            <path id="polygon217" d="M0-.832l.187.575h.6L.3.1.489.673,0,.318-.489.673-.3.1-.791-.257h.6Z" transform="translate(18.81 1.454)" fill="#fff" fill-rule="evenodd"/>
          </g>
        </g>
      </g>
    </g>
  </g>
</svg>
