<svg xmlns="http://www.w3.org/2000/svg" xmlns:xlink="http://www.w3.org/1999/xlink" width="29" height="29" viewBox="0 0 29 29">
  <defs>
    <clipPath id="clip-path">
      <ellipse id="Ellipse_12" data-name="Ellipse 12" cx="13.5" cy="13.5" rx="13.5" ry="13.5" fill="#fff" stroke="#707070" stroke-width="1"/>
    </clipPath>
    <clipPath id="clip-path-2">
      <rect id="rect3534" width="36" height="27" transform="translate(-3.79 -0.001)" fill="rgba(0,0,0,0.67)"/>
    </clipPath>
  </defs>
  <g id="ZAR" transform="translate(-268 -689)">
    <circle id="Ellipse_53" data-name="Ellipse 53" cx="14.5" cy="14.5" r="14.5" transform="translate(268 689)" fill="#e0e0e0"/>
    <g id="Mask_Group_10" data-name="Mask Group 10" transform="translate(269 690)" clip-path="url(#clip-path)">
      <g id="zaf" transform="translate(0.925 0.001)" clip-path="url(#clip-path-2)">
        <g id="g603" transform="translate(-7.835 -83.962)">
          <path id="path581" d="M4.044,105.469v-16l11.909,8-11.909,8Z" fill-rule="evenodd"/>
          <path id="path597" d="M12.17,110.968l13.37-9h19v9H12.17Z" fill="#00c" fill-rule="evenodd"/>
          <path id="path598" d="M11.311,83.965H44.543v9h-19S11.489,83.876,11.311,83.965Z" fill="red" fill-rule="evenodd"/>
          <path id="path599" d="M4.044,87.341v2.127l11.909,8-11.909,8v2.127l15-10.131-15-10.122Z" fill="#fc0" fill-rule="evenodd"/>
          <path id="path600" d="M4.044,87.341V83.965h5L24.937,94.717H44.543v5.5H24.937L9.048,110.964h-5v-3.37l15-10.131-15-10.122Z" fill="#093" fill-rule="evenodd"/>
          <path id="path601" d="M9.048,83.965H12.17l13.37,9h19v1.751H24.938L9.049,83.965Z" fill="#fff" fill-rule="evenodd"/>
          <path id="path602" d="M9.048,110.968H12.17l13.37-9h19v-1.751H24.938L9.049,110.968Z" fill="#fff" fill-rule="evenodd"/>
        </g>
      </g>
    </g>
  </g>
</svg>
