<svg xmlns="http://www.w3.org/2000/svg" xmlns:xlink="http://www.w3.org/1999/xlink" width="29" height="29" viewBox="0 0 29 29">
  <defs>
    <clipPath id="clip-path">
      <ellipse id="Ellipse_20" data-name="Ellipse 20" cx="13.5" cy="13.5" rx="13.5" ry="13.5" fill="#fff" stroke="#707070" stroke-width="1"/>
    </clipPath>
    <clipPath id="clip-path-2">
      <rect id="rect8444" width="36" height="27" transform="translate(-2.76)" fill="rgba(0,0,0,0.67)"/>
    </clipPath>
  </defs>
  <g id="PKR" transform="translate(-426 -509)">
    <circle id="Ellipse_61" data-name="Ellipse 61" cx="14.5" cy="14.5" r="14.5" transform="translate(426 509)" fill="#e0e0e0"/>
    <g id="Mask_Group_16" data-name="Mask Group 16" transform="translate(427 510)" clip-path="url(#clip-path)">
      <g id="pak" transform="translate(0.895)" clip-path="url(#clip-path-2)">
        <rect id="rect171" width="40.5" height="27" transform="translate(-5.01 0)" fill="#0c590b"/>
        <rect id="rect403" width="10.152" height="27" transform="translate(-5.01)" fill="#fff"/>
        <g id="g6428" transform="translate(0.059 2.907)">
          <path id="path273" d="M21.23,8.979l-1.643-.346-.864,1.44L18.543,8.4l-1.637-.377L18.44,7.34l-.147-1.673,1.126,1.246,1.546-.657-.837,1.456,1.1,1.267Z" fill="#fff" fill-rule="evenodd"/>
          <path id="path278" d="M21.85,13.234A6.423,6.423,0,1,1,10.2,7.813a6.253,6.253,0,0,1,3.769-3.391A8.234,8.234,0,0,0,13.349,5a5.918,5.918,0,1,0,8.5,8.237Z" fill="#fff" fill-rule="evenodd"/>
        </g>
      </g>
    </g>
  </g>
</svg>
