<svg xmlns="http://www.w3.org/2000/svg" xmlns:xlink="http://www.w3.org/1999/xlink" width="29" height="29" viewBox="0 0 29 29">
  <defs>
    <clipPath id="clip-path">
      <ellipse id="Ellipse_22" data-name="Ellipse 22" cx="13.5" cy="13.5" rx="13.5" ry="13.5" fill="#fff" stroke="#707070" stroke-width="1"/>
    </clipPath>
  </defs>
  <g id="TRY" transform="translate(-426 -629)">
    <circle id="Ellipse_63" data-name="Ellipse 63" cx="14.5" cy="14.5" r="14.5" transform="translate(426 629)" fill="#e0e0e0"/>
    <g id="Mask_Group_18" data-name="Mask Group 18" transform="translate(427 630)" clip-path="url(#clip-path)">
      <g id="tur" transform="translate(-4.865)">
        <rect id="rect551" width="36" height="27" fill="#f31930"/>
        <g id="g3005" transform="translate(7.426 0.408)">
          <path id="path670" d="M20.743,11.635" fill="none" stroke="#000" stroke-width="0.055"/>
          <path id="path614" d="M6.712,16.484A6.8,6.8,0,0,1-.148,23.228a6.8,6.8,0,0,1-6.861-6.744A6.8,6.8,0,0,1-.148,9.741,6.8,6.8,0,0,1,6.712,16.484Z" transform="translate(8.754 -2.972)" fill="#fff" fill-rule="evenodd"/>
          <path id="path615" d="M-1.08,10.593a5.442,5.442,0,0,1-5.489,5.395,5.442,5.442,0,0,1-5.489-5.395A5.442,5.442,0,0,1-6.568,5.2,5.442,5.442,0,0,1-1.08,10.593Z" transform="translate(16.89 2.92)" fill="#f31830" fill-rule="evenodd"/>
          <path id="path563" d="M16.8,10.362l-.055,2.493-2.326.631,2.293.816-.055,2.286,1.5-1.785,2.259.784-1.307-1.916L20.7,11.767l-2.448.675L16.8,10.362Z" fill="#fff" fill-rule="evenodd"/>
        </g>
      </g>
    </g>
  </g>
</svg>
