<svg xmlns="http://www.w3.org/2000/svg" width="34.98" height="34.98" viewBox="0 0 34.98 34.98"><defs><style>.a{fill:#1007ea;}.b{fill:#fff;}</style></defs><g transform="translate(-452.49 -666.49)"><circle class="a" cx="17.49" cy="17.49" r="17.49" transform="translate(452.49 666.49)"/><path class="b" d="M8200.415-2096.812v-5.773h-5.923a1,1,0,0,1-1-1,1,1,0,0,1,1-1h5.923v-5.923a1,1,0,0,1,1-1,1,1,0,0,1,1,1v5.923h5.773a1,1,0,0,1,1,1,1,1,0,0,1-1,1h-5.773v5.773a1,1,0,0,1-1,1A1,1,0,0,1,8200.415-2096.812Z" transform="translate(-7731 2788.001)"/></g></svg>