<?xml version="1.0" encoding="UTF-8"?>
<svg xmlns="http://www.w3.org/2000/svg" xmlns:xlink="http://www.w3.org/1999/xlink" version="1.1" viewBox="0 0 24 24">
  <!--Generated by IJSVG (https://github.com/iconjar/IJSVG)-->
  <path style="fill:rgb(255,0,0);" d="M12.011,24.082c-5.359,0 -9.745,-4.195 -9.987,-9.55c-0.01,-0.172 -0.01,-0.352 -0.01,-0.532c-0.005,-2.969 1.299,-5.762 3.58,-7.664c0.09,-0.075 0.203,-0.116 0.32,-0.116c0.049,0 0.097,0.007 0.144,0.021c0.163,0.049 0.288,0.175 0.336,0.337c0.285,0.965 0.724,1.861 1.309,2.67c0.535,-1.172 0.814,-2.46 0.812,-3.747c-0.003,-1.664 -0.437,-3.308 -1.257,-4.755c-0.095,-0.168 -0.085,-0.378 0.027,-0.536c0.094,-0.131 0.246,-0.21 0.408,-0.21c0.03,0 0.061,0.003 0.091,0.008c6.003,1.085 10.46,6.221 10.719,12.287c0.83,-0.343 1.598,-0.811 2.287,-1.396c0.09,-0.077 0.205,-0.119 0.324,-0.119c0.047,0 0.095,0.007 0.14,0.02c0.163,0.048 0.289,0.173 0.338,0.335c0.282,0.929 0.424,1.893 0.423,2.864c0.022,2.668 -0.996,5.188 -2.868,7.093c-1.872,1.905 -4.375,2.967 -7.045,2.99h-0.091Zm0.103,-10.76c-2.182,1.224 -3.571,3.527 -3.6,6.07l-0.001,0.078c-0.004,0.937 0.358,1.822 1.02,2.489c0.662,0.667 1.544,1.037 2.483,1.041h0.146c0.913,-0.018 1.765,-0.391 2.398,-1.051c0.634,-0.659 0.972,-1.525 0.954,-2.439c0.089,-1.25 -0.509,-2.4 -1.539,-3.021c-0.235,0.502 -0.593,0.929 -1.046,1.246c-0.084,0.059 -0.183,0.09 -0.286,0.09c-0.04,0 -0.08,-0.005 -0.118,-0.014c-0.138,-0.033 -0.256,-0.125 -0.323,-0.251c-0.705,-1.322 -0.722,-2.909 -0.088,-4.238Zm-6.429,-5.72c-1.706,1.68 -2.675,3.991 -2.671,6.397c0,0.165 0,0.324 0.009,0.482c0.161,3.572 2.351,6.63 5.571,7.935c-0.704,-0.823 -1.086,-1.859 -1.082,-2.953l0.001,-0.086c0.037,-3.219 1.983,-6.1 4.957,-7.339c0.096,-0.038 0.189,-0.056 0.284,-0.056c0.102,0 0.202,0.021 0.297,0.061c0.185,0.08 0.327,0.226 0.401,0.412c0.096,0.243 0.058,0.524 -0.101,0.732c-0.688,0.944 -0.879,2.173 -0.528,3.285c0.135,-0.173 0.241,-0.366 0.319,-0.577c0.086,-0.292 0.379,-0.507 0.709,-0.507c0.073,0 0.145,0.01 0.215,0.031c0.043,0.013 0.079,0.027 0.114,0.044c1.542,0.762 2.457,2.36 2.332,4.073c0.023,1.025 -0.328,2.026 -0.992,2.837c1.085,-0.459 2.077,-1.133 2.913,-1.983c1.685,-1.715 2.602,-3.983 2.581,-6.386c0.001,-0.629 -0.064,-1.252 -0.194,-1.861c-0.811,0.583 -1.705,1.034 -2.662,1.343c-0.05,0.016 -0.101,0.024 -0.153,0.024c-0.113,0 -0.224,-0.039 -0.313,-0.11c-0.132,-0.106 -0.201,-0.27 -0.185,-0.438c0.006,-0.067 0.009,-0.135 0.008,-0.203c-0.046,-5.461 -3.68,-10.134 -8.902,-11.541c0.59,1.345 0.901,2.814 0.902,4.281c0.003,1.718 -0.441,3.418 -1.285,4.916c-0.08,0.142 -0.224,0.236 -0.386,0.252c-0.015,0.002 -0.034,0.003 -0.052,0.003c-0.144,0 -0.281,-0.064 -0.377,-0.174c-0.745,-0.865 -1.325,-1.837 -1.73,-2.894Z" fill="#000"/>
</svg>
