<?xml version="1.0" encoding="UTF-8"?>
<svg xmlns="http://www.w3.org/2000/svg" xmlns:xlink="http://www.w3.org/1999/xlink" version="1.1" viewBox="0 0 24 24">
  <!--Generated by IJSVG (https://github.com/iconjar/IJSVG)-->
  <g style="fill:rgb(255,255,255);">
    <path d="M7.5,22c-0.066,0 -0.131,-0.013 -0.192,-0.038c-0.187,-0.077 -0.308,-0.259 -0.308,-0.462v-3.5h-5.5c-0.827,0 -1.5,-0.673 -1.5,-1.5v-15c0,-0.827 0.673,-1.5 1.5,-1.5h18c0.827,0 1.5,0.673 1.5,1.5v7c0,0.276 -0.224,0.5 -0.5,0.5c-0.276,0 -0.5,-0.224 -0.5,-0.5v-7c0,-0.276 -0.224,-0.5 -0.5,-0.5h-18c-0.276,0 -0.5,0.224 -0.5,0.5v15c0,0.276 0.224,0.5 0.5,0.5h6c0.276,0 0.5,0.224 0.5,0.5v2.793l1.072,-1.072c0.094,-0.094 0.22,-0.146 0.354,-0.146c0.134,0 0.259,0.052 0.354,0.146c0.095,0.094 0.146,0.22 0.146,0.354c0,0.134 -0.052,0.259 -0.146,0.354l-1.925,1.925c-0.096,0.094 -0.221,0.146 -0.355,0.146Z"/>
    <path d="M20.5,24c-0.134,0 -0.259,-0.052 -0.354,-0.146l-3.853,-3.854h-4.793c-0.276,0 -0.5,-0.224 -0.5,-0.5v-8c0,-0.827 0.673,-1.5 1.5,-1.5h10c0.827,0 1.5,0.673 1.5,1.5v7c0,0.827 -0.673,1.5 -1.5,1.5h-1.5v3.5c0,0.203 -0.121,0.385 -0.309,0.462c-0.06,0.025 -0.125,0.038 -0.191,0.038Zm-4,-5c0.134,0 0.259,0.052 0.354,0.146l3.146,3.147v-2.793c0,-0.276 0.224,-0.5 0.5,-0.5h2c0.276,0 0.5,-0.224 0.5,-0.5v-7c0,-0.276 -0.224,-0.5 -0.5,-0.5h-10c-0.276,0 -0.5,0.224 -0.5,0.5v7.5h4.5Z"/>
    <path d="M5,5c-0.276,0 -0.5,-0.224 -0.5,-0.5c0,-0.276 0.224,-0.5 0.5,-0.5h11c0.276,0 0.5,0.224 0.5,0.5c0,0.276 -0.224,0.5 -0.5,0.5h-11Z"/>
    <path d="M5,9c-0.276,0 -0.5,-0.224 -0.5,-0.5c0,-0.276 0.224,-0.5 0.5,-0.5h11c0.276,0 0.5,0.224 0.5,0.5c0,0.276 -0.224,0.5 -0.5,0.5h-11Z"/>
    <path d="M14.5,14c-0.276,0 -0.5,-0.224 -0.5,-0.5c0,-0.276 0.224,-0.5 0.5,-0.5h6c0.276,0 0.5,0.224 0.5,0.5c0,0.276 -0.224,0.5 -0.5,0.5h-6Z"/>
    <path d="M14.5,17c-0.276,0 -0.5,-0.224 -0.5,-0.5c0,-0.276 0.224,-0.5 0.5,-0.5h6c0.276,0 0.5,0.224 0.5,0.5c0,0.276 -0.224,0.5 -0.5,0.5h-6Z"/>
    <path d="M5,13c-0.276,0 -0.5,-0.224 -0.5,-0.5c0,-0.276 0.224,-0.5 0.5,-0.5h4.5c0.276,0 0.5,0.224 0.5,0.5c0,0.276 -0.224,0.5 -0.5,0.5h-4.5Z"/>
  </g>
</svg>
