<svg xmlns="http://www.w3.org/2000/svg" width="45.596" height="45.597" viewBox="0 0 45.596 45.597"><defs><style>.a{fill:#1007ea;}</style></defs><g transform="translate(0 0)"><path class="a" d="M10.949,26.6a.939.939,0,0,1-.673-.279.95.95,0,0,1-.186-1.079l3.175-6.668A12.244,12.244,0,0,1,11.9,12.438l0-.129A12.262,12.262,0,0,1,24.119,0h.015a12.472,12.472,0,1,1-6.125,23.337L11.358,26.5A.925.925,0,0,1,10.949,26.6ZM24.122,1.9A10.362,10.362,0,0,0,13.8,12.3l0,.165a10.4,10.4,0,0,0,1.358,5.606.953.953,0,0,1,.034.88l-2.234,4.691L17.646,21.4a.945.945,0,0,1,.908.049,10.522,10.522,0,0,0,5.547,1.59,10.687,10.687,0,0,0,2.436-.283A10.569,10.569,0,0,0,24.126,1.9l-.006-.475Z" transform="translate(8.999 0)"/><path class="a" d="M19.949,15.4a.95.95,0,0,1-.95-.95V4.95a.95.95,0,0,1,1.9,0v9.5A.95.95,0,0,1,19.949,15.4Z" transform="translate(17.097 3.599)"/><path class="a" d="M19.748,15.4a.95.95,0,0,1-.95-.95V11.6H16.9v2.85a.95.95,0,0,1-1.9,0V4.95a.95.95,0,0,1,1.9,0V9.7h1.9V4.95a.95.95,0,0,1,1.9,0v9.5A.95.95,0,0,1,19.748,15.4Z" transform="translate(13.498 3.599)"/><path class="a" d="M16.949,33a.95.95,0,0,1-.95-.95V14.95a.95.95,0,1,1,1.9,0v17.1A.95.95,0,0,1,16.949,33Z" transform="translate(14.398 12.597)"/><path class="a" d="M.949,42.9a.95.95,0,0,1-.95-.95V7.749A4.754,4.754,0,0,1,4.748,3H19a.95.95,0,0,1,0,1.9H4.748A2.853,2.853,0,0,0,1.9,7.749V10.6H18.047a.95.95,0,1,1,0,1.9H1.9V41.946A.95.95,0,0,1,.949,42.9Z" transform="translate(0.001 2.699)"/><path class="a" d="M10.473,24.449A5.224,5.224,0,1,1,15.7,19.224,5.231,5.231,0,0,1,10.473,24.449Zm0-8.549A3.325,3.325,0,1,0,13.8,19.224,3.328,3.328,0,0,0,10.473,15.9Z" transform="translate(4.725 12.597)"/><path class="a" d="M3.951,28.049a.915.915,0,0,1-.237-.03.951.951,0,0,1-.686-1.155,9.764,9.764,0,0,1,7.054-7.054,9.864,9.864,0,0,1,2.432-.308,9.786,9.786,0,0,1,9.453,7.364.947.947,0,0,1-.686,1.155,1.049,1.049,0,0,1-.234.027.948.948,0,0,1-.92-.714A7.886,7.886,0,0,0,12.514,21.4a7.99,7.99,0,0,0-1.961.247,7.87,7.87,0,0,0-5.684,5.684A.947.947,0,0,1,3.951,28.049Z" transform="translate(2.7 17.548)"/><path class="a" d="M7.449,6.9a.95.95,0,1,1,0-1.9H12.2a.95.95,0,1,1,0,1.9Z" transform="translate(5.85 4.499)"/></g></svg>