<?xml version="1.0" encoding="UTF-8"?>
<svg xmlns="http://www.w3.org/2000/svg" xmlns:xlink="http://www.w3.org/1999/xlink" version="1.1" viewBox="0 0 24 24">
   <!--Generated by IJSVG (https://github.com/iconjar/IJSVG)-->
   <g fill="#FFF">
      <path d="M15.004,24c-0.552,0 -1,-0.448 -1,-1v-2c0,-0.55 0.447,-0.998 0.996,-1v-4.008c0,-0.047 0.006,-0.093 0.019,-0.137c0.397,-1.39 0.923,-2.751 1.564,-4.045c0.009,-0.017 0.018,-0.034 0.029,-0.051c0.328,-0.51 0.804,-0.803 1.304,-0.803c0.171,0 0.34,0.035 0.501,0.104c0.574,0.245 1.041,0.966 0.788,2.026l-0.298,1.301l1.594,-1.594c0.023,-3.242 0.599,-5.281 1.712,-6.061c0.391,-0.274 0.765,-0.331 1.01,-0.331c0.249,0 0.417,0.057 0.448,0.068c0.197,0.071 0.329,0.259 0.329,0.469v7.647c0,0.396 -0.16,0.783 -0.441,1.063c-0.944,0.939 -2.992,2.968 -3.559,3.53v0.822h0.004c0.552,0 1,0.448 1,1v2c0,0.552 -0.448,1 -1,1h-5Zm0,-1h5v-2h-5l1.77636e-15,2Zm3.996,-3v-1.031c0,-0.133 0.054,-0.262 0.148,-0.355c0,0 2.604,-2.578 3.705,-3.674c0.094,-0.093 0.147,-0.222 0.147,-0.355v-7.145c-0.077,0.027 -0.152,0.066 -0.224,0.118c-0.384,0.277 -1.276,1.361 -1.276,5.442c0,0.134 -0.052,0.259 -0.146,0.354l-2.969,2.969c-0.094,0.094 -0.22,0.146 -0.354,0.146c-0.084,0 -0.168,-0.022 -0.242,-0.062c-0.194,-0.107 -0.295,-0.333 -0.245,-0.549l0.688,-3c0.118,-0.494 -0.025,-0.801 -0.207,-0.879c-0.033,-0.014 -0.067,-0.021 -0.103,-0.021c-0.15,0 -0.32,0.12 -0.456,0.323c-0.598,1.212 -1.091,2.484 -1.466,3.782v3.937h3Z" />
      <path d="M4.004,24c-0.551,0 -1,-0.448 -1,-1v-2c0,-0.55 0.446,-0.998 0.996,-1v-0.831c-0.454,-0.475 -2.474,-2.583 -3.503,-3.514c-0.314,-0.281 -0.495,-0.686 -0.497,-1.109v-7.608c0,-0.21 0.132,-0.399 0.33,-0.47c0.017,-0.006 0.19,-0.068 0.447,-0.068c0.245,0 0.62,0.057 1.01,0.331c1.113,0.78 1.689,2.819 1.712,6.061l1.594,1.594l-0.299,-1.305c-0.253,-1.056 0.214,-1.777 0.789,-2.022c0.162,-0.069 0.33,-0.104 0.502,-0.104c0.5,0 0.976,0.294 1.305,0.805c0.01,0.014 0.019,0.031 0.028,0.049c0.641,1.295 1.167,2.656 1.563,4.045c0.013,0.045 0.019,0.092 0.019,0.138v4.008h0.004c0.551,0 1,0.448 1,1v2c0,0.552 -0.449,1 -1,1h-5Zm0,-1h5v-2h-5v2Zm3.996,-3v-3.938c-0.375,-1.298 -0.868,-2.571 -1.466,-3.782c-0.136,-0.202 -0.306,-0.323 -0.456,-0.323c-0.036,0 -0.07,0.007 -0.103,0.021c-0.182,0.078 -0.325,0.385 -0.208,0.874l0.689,3.004c0.05,0.216 -0.051,0.442 -0.245,0.549c-0.074,0.041 -0.158,0.062 -0.242,0.062c-0.134,0 -0.259,-0.052 -0.354,-0.146l-2.969,-2.969c-0.094,-0.093 -0.146,-0.218 -0.146,-0.352c0,-4.081 -0.892,-5.165 -1.276,-5.442c-0.079,-0.057 -0.155,-0.095 -0.224,-0.119v7.105c0.001,0.14 0.061,0.274 0.167,0.368c1.2,1.087 3.673,3.688 3.697,3.713c0.087,0.093 0.136,0.215 0.136,0.344v1.031h3Z" />
      <path d="M12.003,11.974c-0.06,0 -0.12,-0.007 -0.18,-0.014c-0.009,-0.001 -0.018,-0.002 -0.027,-0.003c-0.29,-0.04 -0.558,-0.161 -0.775,-0.348c-0.054,-0.047 -0.105,-0.098 -0.152,-0.152l-5.215,-6.02c-0.211,-0.243 -0.338,-0.556 -0.359,-0.883c-0.004,-0.019 -0.006,-0.039 -0.006,-0.054c0,-0.011 0.001,-0.021 0.002,-0.031c-0.007,-0.321 0.099,-0.65 0.297,-0.914l2.212,-2.955c0.282,-0.376 0.73,-0.6 1.2,-0.6h6c0.259,0 0.518,0.07 0.749,0.203c0.002,0.001 0.007,0.004 0.007,0.004c0.176,0.103 0.326,0.235 0.444,0.393l2.22,2.955c0.196,0.262 0.301,0.586 0.297,0.917c0.001,0.01 0.002,0.02 0.002,0.029c0,0.015 -0.002,0.035 -0.006,0.053c-0.021,0.325 -0.148,0.64 -0.359,0.884l-5.216,6.019c-0.202,0.233 -0.469,0.395 -0.772,0.47c-0.008,0.003 -0.017,0.005 -0.02,0.006c-0.031,0.007 -0.048,0.01 -0.065,0.012c-0.002,0 -0.039,0.006 -0.052,0.007c-0.073,0.012 -0.146,0.022 -0.226,0.022Zm0.019,-1.631l1.606,-5.343h-3.232l1.626,5.343Zm-1.182,-0.448l-1.489,-4.895h-2.753l4.242,4.895Zm2.378,-0.058l4.192,-4.837h-2.737l-1.455,4.837Zm4.286,-5.837l-1.807,-2.405l-0.724,2.405h2.531Zm-3.575,0l0.902,-3h-5.652l0.913,3h3.837Zm-4.883,0l-0.734,-2.415l-1.808,2.415h2.542Z" />
   </g>
</svg>