<svg xmlns="http://www.w3.org/2000/svg" width="21.054" height="11.843" viewBox="0 0 21.054 11.843"><path d="M.658,5.25A.658.658,0,0,0,.193,6.373L6.5,12.68a1.977,1.977,0,0,0,2.792,0l2.744-2.744a.659.659,0,0,1,.932,0l5.842,5.842H14.474a.658.658,0,0,0,0,1.316H20.4a.645.645,0,0,0,.229-.042l.028-.011A.658.658,0,0,0,21,16.685c0-.007.006-.015.009-.023a.659.659,0,0,0,.04-.227V10.514a.658.658,0,1,0-1.316,0v4.333L13.9,9A1.976,1.976,0,0,0,11.1,9L8.36,11.75a.659.659,0,0,1-.93,0L1.123,5.443A.651.651,0,0,0,.658,5.25Z" transform="translate(0 -5.25)"/></svg>