<svg xmlns="http://www.w3.org/2000/svg" width="63.811" height="64.21" viewBox="0 0 63.811 64.21"><defs><style>.a{fill:#1007ea;}</style></defs><g transform="translate(-1.188 0.774)"><g transform="translate(1.188 -0.774)"><path class="a" d="M17.683,28.091a.935.935,0,0,1-.935-.935v-.935H13.935a.935.935,0,0,1,0-1.87h5.61a.935.935,0,0,0,0-1.87h-3.74a2.805,2.805,0,0,1,0-5.61h.943v-.935a.935.935,0,0,1,1.87,0v.935h2.8a.935.935,0,1,1,0,1.87h-5.61a.935.935,0,0,0,0,1.87h3.74a2.805,2.805,0,0,1,0,5.61h-.928v.935A.935.935,0,0,1,17.683,28.091Z" transform="translate(7.563 13.051)"/><path class="a" d="M27.25,44.882c-7.725,0-12.156-3.067-12.156-8.415,0-3.338,1.706-8.054,4.522-10.564L9.484,24.455v.791a.935.935,0,0,1-.935.935H2.939a.935.935,0,1,1,0-1.87H7.614V14.022a.632.632,0,0,1,0-.084v-.847H2.939a.935.935,0,0,1,0-1.87h5.61a.935.935,0,0,1,.935.935v.628l4.554-1.3a.93.93,0,0,0,.58-.481l2.166-4.314a2.83,2.83,0,0,1,1.251-1.251l3.095-1.554-.587-1.176a1.918,1.918,0,0,1-.194-.836A1.872,1.872,0,0,1,22.218,0H32.292a1.9,1.9,0,0,1,.821.2,1.872,1.872,0,0,1,.832,2.51L31.561,7.48h1.227a2.8,2.8,0,0,1,2.334,1.247l.623.935a2.8,2.8,0,0,1,0,3.114l-.486.729a.929.929,0,0,0,0,1.038l.486.729a2.8,2.8,0,0,1,0,3.114l-.671,1.006a.928.928,0,0,0-.108.813l.355,1.072a2.787,2.787,0,0,1-.325,2.44L34,25.211c3.531,2.351,5.406,7.95,5.406,11.256C39.406,41.815,34.975,44.882,27.25,44.882Zm-4.492-18.7c-3.375,1-5.794,6.811-5.794,10.285,0,5.694,6.444,6.545,10.285,6.545s10.285-.851,10.285-6.545c0-3.484-2.431-9.313-5.8-10.285Zm9.594-1.87,1.087-1.627a.932.932,0,0,0,.108-.815L33.191,20.8a2.78,2.78,0,0,1,.327-2.442l.671-1.006a.929.929,0,0,0,0-1.038l-.486-.729a2.8,2.8,0,0,1,0-3.114l.486-.729a.929.929,0,0,0,0-1.038l-.623-.937a.944.944,0,0,0-.78-.413h-8.35a.935.935,0,0,1-.325-.062l-.086-.037a.865.865,0,0,1-.209-.142l-.049-.043a.926.926,0,0,1-.166-.234L21.967,5.556l-3.091,1.55a.94.94,0,0,0-.419.421L16.291,11.84a2.81,2.81,0,0,1-1.739,1.442L9.484,14.729v7.836l12.223,1.747ZM29.47,7.48l2.805-5.61H22.22l2.8,5.61Z" transform="translate(-2.004 0)"/></g><g transform="translate(16.124 45.108)"><path class="a" d="M47.856,32.828a1.019,1.019,0,0,0,.538-1.884l-8.146-5.091a1.012,1.012,0,0,0-.538-.153,1.05,1.05,0,0,0-.326.053c-2.649.884-4.812,1.643-6.72,2.315-4.737,1.666-7.345,2.584-9.642,2.584h0c-2.763,0-5.276-1.352-10.779-4.313-2.495-1.342-5.568-3-9.528-5a4.647,4.647,0,0,1,2.822-.961,4.528,4.528,0,0,1,1.3.189l8.626,2.865a3.071,3.071,0,0,0,2.5,1.283,3.034,3.034,0,0,0,.448-.033H29.529a1.02,1.02,0,0,0,0-2.04h-11.2a1.072,1.072,0,0,0-.181.016,1.115,1.115,0,0,1-.183.016,1.055,1.055,0,0,1-.892-.507q-.024-.052-.055-.1a1.043,1.043,0,0,1,.762-1.472.964.964,0,0,1,.185-.016,1.164,1.164,0,0,1,.187.016,1.224,1.224,0,0,0,.177.014h6.109a1.02,1.02,0,0,0,.731-.31,12.358,12.358,0,0,1,8.469-3.765H39.47L47.4,20.5a.983.983,0,0,0,.454.11,1.019,1.019,0,0,0,.454-1.931l-8.146-4.073a1.019,1.019,0,0,0-.454-.106H33.6a14.422,14.422,0,0,0-9.585,4.073h-5.6a2.968,2.968,0,0,0-.446-.033,3.13,3.13,0,0,0-.548.049A3.076,3.076,0,0,0,14.93,21.11L7.448,18.626A6.665,6.665,0,0,0,.2,21.023a1.021,1.021,0,0,0-.173.843,1.01,1.01,0,0,0,.536.676c4.553,2.275,7.968,4.116,10.716,5.592,5.655,3.044,8.494,4.572,11.711,4.572h0c2.635,0,5.539-1.02,10.349-2.712,1.808-.635,3.826-1.344,6.237-2.155l7.738,4.836A1.037,1.037,0,0,0,47.856,32.828Z" transform="translate(0 -14.5)"/></g></g></svg>