<svg xmlns="http://www.w3.org/2000/svg" width="59.235" height="59.235" viewBox="0 0 59.235 59.235"><defs><style>.a,.b{fill:#1007ea;}.a{opacity:0.05;}</style></defs><g transform="translate(0)"><circle class="a" cx="29.617" cy="29.617" r="29.617"/><g transform="translate(15.864 10.712)"><path class="b" d="M7.971,35.848H4.046a.792.792,0,0,1,0-1.584H8.008s0-14.256,0-14.258l-3.96,0a.792.792,0,0,1,0-1.584h3.96a.568.568,0,0,1,.065,0,1.539,1.539,0,0,1,1.518,1.446,1.87,1.87,0,0,1,0,.189V20.8h.794a1.321,1.321,0,0,0,.968-.5l2.763-3.436L12.1,2.809a1.585,1.585,0,0,1,1.343-1.793A1.5,1.5,0,0,1,13.671,1H24.639a.792.792,0,1,1,0,1.584H13.671l2.248,15.728a.793.793,0,0,1-.672.9.916.916,0,0,1-.112.008.792.792,0,0,1-.627-.31L12.584,21.3a2.914,2.914,0,0,1-2.175,1.087H9.589V30.7c3.122,2.3,5.65,3.567,7.13,3.567h9.5c.971,0,1.269,0,1.611-1a90.465,90.465,0,0,0,1.56-10.944c0-.274-.507-.729-1.586-.729H16.72a.792.792,0,1,1,0-1.584h1.5l-1.41-14.1A1.587,1.587,0,0,1,18.23,4.176c.051,0,.1-.008.16-.008H29.267a1.593,1.593,0,0,1,1.117.451,1.576,1.576,0,0,1,.477,1.115,1.654,1.654,0,0,1-.017.252L28.714,20.093a2.452,2.452,0,0,1,2.26,2.292,92.127,92.127,0,0,1-1.6,11.248c-.006.029-.014.057-.022.084-.657,1.972-1.806,2.132-3.13,2.132h-9.5c-1.7,0-4.093-1.076-7.128-3.2v1.616A1.478,1.478,0,0,1,9.2,35.336a1.532,1.532,0,0,1-1.057.512l-.1,0ZM27.124,20.009,29.275,5.751l-10.886,0v-.4l0,.4,1.427,14.256Z" transform="translate(-3.254 -1)"/><path class="b" d="M17.026,12.544A2.772,2.772,0,1,1,19.8,9.772,2.775,2.775,0,0,1,17.026,12.544Zm0-3.96a1.188,1.188,0,1,0,1.188,1.188A1.188,1.188,0,0,0,17.026,8.584Z" transform="translate(3.171 2.504)"/></g></g></svg>