<svg xmlns="http://www.w3.org/2000/svg" width="24" height="24.003" viewBox="0 0 24 24.003"><defs><style>.a{fill:#fff;}</style></defs><g transform="translate(-0.004)"><path class="a" d="M12.006,24a1,1,0,0,1-.163-.013.976.976,0,0,1-.64-.4L.24,8.237a1.276,1.276,0,0,1-.233-.7A.291.291,0,0,1,0,7.5a.264.264,0,0,1,0-.028A1.259,1.259,0,0,1,.252,6.75L4.954.4A.974.974,0,0,1,5.225.159l.02-.013A1.013,1.013,0,0,1,5.756,0h12.5a1,1,0,0,1,.509.145.1.1,0,0,1,.015.01A.973.973,0,0,1,19.054.4l4.7,6.352A1.272,1.272,0,0,1,24,7.482c0,.006,0,.012,0,.018a.209.209,0,0,1,0,.025,1.266,1.266,0,0,1-.232.713L12.806,23.591a.968.968,0,0,1-.228.228A.98.98,0,0,1,12.006,24Zm0-2.341L15.865,8H8.143Zm1.1-.2L22.711,8H16.9Zm-2.194,0L7.1,8H1.3ZM22.695,7,18.709,1.614,17.186,7ZM15.607,7,12,1.422,8.4,7ZM6.822,7,5.3,1.616,1.311,7Zm9.524-.7,1.5-5.3H12.922Zm-8.683,0L11.086,1H6.165Z"/></g></svg>