<svg xmlns="http://www.w3.org/2000/svg" width="81.151" height="68.956" viewBox="0 0 81.151 68.956"><defs><style>.a{fill:#fff;}</style></defs><g transform="translate(-0.548 -2.269)"><path class="a" d="M60.611,71.225a1.765,1.765,0,0,1-1.577-.964L41.124,35.27,23.213,70.261a1.761,1.761,0,0,1-1.577.964,1.815,1.815,0,0,1-.8-.191,1.776,1.776,0,0,1-.772-2.385L39.132,31.386l-1.966-3.837L14.954,40.818a4.376,4.376,0,0,1-2.214.705,2.541,2.541,0,0,1-1.623-.549c-.457-.368-1.442-1.474-.673-3.781l3.568-10.7L3.474,24.236c-2.307-.492-2.81-1.779-2.905-2.5s.057-2.094,2.154-3.171L26.363,6.429l-.811-1.58a1.769,1.769,0,0,1,.769-2.385,1.8,1.8,0,0,1,.808-.195,1.761,1.761,0,0,1,1.577.964l1.577,3.079c.018.028.032.053.046.081s.021.046.032.071L41.124,27.492,51.888,6.464c.011-.025.021-.05.032-.071s.032-.057.046-.081l1.573-3.075A1.773,1.773,0,0,1,56.7,4.852l-.811,1.58,23.64,12.139c2.094,1.077,2.25,2.448,2.154,3.168s-.6,2.005-2.905,2.5L68.232,26.486,71.8,37.19c.769,2.31-.216,3.416-.673,3.784a2.541,2.541,0,0,1-1.623.549,4.386,4.386,0,0,1-2.214-.705L45.074,27.549l-1.963,3.837L62.187,68.649a1.776,1.776,0,0,1-.769,2.385A1.841,1.841,0,0,1,60.611,71.225ZM16.69,23.432A1.77,1.77,0,0,1,18,25.724L14.2,37.137,35.55,24.382l-7.575-14.8L5.611,21.069Zm51.361,13.7L64.246,25.724a1.773,1.773,0,0,1,1.307-2.3l11.083-2.363L54.269,9.578,46.7,24.382Z" transform="translate(0)"/></g></svg>