<svg xmlns="http://www.w3.org/2000/svg" width="75.745" height="57.857" viewBox="0 0 75.745 57.857"><defs><style>.a{fill:#fff;}</style></defs><g transform="translate(0 0)"><path class="a" d="M10.689,41.578a1.614,1.614,0,0,1-1.247-.707L.487,27.536a1.605,1.605,0,0,1,.437-2.23,1.59,1.59,0,0,1,.893-.273,1.606,1.606,0,0,1,1.333.71l5.193,7.731A30.121,30.121,0,0,1,31.119,3.855l.3-.074A29.237,29.237,0,0,1,38.111,3a28.888,28.888,0,0,1,21.638,9.771,1.607,1.607,0,0,1-2.41,2.127A25.639,25.639,0,0,0,32.167,6.91l-.273.067A26.851,26.851,0,0,0,11.753,36.3l8.088-9.685a1.606,1.606,0,0,1,2.465,2.06l-10.3,12.332A3.1,3.1,0,0,1,10.689,41.578Z" transform="translate(-0.214 -3)"/><path class="a" d="M26.242,45.352A28.637,28.637,0,0,1,6,36.991a1.608,1.608,0,1,1,2.262-2.285,25.457,25.457,0,0,0,17.991,7.429h0a26.054,26.054,0,0,0,5.989-.7A26.276,26.276,0,0,0,52.25,15.793L44.577,24.98a1.606,1.606,0,1,1-2.465-2.06l10.109-12.1a1.6,1.6,0,0,1,.151-.18l.045-.058a1.6,1.6,0,0,1,1.231-.575.9.9,0,0,1,.093,0,1.608,1.608,0,0,1,1.247.71l8.949,13.341a1.607,1.607,0,1,1-2.67,1.79L55.45,17.181a29.248,29.248,0,0,1-29.208,28.17Z" transform="translate(11.536 12.506)"/></g></svg>