<svg xmlns="http://www.w3.org/2000/svg" width="37.823" height="47.661" viewBox="0 0 37.823 47.661"><defs><style>.a{fill:#1007ea;}</style></defs><g transform="translate(-2.847 -0.465)"><path class="a" d="M21.76,48.126a2.486,2.486,0,0,1-.614-.079,2.418,2.418,0,0,1-1.489-1.122L3.492,24.543a3.84,3.84,0,0,1-.64-1.925.885.885,0,0,1,0-.128,3.782,3.782,0,0,1,.814-2.436L19.637,1.465a2.635,2.635,0,0,1,.4-.39,2.758,2.758,0,0,1,3.869.409L39.831,20.016a3.844,3.844,0,0,1,.839,2.483,1.007,1.007,0,0,1,0,.112,3.766,3.766,0,0,1-.62,1.89L23.818,46.986a2.343,2.343,0,0,1-.824.8A2.435,2.435,0,0,1,21.76,48.126Zm-.041-3.983L28.489,26.4H15.02Zm2.89-1.781L37.773,24.121l-7,2.087Zm-5.846-.2L12.739,26.206,5.731,24.117ZM28.532,24.33,21.717,4.762,14.974,24.33Zm2.105-.24,7.844-2.336a1.725,1.725,0,0,0-.244-.424L23.843,4.584Zm-17.766,0L19.538,4.748,5.25,21.369a1.488,1.488,0,0,0-.219.384Z" transform="translate(0)"/></g></svg>