<svg xmlns="http://www.w3.org/2000/svg" width="41.59" height="49.908" viewBox="0 0 41.59 49.908"><defs><style>.a{fill:#1007ea;}</style></defs><g transform="translate(-2.004)"><path class="a" d="M30.077,49.908c-8.59,0-13.517-3.41-13.517-9.358,0-3.712,1.9-8.956,5.028-11.747l-11.267-1.61v.88a1.04,1.04,0,0,1-1.04,1.04H3.044a1.04,1.04,0,1,1,0-2.079h5.2V15.592a.7.7,0,0,1,0-.094v-.942h-5.2a1.04,1.04,0,1,1,0-2.079H9.282a1.04,1.04,0,0,1,1.04,1.04v.7l5.064-1.447a1.034,1.034,0,0,0,.645-.534l2.408-4.8a3.147,3.147,0,0,1,1.391-1.391l3.442-1.728-.653-1.308a2.133,2.133,0,0,1-.216-.93A2.082,2.082,0,0,1,24.481,0h11.2A2.11,2.11,0,0,1,36.6.22a2.081,2.081,0,0,1,.925,2.791L34.87,8.318h1.364A3.117,3.117,0,0,1,38.83,9.7l.692,1.04a3.114,3.114,0,0,1,0,3.462l-.541.811a1.033,1.033,0,0,0,0,1.154l.541.811a3.114,3.114,0,0,1,0,3.462l-.747,1.119a1.032,1.032,0,0,0-.121.9l.4,1.192a3.1,3.1,0,0,1-.362,2.714l-1.106,1.659c3.926,2.614,6.012,8.84,6.012,12.516C43.594,46.5,38.667,49.908,30.077,49.908ZM25.082,29.113c-3.753,1.115-6.442,7.573-6.442,11.437,0,6.332,7.166,7.278,11.437,7.278s11.437-.946,11.437-7.278c0-3.874-2.7-10.356-6.444-11.437ZM35.75,27.033l1.208-1.809a1.037,1.037,0,0,0,.121-.907l-.4-1.192a3.091,3.091,0,0,1,.364-2.716l.747-1.119a1.033,1.033,0,0,0,0-1.154l-.541-.811a3.114,3.114,0,0,1,0-3.462l.541-.811a1.033,1.033,0,0,0,0-1.154L37.1,10.857a1.05,1.05,0,0,0-.867-.46H26.95a1.04,1.04,0,0,1-.362-.069c-.017-.006-.079-.033-.1-.042a.961.961,0,0,1-.233-.158l-.054-.048a1.03,1.03,0,0,1-.185-.26L24.2,6.178,20.765,7.9a1.045,1.045,0,0,0-.466.468l-2.408,4.8a3.124,3.124,0,0,1-1.934,1.6l-5.635,1.61v8.713l13.592,1.942Zm-3.2-18.715,3.119-6.238H24.483l3.111,6.238Z"/><path class="a" d="M18.207,29.556a1.04,1.04,0,0,1-1.04-1.04v-1.04H14.04a1.04,1.04,0,0,1,0-2.079h6.238a1.04,1.04,0,0,0,0-2.079H16.119a3.119,3.119,0,1,1,0-6.238h1.048V16.04a1.04,1.04,0,0,1,2.079,0v1.04h3.111a1.04,1.04,0,1,1,0,2.079H16.119a1.04,1.04,0,0,0,0,2.079h4.159a3.119,3.119,0,1,1,0,6.238H19.247v1.04A1.04,1.04,0,0,1,18.207,29.556Z" transform="translate(11.87 16.192)"/></g></svg>