<?xml version="1.0" encoding="UTF-8"?>
<svg xmlns="http://www.w3.org/2000/svg" xmlns:xlink="http://www.w3.org/1999/xlink" version="1.1" viewBox="0 0 24 24">
   <!--Generated by IJSVG (https://github.com/iconjar/IJSVG)-->
   <g style="fill:#FFF">
      <path d="M11.999,24.001c-4.135,0 -7.5,-3.365 -7.5,-7.5c0,-0.535 0.058,-1.071 0.173,-1.597c-1.756,-0.944 -2.863,-2.518 -3.125,-4.452c-0.309,-2.269 0.605,-4.619 2.385,-6.133c0.09,-0.077 0.205,-0.119 0.324,-0.119c0.057,0 0.114,0.01 0.168,0.029c0.168,0.06 0.292,0.206 0.324,0.381c0.169,0.933 0.947,1.624 1.882,1.697c0.735,-3.896 3.829,-6.307 8.126,-6.307c0.172,0 0.329,0.086 0.421,0.231c0.092,0.145 0.104,0.324 0.032,0.479c-0.888,1.915 -0.41,4.211 1.16,5.614c0.062,0.006 0.124,0.009 0.185,0.009c0.432,0 0.841,-0.142 1.183,-0.41c0.404,-0.317 0.66,-0.772 0.721,-1.282c0.023,-0.191 0.15,-0.349 0.332,-0.412c0.054,-0.019 0.109,-0.029 0.166,-0.029c0.132,0 0.257,0.051 0.351,0.144c1.416,1.396 2.214,3.259 2.249,5.247c0.034,1.847 -0.884,3.609 -2.408,4.647c0.233,0.733 0.351,1.493 0.351,2.263c3.55271e-15,4.136 -3.365,7.5 -7.5,7.5Zm0,-14c-3.584,0 -6.5,2.916 -6.5,6.5c0,3.584 2.916,6.5 6.5,6.5c3.584,0 6.5,-2.916 6.5,-6.5c0,-3.584 -2.916,-6.5 -6.5,-6.5Zm-7.963,-4.394c-1.171,1.286 -1.728,3.02 -1.499,4.71c0.208,1.536 1.064,2.805 2.421,3.602c1.083,-2.954 3.875,-4.918 7.041,-4.918c2.903,0 5.529,1.67 6.772,4.28c1.149,-0.867 1.811,-2.218 1.785,-3.671c-0.025,-1.424 -0.512,-2.798 -1.38,-3.912c-0.192,0.392 -0.47,0.736 -0.821,1.011c-0.52,0.408 -1.142,0.624 -1.799,0.624c-0.118,0 -0.237,-0.007 -0.354,-0.021c-0.042,-0.005 -0.084,-0.011 -0.127,-0.018c-0.089,-0.014 -0.173,-0.053 -0.241,-0.111c-1.792,-1.507 -2.495,-3.94 -1.814,-6.155c-3.53,0.265 -5.994,2.476 -6.469,5.842c-0.033,0.228 -0.215,0.404 -0.443,0.428c-0.106,0.01 -0.211,0.016 -0.315,0.016c-1.178,0 -2.242,-0.672 -2.757,-1.707Z" />
      <path d="M11.999,17.001c-0.276,0 -0.5,-0.224 -0.5,-0.5v-4.5c0,-0.276 0.224,-0.5 0.5,-0.5c0.276,0 0.5,0.224 0.5,0.5v4h3c0.276,0 0.5,0.224 0.5,0.5c0,0.276 -0.224,0.5 -0.5,0.5h-3.5Z" />
   </g>
</svg>