<svg xmlns="http://www.w3.org/2000/svg" width="62.035" height="37.469" viewBox="0 0 62.035 37.469"><defs><style>.a{fill:#fff;}</style></defs><g transform="translate(0 -4.754)"><path class="a" d="M27.476,42.223a4.833,4.833,0,0,1-3.668-1.68L14.93,30.592H10.117a3.891,3.891,0,0,1-3.655,2.585H1.292a1.292,1.292,0,1,1,0-2.585h5.17A1.293,1.293,0,0,0,7.754,29.3V11.206A1.293,1.293,0,0,0,6.462,9.913H1.292a1.292,1.292,0,0,1,0-2.585h5.17a3.882,3.882,0,0,1,3.877,3.877v.675L20.5,7.809a6.858,6.858,0,0,1,2.543-.491A6.762,6.762,0,0,1,27.1,8.667l.357.292L34.29,5.542a7.64,7.64,0,0,1,3.371-.788,7.538,7.538,0,0,1,2.59.455L52.1,9.51a3.885,3.885,0,0,1,3.469-2.182h5.17a1.292,1.292,0,0,1,0,2.585h-5.17a1.293,1.293,0,0,0-1.292,1.292V29.3a1.293,1.293,0,0,0,1.292,1.292h5.17a1.292,1.292,0,0,1,0,2.585h-5.17A3.857,3.857,0,0,1,52.009,30.8L38.573,33.352a5.347,5.347,0,0,1-.2.633,5.683,5.683,0,0,1-5.263,3.57,5.472,5.472,0,0,1-.8-.057,4.832,4.832,0,0,1-4.834,4.725ZM15.509,28.009a1.3,1.3,0,0,1,.964.432l9.279,10.4a2.276,2.276,0,0,0,1.727.8,2.248,2.248,0,0,0,2.246-2.251V36.3l-2.207-2.207a1.293,1.293,0,0,1,1.83-1.827l2.4,2.4.217.088a3.086,3.086,0,0,0,4-1.724,2.83,2.83,0,0,0,.171-.659L32.69,28.919a1.293,1.293,0,0,1,1.83-1.827l3.5,3.5h.752a2.585,2.585,0,0,0,2.068-4.136l-7.708-9.874L28.665,18.05a4.337,4.337,0,0,1-3.332-.266,4.362,4.362,0,0,1-.486-7.475,4.179,4.179,0,0,0-1.8-.406,4.273,4.273,0,0,0-1.59.308L10.339,14.667V28.009h5.17Zm27.383-3.122a5.22,5.22,0,0,1,1.049,3.122,5.146,5.146,0,0,1-.308,1.752l8.062-1.53V12.113L39.364,7.639a5.01,5.01,0,0,0-3.924.217l-8.925,4.461a1.779,1.779,0,0,0,.8,3.363,1.724,1.724,0,0,0,.548-.088l9.21-3.027a1.369,1.369,0,0,1,.4-.065,1.292,1.292,0,0,1,.406,2.52l-2.143.7Z"/></g></svg>