<svg xmlns="http://www.w3.org/2000/svg" width="59.235" height="59.235" viewBox="0 0 59.235 59.235"><defs><style>.a,.b{fill:#1007ea;}.a{opacity:0.05;}</style></defs><g transform="translate(0)"><circle class="a" cx="29.617" cy="29.617" r="29.617"/><g transform="translate(11.333 10.296)"><path class="b" d="M1.24,23.9a.736.736,0,1,1,0-1.472H33.627a.736.736,0,0,1,0,1.472Z" transform="translate(0 10.318)"/><path class="b" d="M3.688,26.149a.736.736,0,0,1,0-1.472h.736V12.9H3.688a.736.736,0,0,1,0-1.472h8.833a.736.736,0,1,1,0,1.472h-.736V24.677h.736a.736.736,0,1,1,0,1.472Zm6.625-1.472V12.9H8.841V24.677Zm-2.944,0V12.9H5.9V24.677Z" transform="translate(1.156 5.125)"/><path class="b" d="M14.688,26.149a.736.736,0,0,1,0-1.472h.736V12.9h-.736a.736.736,0,0,1,0-1.472h8.833a.736.736,0,0,1,0,1.472h-.736V24.677h.736a.736.736,0,0,1,0,1.472Zm6.625-1.472V12.9H19.841V24.677Zm-2.944,0V12.9H16.9V24.677Z" transform="translate(6.349 5.125)"/><path class="b" d="M2.881,15.08a1.472,1.472,0,0,1-.905-2.635L16.785.885A1.478,1.478,0,0,1,18.65.927L32.1,12.488a1.472,1.472,0,0,1-.958,2.589H2.881Zm0-1.471H31.134L17.689,2.046,2.886,13.6Z" transform="translate(0.426)"/></g></g></svg>