<svg xmlns="http://www.w3.org/2000/svg" width="59.235" height="59.235" viewBox="0 0 59.235 59.235"><defs><style>.a,.b{fill:#1007ea;}.a{opacity:0.05;}</style></defs><g transform="translate(0)"><circle class="a" cx="29.617" cy="29.617" r="29.617"/><g transform="translate(13.938 15.941)"><path class="b" d="M15.331,30.652a1.271,1.271,0,0,1-.208-.017,1.247,1.247,0,0,1-.817-.51l-14-19.607a1.629,1.629,0,0,1-.3-.89.371.371,0,0,1,0-.051.337.337,0,0,1,0-.036A1.607,1.607,0,0,1,.321,8.62l6-8.105A1.244,1.244,0,0,1,6.671.2L6.7.186A1.293,1.293,0,0,1,7.349,0h15.96a1.271,1.271,0,0,1,.65.185A.124.124,0,0,1,23.979.2a1.243,1.243,0,0,1,.352.314l6,8.112a1.625,1.625,0,0,1,.317.931c0,.008,0,.015,0,.023a.267.267,0,0,1,0,.032,1.616,1.616,0,0,1-.3.911l-14,19.606a1.236,1.236,0,0,1-.291.291A1.251,1.251,0,0,1,15.331,30.652Zm0-2.989,4.931-17.447H10.4Zm1.4-.262L29,10.216H21.585Zm-2.8,0L9.071,10.216H1.658ZM28.981,8.939,23.89,2.061,21.946,8.939Zm-9.051,0-4.6-7.123-4.6,7.123Zm-11.219,0L6.767,2.064,1.673,8.939Zm12.162-.894,1.912-6.768H16.5Zm-11.088,0,4.371-6.768H7.872Z"/></g></g></svg>