<?xml version="1.0" encoding="UTF-8"?>
<svg xmlns="http://www.w3.org/2000/svg" xmlns:xlink="http://www.w3.org/1999/xlink" version="1.1" viewBox="0 0 24 24">
  <!--Generated by IJSVG (https://github.com/iconjar/IJSVG)-->
  <path style="fill:rgb(0,255,0);" d="M8.314,23.999c-0.025,0 -0.051,-0.002 -0.076,-0.006c-0.004,-0.001 -0.008,-0.001 -0.012,-0.002c-0.521,-0.033 -0.968,-0.367 -1.145,-0.857l-2.525,-6.993l-3.605,-1.547c-0.325,-0.139 -0.596,-0.387 -0.764,-0.698c-0.199,-0.369 -0.243,-0.794 -0.122,-1.196c0.12,-0.402 0.39,-0.733 0.759,-0.932l21.649,-11.645c0.15,-0.081 0.32,-0.124 0.49,-0.124c0.095,0 0.19,0.013 0.282,0.039c0.135,0.038 0.259,0.102 0.369,0.191c0.005,0.004 0.01,0.009 0.015,0.014c0.313,0.268 0.44,0.684 0.331,1.072l-5.308,18.928c-0.018,0.066 -0.042,0.135 -0.07,0.2c-0.165,0.385 -0.47,0.683 -0.86,0.839c-0.187,0.075 -0.383,0.113 -0.583,0.113c-0.212,0 -0.42,-0.043 -0.618,-0.128l-4.462,-1.912l-2.66,4.051c-0.154,0.235 -0.385,0.417 -0.649,0.512c-0.116,0.042 -0.242,0.067 -0.375,0.073c-0.007,0.004 -0.031,0.008 -0.061,0.008Zm-0.365,-1.407l0.787,-5.07c0.005,-0.033 0.014,-0.066 0.027,-0.1c0.004,-0.011 0.008,-0.021 0.013,-0.031c0.014,-0.034 0.039,-0.075 0.069,-0.111l10.698,-12.915l-14.001,11.561l2.407,6.666Zm1.08,-0.441l2.098,-3.195l-1.502,-0.644l-0.596,3.839Zm7.887,-1.802c0.072,0.031 0.147,0.046 0.224,0.046c0.072,0 0.144,-0.014 0.212,-0.041c0.141,-0.056 0.251,-0.164 0.311,-0.304c0.01,-0.024 0.019,-0.049 0.026,-0.074l5.004,-17.845l-12.652,15.272l6.875,2.946Zm-15.617,-7.701c-0.134,0.072 -0.232,0.192 -0.276,0.338c-0.044,0.146 -0.028,0.301 0.044,0.435c0.061,0.113 0.16,0.203 0.277,0.254l3.522,1.511l15.489,-12.788l-19.056,10.25Z" fill="#000"/>
</svg>
