<svg xmlns="http://www.w3.org/2000/svg" width="62.455" height="37.723" viewBox="0 0 62.455 37.723"><defs><style>.a{fill:#1007ea;}</style></defs><g transform="translate(0 0)"><path class="a" d="M27.662,42.477a4.866,4.866,0,0,1-3.693-1.691L15.031,30.767H10.185a3.918,3.918,0,0,1-3.68,2.6H1.3a1.3,1.3,0,1,1,0-2.6h5.2a1.3,1.3,0,0,0,1.3-1.3V11.249a1.3,1.3,0,0,0-1.3-1.3H1.3a1.3,1.3,0,0,1,0-2.6h5.2a3.908,3.908,0,0,1,3.9,3.9v.679l10.227-4.1A6.9,6.9,0,0,1,23.2,7.335a6.808,6.808,0,0,1,4.086,1.358l.359.294,6.88-3.44a7.691,7.691,0,0,1,3.393-.794,7.589,7.589,0,0,1,2.607.458l11.934,4.33a3.911,3.911,0,0,1,3.492-2.2h5.2a1.3,1.3,0,0,1,0,2.6h-5.2a1.3,1.3,0,0,0-1.3,1.3V29.465a1.3,1.3,0,0,0,1.3,1.3h5.2a1.3,1.3,0,0,1,0,2.6h-5.2a3.883,3.883,0,0,1-3.589-2.392L38.834,33.546a5.383,5.383,0,0,1-.206.638,5.722,5.722,0,0,1-5.3,3.594,5.509,5.509,0,0,1-.8-.057,4.864,4.864,0,0,1-4.866,4.757ZM15.614,28.167a1.306,1.306,0,0,1,.971.435l9.342,10.472a2.291,2.291,0,0,0,1.738.8,2.263,2.263,0,0,0,2.261-2.267v-1.1L27.7,34.29a1.3,1.3,0,0,1,1.842-1.84l2.415,2.415.219.088a3.107,3.107,0,0,0,4.031-1.736,2.849,2.849,0,0,0,.172-.664l-3.471-3.471a1.3,1.3,0,0,1,1.842-1.84l3.524,3.524h.757A2.6,2.6,0,0,0,41.116,26.6l-7.76-9.941-4.5,1.478a4.366,4.366,0,0,1-3.354-.268,4.391,4.391,0,0,1-.489-7.526A4.208,4.208,0,0,0,23.2,9.938a4.3,4.3,0,0,0-1.6.31L10.409,14.734V28.167h5.2Zm27.569-3.144a5.255,5.255,0,0,1,1.057,3.144,5.181,5.181,0,0,1-.31,1.764l8.117-1.541V12.163L39.63,7.658a5.044,5.044,0,0,0-3.95.219l-8.986,4.492a1.791,1.791,0,0,0,.809,3.386,1.736,1.736,0,0,0,.552-.088l9.272-3.047a1.378,1.378,0,0,1,.406-.065,1.3,1.3,0,0,1,.409,2.537l-2.157.708Z" transform="translate(0 -4.754)"/></g></svg>