<svg xmlns="http://www.w3.org/2000/svg" width="65.708" height="57.328" viewBox="0 0 65.708 57.328"><defs><style>.a{fill:#1007ea;}.b{fill:none;stroke:#1007ea;stroke-linecap:round;stroke-linejoin:round;stroke-width:1.8px;}</style></defs><g transform="translate(-1340.126 -300)"><g transform="translate(1340.126 324.5)"><path class="a" d="M1.018,32.828a1.019,1.019,0,0,1-.538-1.884l8.146-5.091a1.012,1.012,0,0,1,.538-.153,1.05,1.05,0,0,1,.326.053c2.649.884,4.812,1.643,6.72,2.315,4.737,1.666,7.345,2.584,9.642,2.584h0c2.763,0,5.276-1.352,10.779-4.313,2.495-1.342,5.567-3,9.528-5a4.647,4.647,0,0,0-2.822-.961,4.528,4.528,0,0,0-1.3.189l-8.626,2.865a3.071,3.071,0,0,1-2.5,1.283,3.034,3.034,0,0,1-.448-.033H19.346a1.02,1.02,0,0,1,0-2.04h11.2a1.072,1.072,0,0,1,.181.016,1.115,1.115,0,0,0,.183.016,1.055,1.055,0,0,0,.892-.507q.024-.052.055-.1a1.043,1.043,0,0,0-.762-1.472.964.964,0,0,0-.185-.016,1.164,1.164,0,0,0-.187.016,1.224,1.224,0,0,1-.177.014H24.437a1.02,1.02,0,0,1-.731-.31,12.358,12.358,0,0,0-8.469-3.765H9.4L1.472,20.5a.983.983,0,0,1-.454.11,1.019,1.019,0,0,1-.454-1.931L8.71,14.606a1.019,1.019,0,0,1,.454-.106h6.109a14.422,14.422,0,0,1,9.585,4.073h5.6a2.968,2.968,0,0,1,.446-.033,3.13,3.13,0,0,1,.548.049,3.076,3.076,0,0,1,2.488,2.521l7.482-2.484a6.665,6.665,0,0,1,7.248,2.4,1.021,1.021,0,0,1,.173.843,1.01,1.01,0,0,1-.536.676c-4.553,2.275-7.968,4.116-10.715,5.592-5.655,3.044-8.494,4.572-11.711,4.572h0c-2.635,0-5.539-1.02-10.349-2.712-1.808-.635-3.826-1.344-6.237-2.155L1.56,32.675A1.037,1.037,0,0,1,1.018,32.828Z" transform="translate(0 0)"/></g><g transform="translate(1360.067 297.732)"><path class="a" d="M12.712,39.395a12.864,12.864,0,0,1-2.4-.227A12.683,12.683,0,0,1,8.482,14.749L9.26,12.4a4.739,4.739,0,0,1,1.354-2.056l6.845-6.076A4.808,4.808,0,0,1,20.344,3.08l13.686-.8c.093-.006.187-.008.28-.008a4.77,4.77,0,0,1,2.5.706l8.506,5.241a.954.954,0,0,1-1,1.625L35.808,4.6a2.863,2.863,0,0,0-1.493-.423q-.086,0-.172.006l-13.684.8a2.879,2.879,0,0,0-1.734.717L11.88,11.775a2.86,2.86,0,0,0-.812,1.23l-.393,1.186a12.665,12.665,0,0,1,1.991-.158c.1,0,.193,0,.29,0l6.511-4.352a4.748,4.748,0,0,1,2.651-.8H29.3a4.8,4.8,0,0,1,4.081,2.3l.683,1.125a4.747,4.747,0,0,1,.183,4.6l-.618,1.236a4.777,4.777,0,0,1-5.2,2.544l-6.166-1.234a.3.3,0,0,0-.059-.006.312.312,0,0,0-.175.053,2.891,2.891,0,0,0-1.219,2.973L31.52,26.6a2.867,2.867,0,0,0,1.03.191,2.827,2.827,0,0,0,.849-.13l11.125-3.492a.973.973,0,0,1,.286-.044.954.954,0,0,1,.286,1.863L33.969,28.476a4.791,4.791,0,0,1-3.133-.1L19.679,24.084a.954.954,0,0,1-.563-.587l-.032-.1a4.777,4.777,0,0,1,1.879-5.483,2.248,2.248,0,0,1,1.238-.374,2.325,2.325,0,0,1,.431.042L28.8,18.818a2.863,2.863,0,0,0,3.12-1.526l.618-1.236a2.848,2.848,0,0,0-.111-2.76l-.683-1.125a2.877,2.877,0,0,0-2.449-1.383H22.114a2.849,2.849,0,0,0-1.591.484l-4.716,3.151a12.671,12.671,0,0,1,2.746,1.049.953.953,0,0,1-.441,1.8.966.966,0,0,1-.442-.109A10.8,10.8,0,0,0,14.7,16.129a10.946,10.946,0,0,0-2.037-.193A10.774,10.774,0,0,0,10.671,37.3a10.964,10.964,0,0,0,2.037.195,10.782,10.782,0,0,0,10.558-8.762.952.952,0,0,1,1.116-.759.94.94,0,0,1,.608.4.951.951,0,0,1,.149.715,12.684,12.684,0,0,1-12.427,10.31Z" transform="translate(0)"/><path class="b" d="M11061.03,2426.572l-3.556,6.218,4.718,5.716,3.436-6.388Z" transform="translate(-11049.067 -2405.74)"/></g></g></svg>