<svg xmlns="http://www.w3.org/2000/svg" width="76.964" height="76.926" viewBox="0 0 76.964 76.926"><defs><style>.a{fill:#fff;}</style></defs><g transform="translate(-0.493 -0.5)"><path class="a" d="M12.518,11.534a1.673,1.673,0,0,1-1.672-1.672V8.189H9.173a1.672,1.672,0,0,1,0-3.345h1.672V3.172a1.672,1.672,0,1,1,3.345,0V4.845h1.672a1.672,1.672,0,1,1,0,3.345H14.19V9.862A1.673,1.673,0,0,1,12.518,11.534Z" transform="translate(16.431 2.345)"/><path class="a" d="M19.518,30.534a1.673,1.673,0,0,1-1.672-1.672V27.189H16.173a1.672,1.672,0,1,1,0-3.345h1.672V22.172a1.672,1.672,0,1,1,3.345,0v1.672h1.672a1.672,1.672,0,1,1,0,3.345H21.19v1.672A1.675,1.675,0,0,1,19.518,30.534Z" transform="translate(32.843 46.892)"/><path class="a" d="M24.544,42.6a1.673,1.673,0,0,1-1.672-1.672V39.257H21.2a1.672,1.672,0,0,1,0-3.345h5.686A2.726,2.726,0,0,0,29.136,34.7,2.681,2.681,0,0,0,28.367,31L22.2,26.892a6.021,6.021,0,0,1-.913-9.318,5.921,5.921,0,0,1,4.171-1.733h.756V14.172a1.672,1.672,0,1,1,3.345,0v1.672H31.23a1.672,1.672,0,1,1,0,3.345H25.544a2.712,2.712,0,0,0-1.913.769,2.679,2.679,0,0,0,.411,4.144l6.164,4.107a6.02,6.02,0,0,1-3.315,11.047h-.682v1.672A1.665,1.665,0,0,1,24.544,42.6Z" transform="translate(44.541 28.135)"/><path class="a" d="M5.537,30.6a1.673,1.673,0,0,1-1.672-1.672V27.257H2.192a1.672,1.672,0,1,1,0-3.345H7.878A2.676,2.676,0,0,0,9.37,19L3.2,14.892a6.017,6.017,0,0,1-.92-9.308A6.156,6.156,0,0,1,6.527,3.845h.679V2.172a1.672,1.672,0,1,1,3.345,0V3.845h1.672a1.672,1.672,0,1,1,0,3.345H6.537a2.754,2.754,0,0,0-1.906.773A2.676,2.676,0,0,0,5.048,12.1l6.164,4.107A6.02,6.02,0,0,1,7.9,27.257H7.209v1.672A1.673,1.673,0,0,1,5.537,30.6Z" transform="translate(0)"/><path class="a" d="M4.172,34.5a1.669,1.669,0,0,1-1.666-1.8c.084-1.054.93-10.4,4.572-14.041a6.181,6.181,0,0,1,4.445-1.993c2.034,0,4.114,1.074,6.2,3.181,5.114,5.161,2.933,8.88,1.181,10.639C15.216,34.169,5.323,34.48,4.206,34.5H4.172Zm7.348-14.5a2.9,2.9,0,0,0-2.08,1.013c-2.034,2.034-3.007,7.365-3.378,10.034,4.221-.331,8.863-1.328,10.479-2.94,1.161-1.161,1.927-2.773-1.191-5.92C13.932,20.764,12.611,20,11.527,20l-.007-.836v.84Z" transform="translate(4.709 37.905)"/><path class="a" d="M27.823,63.069a3.35,3.35,0,0,1-3.281-2.689L22.89,52.115l-8.746-8.75L5.879,41.713A3.35,3.35,0,0,1,3.19,38.429a3.322,3.322,0,0,1,.98-2.365l6.542-6.545a8.369,8.369,0,0,1,8.9-1.9l2.371.906,11.7-17.208A11.674,11.674,0,0,1,43.6,5.815a10.751,10.751,0,0,1,1.087.054L56.908,6.983,59.9,3.989a1.674,1.674,0,0,1,2.368,2.368L59.276,9.351,60.39,21.575a11.721,11.721,0,0,1-5.522,11.041L37.727,44.275l.906,2.371a8.366,8.366,0,0,1-1.9,8.9l-6.545,6.545a3.335,3.335,0,0,1-2.365.977Zm0-3.345,6.545-6.545a5.026,5.026,0,0,0,1.141-5.341l-.625-1.632-8.6,5.846Zm-3.187-10.6,8.445-5.746L22.873,33.174,17.13,41.62ZM35.9,41.469,53.055,29.8a8.4,8.4,0,0,0,4.007-7.893c0-.033-.007-.07-.007-.107L56,10.257,44.379,9.2a7.706,7.706,0,0,0-.783-.037,8.356,8.356,0,0,0-7.1,3.973L24.786,30.362ZM16.632,30.418a5.056,5.056,0,0,0-3.552,1.468L6.538,38.432l7.669,1.535,5.846-8.6-1.632-.625A5.018,5.018,0,0,0,16.632,30.418Z" transform="translate(6.323 7.036)"/><path class="a" d="M20.24,20.328a6.689,6.689,0,1,1,6.689-6.689A6.7,6.7,0,0,1,20.24,20.328Zm0-10.034a3.345,3.345,0,1,0,3.345,3.345A3.348,3.348,0,0,0,20.24,10.295Z" transform="translate(30.616 15.123)"/></g></svg>