<svg xmlns="http://www.w3.org/2000/svg" width="16.758" height="29.793" viewBox="0 0 16.758 29.793"><defs><style>.a{fill:#1007ea;}</style></defs><g transform="translate(22.008) rotate(90)"><path class="a" d="M22.784,20.56a.922.922,0,0,1-.658-.273.934.934,0,0,1,0-1.317l2.135-2.135H10.681a.931.931,0,1,1,0-1.862H24.26l-2.135-2.135a.93.93,0,0,1,1.317-1.315l3.724,3.724a.919.919,0,0,1,.2.3c0,.01.009.021.012.032a.905.905,0,0,1,.058.322.952.952,0,0,1-.057.32l-.007.021a.929.929,0,0,1-.207.318l-3.724,3.724A.931.931,0,0,1,22.784,20.56Z" transform="translate(2.353 1.448)"/><path class="a" d="M4.655,14.56A.922.922,0,0,1,4,14.287L.273,10.563a.919.919,0,0,1-.2-.3.18.18,0,0,1-.012-.031A.943.943,0,0,1,0,9.905a.913.913,0,0,1,.06-.324c0-.009.006-.017.009-.026a.918.918,0,0,1,.206-.309L4,5.523A.93.93,0,1,1,5.313,6.839L3.178,8.974h13.58a.931.931,0,1,1,0,1.862H3.179l2.135,2.135a.931.931,0,0,1-.659,1.589Z"/></g></svg>