<svg xmlns="http://www.w3.org/2000/svg" xmlns:xlink="http://www.w3.org/1999/xlink" width="87" height="87" viewBox="0 0 87 87"><defs><style>.a,.b,.f{fill:#fff;}.a{stroke:#707070;}.c{clip-path:url(#c);}.d{fill:#006;}.e{fill:#c00;}.f{fill-rule:evenodd;}.g{filter:url(#a);}</style><filter id="a" x="0" y="0" width="87" height="87" filterUnits="userSpaceOnUse"><feOffset dy="3" input="SourceAlpha"/><feGaussianBlur stdDeviation="10" result="b"/><feFlood flood-opacity="0.051"/><feComposite operator="in" in2="b"/><feComposite in="SourceGraphic"/></filter><clipPath id="c"><ellipse class="a" cx="13.5" cy="13.5" rx="13.5" ry="13.5"/></clipPath></defs><g transform="translate(-239 -63)"><g class="g" transform="matrix(1, 0, 0, 1, 239, 63)"><ellipse class="b" cx="13.5" cy="13.5" rx="13.5" ry="13.5" transform="translate(30 27)"/></g><g class="c" transform="translate(269 90)"><g transform="translate(-2.865)"><rect class="d" width="36" height="27"/><path class="b" d="M0,0V1.572l17.271,12.49h2.174V12.49L2.174,0H0ZM19.445,0V1.572L2.174,14.062H0V12.49L17.271,0Z"/><path class="b" d="M8.1,0V14.062h3.241V0ZM0,4.687V9.375H19.445V4.687Z"/><path class="e" d="M0,5.625V8.437H19.445V5.625ZM8.75,0V14.062h1.944V0Z"/><path class="e" d="M0,14.062,6.482,9.375H7.931L1.449,14.062ZM0,0,6.482,4.687H5.032L0,1.048V0ZM11.514,4.687,18,0h1.449L12.963,4.687Zm7.931,9.375L12.963,9.375h1.449l5.032,3.639Z"/><g transform="translate(0.076 -2.123)"><path class="f" d="M16.86,20.438l-2.455.214.338,2.442-1.7-1.787-1.7,1.787.338-2.442L9.23,20.438l2.119-1.258L9.985,17.127l2.3.873.755-2.346h0L13.8,18l2.3-.873L14.741,19.18Z" transform="translate(-0.075 3.764)"/><g transform="translate(-7.675 6.786)"><path class="f" d="M34.966,19.667l-.593-.892,1,.379.328-1.02h0l.328,1.02,1-.379-.593.892.921.547-1.067.093.147,1.06-.738-.776-.738.776.147-1.06-1.067-.093Z"/><path class="f" d="M34.966,3.8l-.593-.892,1,.379L35.7,2.267h0l.328,1.019,1-.379-.593.892.921.547-1.067.093.147,1.06L35.7,4.723l-.738.776.147-1.06-1.067-.093Z"/><path class="f" d="M29.016,10.245l-.593-.892,1,.379.328-1.02h0l.328,1.02,1-.379-.593.892.921.547-1.067.093.147,1.06-.738-.776-.738.776.147-1.06-1.067-.093Z"/><path class="f" d="M40.257,8.658l-.594-.892,1,.379.325-1.02h0l.329,1.02,1-.379-.591.892.92.547L41.582,9.3l.147,1.06-.738-.776-.738.776L40.4,9.3,39.335,9.2Z"/><path class="f" d="M38.083,13.333l-.583.361.164-.666-.524-.442.684-.05.259-.635h0l.259.635.684.05-.524.442.164.666Z"/></g></g></g></g></g></svg>