<svg xmlns="http://www.w3.org/2000/svg" xmlns:xlink="http://www.w3.org/1999/xlink" width="29" height="29" viewBox="0 0 29 29">
  <defs>
    <clipPath id="clip-path">
      <ellipse id="Ellipse_3" data-name="Ellipse 3" cx="13.5" cy="13.5" rx="13.5" ry="13.5" fill="#fff" stroke="#707070" stroke-width="1"/>
    </clipPath>
    <clipPath id="clip-path-2">
      <rect id="rect3089" width="36" height="27" transform="translate(-4.169)" fill="rgba(0,0,0,0.67)"/>
    </clipPath>
  </defs>
  <g id="CHF" transform="translate(-268 -149)">
    <circle id="Ellipse_44" data-name="Ellipse 44" cx="14.5" cy="14.5" r="14.5" transform="translate(268 149)" fill="#e0e0e0"/>
    <g id="Mask_Group_1" data-name="Mask Group 1" transform="translate(269 150)" clip-path="url(#clip-path)">
      <g id="can" transform="translate(-0.696)" clip-path="url(#clip-path-2)">
        <g id="g3531" transform="translate(4.207)">
          <rect id="mat" width="19.104" height="27" transform="translate(0.072)" fill="#fff"/>
          <rect id="left" width="9.552" height="27" transform="translate(-9.481)" fill="#bf0a30"/>
          <rect id="right" width="9.552" height="27" transform="translate(19.176)" fill="#bf0a30"/>
        </g>
        <path id="leaf" d="M7.135,13.047l-.742.254L9.845,16.33c.261.779-.091,1.008-.315,1.416l3.747-.476-.1,3.771.776-.022-.169-3.74,3.751.445a1.727,1.727,0,0,1-.224-1.534l3.45-2.87-.6-.219c-.494-.381.213-1.834.32-2.752,0,0-2.014.693-2.146.33l-.513-.985-1.832,2.013c-.2.048-.285-.032-.332-.2L16.5,7.3l-1.34.754a.227.227,0,0,1-.3-.124L13.574,5.343,12.245,8.03a.2.2,0,0,1-.284.042l-1.276-.716.766,4.174a.242.242,0,0,1-.379.123L9.321,9.662c-.229.367-.384.967-.687,1.1a6.985,6.985,0,0,1-2-.4c.232.838.958,2.231.5,2.687Z" fill="#bf0a30"/>
      </g>
      <g id="che" transform="translate(-4.865)">
        <rect id="rect171" width="36" height="27" fill="#fa000b"/>
        <rect id="rect554" width="0.043" transform="translate(18.451 9.967)" fill="gray"/>
        <g id="g566" transform="translate(-2.25 0)">
          <rect id="rect557" width="16.875" height="5.062" transform="translate(11.812 10.969)" fill="#fff"/>
          <rect id="rect565" width="5.062" height="16.875" transform="translate(17.719 5.062)" fill="#fff"/>
        </g>
      </g>
    </g>
  </g>
</svg>
