<svg xmlns="http://www.w3.org/2000/svg" xmlns:xlink="http://www.w3.org/1999/xlink" width="87" height="87" viewBox="0 0 87 87"><defs><style>.a,.c{fill:#fff;}.a{stroke:#707070;}.b{fill:rgba(0,0,0,0.67);}.d{clip-path:url(#c);}.e{clip-path:url(#d);}.f,.h{fill:rgba(253,253,253,1);}.g{fill:rgba(86,81,169,1);}.h{fill-rule:evenodd;}.i{fill:rgba(237,40,0,1);}.j{filter:url(#a);}</style><filter id="a" x="0" y="0" width="87" height="87" filterUnits="userSpaceOnUse"><feOffset dy="3" input="SourceAlpha"/><feGaussianBlur stdDeviation="10" result="b"/><feFlood flood-opacity="0.051"/><feComposite operator="in" in2="b"/><feComposite in="SourceGraphic"/></filter><clipPath id="c"><ellipse class="a" cx="13.5" cy="13.5" rx="13.5" ry="13.5"/></clipPath><clipPath id="d"><rect class="b" width="36" height="27"/></clipPath></defs><g transform="translate(-397 -123)"><g class="j" transform="matrix(1, 0, 0, 1, 397, 123)"><ellipse class="c" cx="13.5" cy="13.5" rx="13.5" ry="13.5" transform="translate(30 27)"/></g><g class="d" transform="translate(427 150)"><g class="e" transform="translate(0.135)"><rect class="f" width="27.001" height="13.5" transform="translate(13.499 0)"/><rect class="g" width="13.5" height="13.5"/><path class="h" d="M8.85,10.11,6.759,8.542,4.678,10.125l.774-2.573L3.375,5.963l2.57-.022.8-2.566.814,2.56,2.57,0-2.066,1.6L8.85,10.11Z"/><rect class="i" width="40.5" height="13.5" transform="translate(0 13.5)"/></g></g></g></svg>