<svg xmlns="http://www.w3.org/2000/svg" xmlns:xlink="http://www.w3.org/1999/xlink" width="29" height="29" viewBox="0 0 29 29">
  <defs>
    <clipPath id="clip-path">
      <ellipse id="Ellipse_5" data-name="Ellipse 5" cx="13.5" cy="13.5" rx="13.5" ry="13.5" fill="#fff" stroke="#707070" stroke-width="1"/>
    </clipPath>
    <clipPath id="clip-path-2">
      <rect id="rect8675" width="36" height="27" transform="translate(-4.5)" fill="rgba(0,0,0,0.67)"/>
    </clipPath>
  </defs>
  <g id="GBP" transform="translate(-268 -269)">
    <circle id="Ellipse_46" data-name="Ellipse 46" cx="14.5" cy="14.5" r="14.5" transform="translate(268 269)" fill="#e0e0e0"/>
    <g id="Mask_Group_3" data-name="Mask Group 3" transform="translate(269 270)" clip-path="url(#clip-path)">
      <g id="gbr" transform="translate(-0.365)" clip-path="url(#clip-path-2)">
        <g id="g578" transform="translate(-13.5)">
          <rect id="rect124" width="54.001" height="27.001" fill="#006"/>
          <g id="g584">
            <path id="path146" d="M0,0V3.019L47.964,27H54V23.982L6.037,0H0ZM54,0V3.019L6.037,27H0V23.982L47.964,0Z" fill="#fff"/>
            <path id="path136" d="M22.5,0V27h9V0ZM0,9v9H54V9Z" fill="#fff"/>
            <path id="path141" d="M0,10.8v5.4H54V10.8ZM24.3,0V27h5.4V0Z" fill="#c00"/>
            <path id="path150" d="M0,27l18-9h4.025l-18,9ZM0,0,18,9H13.975L0,2.013V0ZM31.976,9l18-9H54L36,9ZM54,27,36,18h4.025L54,24.988Z" fill="#c00"/>
          </g>
        </g>
      </g>
    </g>
  </g>
</svg>
