<svg xmlns="http://www.w3.org/2000/svg" xmlns:xlink="http://www.w3.org/1999/xlink" width="87" height="87" viewBox="0 0 87 87"><defs><style>.a,.c,.h{fill:#fff;}.a{stroke:#707070;}.b{fill:rgba(0,0,0,0.67);}.d{clip-path:url(#c);}.e{clip-path:url(#d);}.f,.g{fill:#00c;}.g,.h{fill-rule:evenodd;}.i{filter:url(#a);}</style><filter id="a" x="0" y="0" width="87" height="87" filterUnits="userSpaceOnUse"><feOffset dy="3" input="SourceAlpha"/><feGaussianBlur stdDeviation="10" result="b"/><feFlood flood-opacity="0.051"/><feComposite operator="in" in2="b"/><feComposite in="SourceGraphic"/></filter><clipPath id="c"><ellipse class="a" cx="13.5" cy="13.5" rx="13.5" ry="13.5"/></clipPath><clipPath id="d"><rect class="b" width="44.544" height="33.408" transform="translate(-4.621)"/></clipPath></defs><g transform="translate(-397 -303)"><g class="i" transform="matrix(1, 0, 0, 1, 397, 303)"><ellipse class="c" cx="13.5" cy="13.5" rx="13.5" ry="13.5" transform="translate(30 27)"/></g><g class="d" transform="translate(427 330)"><g class="e" transform="translate(-3.677 -3.237)"><rect class="c" width="47.725" height="33.408" transform="translate(41.514 33.408) rotate(180)"/><rect class="f" width="47.725" height="4.387" transform="translate(41.514 7.519) rotate(180)"/><rect class="f" width="47.725" height="4.387" transform="translate(41.514 30.385) rotate(180)"/><path class="g" d="M7.195,10.061l7.185,12.5,7.34-12.446L7.195,10.061Z" transform="translate(2.804 2.388)"/><path class="h" d="M11.9,16.76l1.367,2.317,1.4-2.307L11.9,16.76Z" transform="translate(3.922 3.977)"/><path class="g" d="M7.173,19.3,14.359,6.8,21.7,19.251Z" transform="translate(2.799 1.615)"/><path class="h" d="M11.9,10.549l1.367-2.317,1.4,2.307-2.763.009Z" transform="translate(3.922 1.954)"/><path class="h" d="M9.867,14.3,8.455,16.645l2.669-.008L9.867,14.3Z" transform="translate(3.103 3.393)"/><path class="h" d="M8.474,10.79l2.69.019L9.87,13.175l-1.4-2.385Z" transform="translate(3.108 2.561)"/><path class="h" d="M16.711,14.318,18.07,16.64,15.349,16.6l1.362-2.287Z" transform="translate(4.739 3.398)"/><path class="h" d="M18.044,10.79l-2.69.019,1.294,2.366,1.4-2.385Z" transform="translate(4.74 2.561)"/><path class="h" d="M11.858,10.793l-1.853,3.361,1.879,3.282,3.441.079,2.091-3.361-1.932-3.388-3.626.026Z" transform="translate(3.471 2.555)"/></g></g></g></svg>