<svg xmlns="http://www.w3.org/2000/svg" xmlns:xlink="http://www.w3.org/1999/xlink" width="29" height="29" viewBox="0 0 29 29">
  <defs>
    <clipPath id="clip-path">
      <ellipse id="Ellipse_26" data-name="Ellipse 26" cx="13.5" cy="13.5" rx="13.5" ry="13.5" fill="#fff" stroke="#707070" stroke-width="1"/>
    </clipPath>
  </defs>
  <g id="MXN" transform="translate(-110 -449)">
    <circle id="Ellipse_38" data-name="Ellipse 38" cx="14.5" cy="14.5" r="14.5" transform="translate(110 449)" fill="#e0e0e0"/>
    <g id="Mask_Group_22" data-name="Mask Group 22" transform="translate(111 450)" clip-path="url(#clip-path)">
      <g id="mex" transform="translate(-4.864)">
        <g id="g6001" transform="translate(0 -1.8)">
          <rect id="rect880" width="35.999" height="27" transform="translate(0 1.8)" fill="#fff"/>
          <rect id="rect1200" width="12.054" height="27" transform="translate(0 1.8)" fill="#0b7226"/>
          <rect id="rect1201" width="11.985" height="27" transform="translate(24.014 1.8)" fill="#bc0000"/>
        </g>
        <g id="g5008" transform="translate(4.433 -0.168)">
          <path id="path723" d="M7.556,14.72c0-.006.2-.34.172-.286.088.067.248,0,.132-.148.028-.061.064-.108.092-.169.064-.12-.073-.172-.127-.089-.033.063-.065.1-.1.165-.173-.082-.184.111-.1.145l-.136.189.066.193Z" fill="#9c4314" fill-rule="evenodd"/>
          <path id="path724" d="M7.533,14.646c-.006,0-.342-.19-.288-.168.066-.089,0-.248-.15-.13-.062-.027-.109-.063-.171-.09-.121-.062-.17.076-.087.129.064.032.1.064.166.1-.08.174.113.182.146.1.052.036.256.154.308.19.064-.023.011-.1.075-.125Z" fill="#9c4314" fill-rule="evenodd"/>
          <path id="path721" d="M8.751,16.687c0-.007.01-.392.016-.333.109.017.22-.115.046-.193,0-.067,0-.125,0-.193,0-.136-.146-.116-.154-.017,0,.072-.009.12-.008.192-.191.01-.109.185-.02.175-.008.063-.022.168-.029.231l.15.138Z" fill="#9c4314" fill-rule="evenodd"/>
          <path id="path722" d="M8.7,16.632c-.007,0-.392,0-.334-.011.016-.11-.118-.218-.193-.043-.067.005-.126,0-.193,0-.136,0-.114.148-.015.154.072,0,.12.007.192.005.013.191.187.106.176.018l.324.034c.045-.051,0-.109.044-.16Z" fill="#9c4314" fill-rule="evenodd"/>
          <path id="path691" d="M12.675,17.95s.132.178.191.185c.185.013,1.649,0,1.649,0s.053-.031.053-.033c.048-.062.044-.1.092-.158.077-.077.187-.1.264-.178.33-.079.627-.158.956-.211-.026-.2-.224-.154-.33-.231a.064.064,0,0,1-.007-.092l.732-.336v-.079c-.519.062-1,.163-1.557.185l-1.906.785-.138.165Z" fill="#42b2f3" stroke="#000" stroke-width="0.056" fill-rule="evenodd"/>
          <path id="path610" d="M7.4,14.448H7.4c.033,0,.007,0,0-.079" fill="none" stroke="#000" stroke-width="0.03"/>
          <path id="path611" d="M7.433,14.536a.917.917,0,0,0-.632-.746c-.07-.016-.12-.216,0-.206.066.026,0-.013.067.014a.1.1,0,0,0,.125-.139c0-.013-.125-.234-.125-.241-.023-.025.02-.167.132-.092.053.035.106.116.182.132.028,0,.046-.092.042-.159,0-.007.007-.228.007-.228-.027-.133.092-.2.186-.1.007.033,0,.033.006.066.022.044.048.051.079.007l.125-.125c.074-.028.121-.055.125.1,0,0-.1.129-.151.175-.025.037-.08.088.015.116l.136.019c.089.037.1.134.033.143a.75.75,0,0,1-.19.148c-.037.03-.068.066-.035.107.07.027.048,0,.167,0,.1-.023.091.223-.091.207-.054.013-.126.008-.156.095a1.651,1.651,0,0,0-.016.231,2.785,2.785,0,0,0,.012.381c.013.112-.026.073-.04.1Z" fill="#008d00" stroke="#286726" stroke-width="0.103" fill-rule="evenodd"/>
          <path id="path612" d="M8.513,16.547a.987.987,0,0,0-.725-.338c-.071.009-.185-.163-.073-.193.071,0,.016-.008.087,0,.06-.042-.049-.172-.1-.127,0-.012-.131.027-.184.016-.166-.016-.238-.2-.117-.272a.746.746,0,0,0,.295.021c.076-.023.041-.092-.033-.1-.1-.016-.528-.119-.491-.17-.07-.117,0-.207.122-.145.1.061.113.027.089-.019-.03-.087-.059-.066-.063-.142-.007-.049.008-.093.08-.062.03-.026.08.157.269.088.035.029.065-.2.2-.163.1.03.031.132.05.276.016.095.11.073.123.024-.021-.218.192-.222.217-.148a.761.761,0,0,1,.013.338c-.014.07,0,.209.042.237.075,0,.027-.015.078-.093.087-.056.222.147.064.248-.167.036.095.672.117.707-.024.026-.053-.006-.056.023Z" fill="#008d00" stroke="#286726" stroke-width="0.103" fill-rule="evenodd"/>
          <path id="path702" d="M10.562,18.247c0-.007-.052-.388-.037-.332.111,0,.2-.148.015-.2-.015-.066-.015-.125-.03-.191-.022-.134-.162-.092-.155.007.012.071.01.12.022.191-.187.04-.079.2.007.176,0,.064,0,.169.007.233l.17.113Z" fill="#9c4314" fill-rule="evenodd"/>
          <path id="path720" d="M10.555,18.2c-.007,0-.387.057-.331.042,0-.111-.151-.2-.2-.012-.066.016-.124.017-.19.032-.134.024-.089.164.009.155.07-.013.12-.012.19-.025.043.186.2.076.176-.01l.325-.017c.037-.057-.019-.108.018-.165Z" fill="#9c4314" fill-rule="evenodd"/>
          <path id="path637" d="M10.425,16.118c.931.549,1.17.47,1.131.226.045,0,.054.039.186-.059a.544.544,0,0,0,.613.524c.216.014.188.3.188.3.013.292-.085.41-.072.7,0,0-.007-.035-.01-.035-.265-.063-.788-.071-.984-.113.9-.612-.69-.629-.832-.65-.107-.014-.031-.118.032-.146.494-.1-.464-.565-.439-.621-.059-.035,0-.063,0-.063.066-.043.117-.023.183-.065Z" fill="#33b1e9" stroke="#000" stroke-width="0.058" fill-rule="evenodd"/>
          <path id="path643" d="M12.75,16.583a.291.291,0,0,0-.292.292,2.573,2.573,0,0,0,0,.835A.292.292,0,0,0,12.75,18a10.559,10.559,0,0,0,1.934,0,.292.292,0,0,0,.292-.292,1.781,1.781,0,0,0,0-.835.291.291,0,0,0-.292-.292,13.8,13.8,0,0,0-1.934,0Z" fill="#983d25" stroke="#000" stroke-width="0.083" fill-rule="evenodd"/>
          <path id="path1138" d="M10.573,8.637l-.441.382c-.181.08-.378.18-.236.607-.083.548.358.634.745.52.064-.142.085-.24.149-.382a3.506,3.506,0,0,0-.417.023c-.106-.017-.114-.1-.075-.15.167-.083.318-.162.485-.244,0-.025-.008-.007-.012-.032a4.066,4.066,0,0,1-.382.154c-.116.041-.148-.108-.1-.173,0,0,.3-.429.3-.433a.519.519,0,0,0-.012-.272Z" fill="#268728" stroke="#000003" stroke-linecap="round" stroke-linejoin="round" stroke-width="0.056" fill-rule="evenodd"/>
          <path id="path614" d="M6.142,10.544a.231.231,0,1,1-.231-.231A.231.231,0,0,1,6.142,10.544Z" transform="translate(5.664 5.6)" fill="#fff" stroke="#000" stroke-width="0.056" fill-rule="evenodd"/>
          <path id="path615" d="M5.791,9.942a.218.218,0,1,1-.218-.218A.218.218,0,0,1,5.791,9.942Z" transform="translate(4.918 7.075)" fill="#fff" stroke="#000" stroke-width="0.056" fill-rule="evenodd"/>
          <path id="path616" d="M5.791,9.942a.218.218,0,1,1-.218-.218A.218.218,0,0,1,5.791,9.942Z" transform="translate(10.334 7.563)" fill="#fff" stroke="#000" stroke-width="0.055" fill-rule="evenodd"/>
          <path id="path1143" d="M10.593,8.929c.005.131.009.3.009.346a.9.9,0,0,0-.064-.269.374.374,0,0,1,.056-.077Z" fill="#ba4600" stroke="#000" stroke-linejoin="round" stroke-width="0.03" fill-rule="evenodd"/>
          <path id="path617" d="M5.791,9.942a.218.218,0,1,1-.218-.218A.218.218,0,0,1,5.791,9.942Z" transform="translate(6.939 7.827)" fill="#973100" stroke="#000" stroke-width="0.08" fill-rule="evenodd"/>
          <path id="path618" d="M5.791,9.942a.218.218,0,1,1-.218-.218A.218.218,0,0,1,5.791,9.942Z" transform="translate(9.238 7.827)" fill="#973100" stroke="#000" stroke-width="0.08" fill-rule="evenodd"/>
          <path id="path619" d="M5.791,9.942a.218.218,0,1,1-.218-.218A.218.218,0,0,1,5.791,9.942Z" transform="translate(9.238 6.771)" fill="#973100" stroke="#000" stroke-width="0.08" fill-rule="evenodd"/>
          <path id="path620" d="M5.791,9.942a.218.218,0,1,1-.218-.218A.218.218,0,0,1,5.791,9.942Z" transform="translate(6.952 6.771)" fill="#973100" stroke="#000" stroke-width="0.08" fill-rule="evenodd"/>
          <path id="path621" d="M10.594,18.365c-.013-.016-.111-.294-.664-.306-.078,0-.127.018-.285.007-.091.008-.056-.1-.019-.141.06-.042-.214-.022-.308-.01a1.3,1.3,0,0,1-.212-.033c-.166-.016-.263-.132-.142-.2.051-.05.257.007.334,0a.086.086,0,0,0-.008-.162c-.1-.016-.563-.05-.525-.1-.07-.117-.05-.177.132-.154.1.061.1-.017.074-.063-.03-.087-.2-.1-.2-.176-.027-.182.092-.206.164-.175.03-.026-.136-.168.052-.237.047-.015.143,0,.176.169.1.03.03-.113.163-.171.114-.048-.008.511.128.506.117.048.094-.305.192-.237.212-.054.109.678.2.633.153.134.169-.12.214-.093.075,0,.125,0,.083.173a.233.233,0,0,0,.039.214c.143.316.358.313.43.458.023.215-.016.076-.019.106Z" fill="#008d00" stroke="#286726" stroke-width="0.103" fill-rule="evenodd"/>
          <path id="path622" d="M13.244,18.851c-.265.217-.539.358-.64.584a.905.905,0,0,1,.257-.025c.1-.218.4-.334.585-.511l-.2-.049Z" fill="#009400" stroke="#000" stroke-width="0.056" fill-rule="evenodd"/>
          <path id="path629" d="M13.951,18.874c.239.221.536.347.64.581a.609.609,0,0,0-.243-.014c-.1-.218-.418-.345-.6-.521.067-.016.134-.029.2-.045Z" fill="#009400" stroke="#000" stroke-width="0.056" fill-rule="evenodd"/>
          <path id="path630" d="M13.771,18.919a1.867,1.867,0,0,1,.584.522.728.728,0,0,0-.25.07,4.173,4.173,0,0,0-.563-.556c.067-.016.162-.019.23-.035Z" fill="#fff" stroke="#000" stroke-width="0.056" fill-rule="evenodd"/>
          <path id="path827" d="M11.034,9.5a.245.245,0,0,0-.177.221.414.414,0,0,0,.28.767c-.293-.44,0-.688.326-.534.1.073.168.224.177.215.062-.135.308-.252.308-.252s.2.027.234-.1a4.611,4.611,0,0,1,.2-.421l-.634-.131-.438-.009-.233.1c-.031.05-.016.093-.047.143Z" fill="#ffba00" stroke="rgba(0,0,0,0.77)" stroke-width="0.056" fill-rule="evenodd"/>
          <path id="path631" d="M13.534,18.933a2.034,2.034,0,0,1,.6.559c-.079.023-.105.152-.149.178a2.97,2.97,0,0,0-.613-.758c.067-.016.093.037.161.021Z" fill="#d40000" stroke="#000" stroke-width="0.056" fill-rule="evenodd"/>
          <path id="path627" d="M13.425,18.9a1.773,1.773,0,0,0-.57.507.63.63,0,0,1,.236.084,4.173,4.173,0,0,1,.563-.556c-.067-.016-.162-.019-.23-.035Z" fill="#fff" stroke="#000" stroke-width="0.056" fill-rule="evenodd"/>
          <path id="path628" d="M13.661,18.913a2.016,2.016,0,0,0-.59.57c.144.1.109.109.138.167A3.31,3.31,0,0,1,13.9,18.9c-.067-.016-.169.03-.237.014Z" fill="#d40000" stroke="#000" stroke-width="0.056" fill-rule="evenodd"/>
          <path id="path635" d="M10.41,16.225c-.035.126-.23.173-.436.106s-.345-.224-.31-.35.23-.173.436-.106S10.444,16.1,10.41,16.225Z" fill="#973000" stroke="#000" stroke-width="0.118" fill-rule="evenodd"/>
          <path id="path761" d="M13.19,18.548c-.209.15-.5.351-.713.5-.043.037.145.075.214.041.221-.151.337-.251.557-.4l.126-.07c-.09-.006-.094-.063-.184-.07Z" fill="#008d2b" stroke="#005e00" stroke-width="0.056" fill-rule="evenodd"/>
          <path id="path636" d="M11.682,17.587c.046.1-.058.243-.233.311s-.354.041-.4-.063.058-.243.233-.311S11.636,17.483,11.682,17.587Z" fill="#973000" stroke="#000" stroke-width="0.134" fill-rule="evenodd"/>
          <path id="path756" d="M15.321,16.235c.011-.573.514-.071.711-.308.464-.547.5-.588.913-.529,1.1.432-.048,1.429-1.17.975-.123-.068-.331-.071-.454-.139Z" fill="#008d00" stroke="#000" stroke-width="0.058" fill-rule="evenodd"/>
          <g id="g660" transform="translate(5.703 5.669)">
            <path id="path657" d="M13.759,8.677a.127.127,0,0,1-.167.076.143.143,0,0,1-.114-.156.127.127,0,0,1,.167-.076A.143.143,0,0,1,13.759,8.677Z" fill="#6d390b" fill-rule="evenodd"/>
            <rect id="rect659" width="0.354" height="0.107" transform="matrix(0.755, 0.655, -0.655, 0.755, 13.722, 8.648)" fill="#6d390b"/>
          </g>
          <path id="path1192" d="M17.8,15.165l.058.082.2-.176-.058-.082-.2.176Z" fill="#6d390b" fill-rule="evenodd"/>
          <path id="path638" d="M12.75,16.576c.341.1.591,1.343.925,1.454" fill="none" stroke="#000" stroke-linecap="round" stroke-width="0.083"/>
          <path id="path639" d="M13.077,16.569c.341.1.584,1.343.918,1.454" fill="none" stroke="#000" stroke-linecap="round" stroke-width="0.083"/>
          <path id="path640" d="M13.4,16.555c.341.1.591,1.349.925,1.461" fill="none" stroke="#000" stroke-linecap="round" stroke-width="0.083"/>
          <path id="path645" d="M16.663,16.724c.046.1-.058.243-.233.311s-.354.041-.4-.063.058-.243.233-.311S16.616,16.621,16.663,16.724Z" fill="#973000" stroke="#000" stroke-width="0.118" fill-rule="evenodd"/>
          <path id="path650" d="M17.964,15.45a.15.15,0,0,1-.129.182c-.116.03-.225-.015-.243-.081s.05-.161.167-.191.188.025.2.091Z" fill="#dc0000" stroke="#000" stroke-width="0.053" fill-rule="evenodd"/>
          <path id="path719" d="M12.846,18.618a1,1,0,0,0-.737.464c-.031.065-.29.115-.255,0,.04-.058.055-.063.1-.122,0-.073-.171-.052-.159.014a.22.22,0,0,0-.132.052c-.1.131-.278.125-.272-.015a.38.38,0,0,0,.13-.165c.021-.077-.128-.1-.177-.047-.1.054-.167.131-.289.19s-.267-.038-.148-.108c.106-.052.018-.173-.034-.177-.09-.022-.457.04-.523,0-.052-.007-.146-.143-.036-.167s.268.037.311-.159c.043-.33.567.169.482.031-.192-.284.135-.351.233-.157.04.087.24.217.3.192.109.012-.2-.275.045-.322a.312.312,0,0,1,.226.112c.051.05.062.254.255.27.042-.062,0-.03-.036-.116,0-.1.171-.095.244.08.072.134.454.043.8.051.112-.018.292.08-.325.092Z" fill="#008d00" stroke="#286026" stroke-width="0.103" fill-rule="evenodd"/>
          <path id="path648" d="M17.577,15.437a.247.247,0,0,1-.106.352c-.166.108-.361.095-.422,0s-.006-.279.16-.387a.251.251,0,0,1,.368.034Z" fill="#dc0000" stroke="#000" stroke-width="0.056" fill-rule="evenodd"/>
          <path id="path651" d="M17.7,15.046a.15.15,0,0,1,.03.221c-.065.1-.175.143-.233.106a.192.192,0,0,1-.008-.253.152.152,0,0,1,.212-.073Z" fill="#dc0000" stroke="#000" stroke-width="0.053" fill-rule="evenodd"/>
          <path id="path649" d="M17.872,15.218a.15.15,0,0,1-.064.213c-.1.066-.219.057-.256,0s0-.169.1-.234a.152.152,0,0,1,.223.021Z" fill="#dc0000" stroke="#000" stroke-width="0.053" fill-rule="evenodd"/>
          <path id="path653" d="M18.246,14.878a.113.113,0,0,1-.048.161c-.076.049-.164.043-.192,0s0-.127.073-.176a.114.114,0,0,1,.168.016Z" fill="#d90000" stroke="#000" stroke-width="0.04" fill-rule="evenodd"/>
          <path id="path633" d="M13.46,18.355c-.148.017-.233.027-.261.134a.745.745,0,0,0,.009.25c0,.094.118.156.256.183H13.7c.1,0,.285-.1.285-.192a.862.862,0,0,0,.014-.2c0-.158-.111-.168-.251-.182l-.29,0Z" fill="#fff" stroke="#000" stroke-width="0.056" fill-rule="evenodd"/>
          <path id="path654" d="M18.728,16.491c-.016-.548-.161-1.341.512-1.613.087-.023.118.026.089.1l-.6,1.515Z" fill="#008f00" stroke="#286326" stroke-width="0.092" fill-rule="evenodd"/>
          <path id="path656" d="M19.6,15.376a.607.607,0,0,1,.52-.275,6.364,6.364,0,0,0-.529.9c-.167.288-.654.492-.946.661.327-.445.628-.838.955-1.283Z" fill="#008c00" stroke="#286326" stroke-width="0.092" fill-rule="evenodd"/>
          <path id="path692" d="M13.473,18.352l-.152.026s-.115.073-.115.073-.023.142-.023.145.026.162.026.162l.069.1.181.063.013-.564Z" fill="#009400" stroke="#000" stroke-width="0.03" fill-rule="evenodd"/>
          <path id="path655" d="M18.639,16.659c.02-.02.385-1.741.994-1.945a.765.765,0,0,1,.012.553,2.943,2.943,0,0,1-1.005,1.391Z" fill="#008d00" stroke="#286326" stroke-width="0.092" fill-rule="evenodd"/>
          <g id="g663" transform="translate(36.205 15.737) rotate(-143.545)">
            <path id="path664" d="M13.759-8.677a.127.127,0,0,0-.167-.076.143.143,0,0,0-.114.156.127.127,0,0,0,.167.076A.143.143,0,0,0,13.759-8.677Z" fill="#6d390b" fill-rule="evenodd"/>
            <rect id="rect665" width="0.354" height="0.107" transform="matrix(0.755, -0.655, 0.655, 0.755, 13.651, -8.729)" fill="#6d390b"/>
          </g>
          <g id="g666">
            <path id="path667" d="M18.5,16.3a.132.132,0,0,1-.2.016.161.161,0,0,1-.058-.2.132.132,0,0,1,.2-.016A.161.161,0,0,1,18.5,16.3Z" fill="#6d390b" fill-rule="evenodd"/>
            <rect id="rect668" width="0.377" height="0.118" transform="matrix(0.489, 0.872, -0.872, 0.489, 18.471, 16.259)" fill="#6d390b"/>
          </g>
          <g id="g669">
            <path id="path670" d="M18.935,16.777a.132.132,0,0,1,.086-.176.161.161,0,0,1,.2.054.132.132,0,0,1-.086.176A.161.161,0,0,1,18.935,16.777Z" fill="#6d390b" fill-rule="evenodd"/>
            <rect id="rect671" width="0.386" height="0.115" transform="matrix(-1, -0.014, 0.014, -1, 18.986, 16.777)" fill="#6d390b"/>
          </g>
          <path id="path682" d="M18.374,17.171c.374-.2.14.082.116.237-.111.384-.214.387-.344.452-.194.177-.815.091-1.1.164.362-.263.969-.591,1.331-.853Z" fill="#008c00" stroke="#286326" stroke-width="0.075" fill-rule="evenodd"/>
          <path id="path673" d="M17.814,17.082a.633.633,0,0,0,.171-.492,4.739,4.739,0,0,1-.62.541,2.627,2.627,0,0,0-.428.907c.3-.328.572-.628.876-.956Z" fill="#008c00" stroke="#286326" stroke-width="0.075" fill-rule="evenodd"/>
          <path id="path675" d="M15.869,18.654a1.012,1.012,0,0,1,.73.188,5.921,5.921,0,0,0-.975.24c-.322.082-1.216-.423-1.536-.495.534-.027,1.235.143,1.782.066Z" fill="#008c00" stroke="#286326" stroke-width="0.092" fill-rule="evenodd"/>
          <path id="path759" d="M14.007,18.6c.209.15.5.351.713.5.043.037-.145.075-.214.041-.221-.151-.337-.251-.557-.4l-.126-.07c.09-.006.094-.063.184-.07Z" fill="#00602b" stroke="#004500" stroke-width="0.056" fill-rule="evenodd"/>
          <path id="path674" d="M16.907,18.025c.025-.009,1.021-1.354,1.64-1.3.037.148-.113.369-.206.481a2.87,2.87,0,0,1-1.434.817Z" fill="#008c00" stroke="#286326" stroke-width="0.088" fill-rule="evenodd"/>
          <g id="g676">
            <path id="path677" d="M16.785,17.828a.132.132,0,0,1-.18-.078.161.161,0,0,1,.045-.207.132.132,0,0,1,.18.078A.161.161,0,0,1,16.785,17.828Z" fill="#6d390b" fill-rule="evenodd"/>
            <rect id="rect678" width="0.38" height="0.117" transform="translate(16.782 17.776) rotate(89.567)" fill="#6d390b"/>
          </g>
          <g id="g679">
            <path id="path680" d="M17.045,18.379a.132.132,0,0,1,.164-.108.161.161,0,0,1,.149.151.132.132,0,0,1-.164.108A.161.161,0,0,1,17.045,18.379Z" fill="#6d390b" fill-rule="evenodd"/>
            <rect id="rect681" width="0.38" height="0.117" transform="matrix(-0.853, -0.522, 0.522, -0.853, 17.089, 18.405)" fill="#6d390b"/>
          </g>
          <path id="path660" d="M8.6,13.5a.129.129,0,0,1,.18-.025c.084.047.119.129.09.173a.168.168,0,0,1-.207.01c-.084-.047-.092-.114-.063-.157Z" fill="#dc0000" stroke="#000" stroke-width="0.042" fill-rule="evenodd"/>
          <path id="path684" d="M15.7,18.475c.411-.109.387-.307.579-.48a1.573,1.573,0,0,0-.99.2c-.3.194-.378.4-.638.548a4.121,4.121,0,0,0,1.049-.265Z" fill="#008c00" stroke="#286326" stroke-width="0.075" fill-rule="evenodd"/>
          <path id="path685" d="M14.357,18.6c1.176.089.989-.389,2.278-.377-.019.151-.265.34-.392.411-.564.3-1.49.438-1.886-.034Z" fill="#008c00" stroke="#286326" stroke-width="0.088" fill-rule="evenodd"/>
          <path id="path693" d="M13.759,18.349l0,.554.152-.059s.063-.1.063-.106S14,18.6,14,18.6s-.013-.158-.013-.158l-.115-.076-.115-.016Z" fill="#d40000" stroke="#000" stroke-width="0.03" fill-rule="evenodd"/>
          <rect id="rect656" width="0.285" height="0.082" transform="translate(8.862 13.205) rotate(-131.414)" fill="#6d390b"/>
          <path id="path663" d="M8.625,13.332a.129.129,0,0,1,.2-.032c.092.06.131.165.1.22a.164.164,0,0,1-.227.012.149.149,0,0,1-.069-.2Z" fill="#dc0000" stroke="#000" stroke-width="0.049" fill-rule="evenodd"/>
          <path id="path658" d="M9.144,13.1c.054,0,.112.05.109.157s-.061.19-.115.188-.111-.084-.108-.192.06-.155.114-.153Z" fill="#dc0000" stroke="#000" stroke-width="0.045" fill-rule="evenodd"/>
          <path id="path661" d="M8.879,13.144a.139.139,0,0,1,.169.118c.029.107-.012.208-.073.224s-.149-.046-.177-.153.021-.173.082-.189Z" fill="#dc0000" stroke="#000" stroke-width="0.049" fill-rule="evenodd"/>
          <path id="path665" d="M10.395,14.859c-.183-.466-.684-1.241-1.194-.867-.566.488.258,1.256.961,1.213l.233-.345Z" fill="#008d00" stroke="#000" stroke-linecap="round" stroke-linejoin="round" stroke-width="0.056" fill-rule="evenodd"/>
          <path id="path659" d="M8.939,13.492a.261.261,0,0,1,.372.1c.117.171.106.374.008.44a.333.333,0,0,1-.409-.16.26.26,0,0,1,.029-.384Z" fill="#dc0000" stroke="#000" stroke-width="0.058" fill-rule="evenodd"/>
          <path id="path662" d="M8.577,12.713a.119.119,0,0,1,.17.047c.053.078.048.171,0,.2a.152.152,0,0,1-.187-.073.119.119,0,0,1,.013-.175Z" fill="#dc0000" stroke="#000" stroke-width="0.042" fill-rule="evenodd"/>
          <path id="path666" d="M11.953,15.414a1.192,1.192,0,0,0-1.5-.595c-.758.532.306,1.328,1.394.935.1-.1.009-.24.106-.341Z" fill="#008d00" stroke="#000" stroke-width="0.058" fill-rule="evenodd"/>
          <path id="path668" d="M14.089,15.656a1.818,1.818,0,0,0-2-.483c-.674.756.315,1.281,1.645.907.1-.1.261-.324.358-.425Z" fill="#008d00" stroke="#000" stroke-width="0.058" fill-rule="evenodd"/>
          <path id="path669" d="M9.291,14.125c.007,0,.139.165.139.165l-.007-.231" fill="none" stroke="#000" stroke-linecap="round" stroke-linejoin="round" stroke-width="0.056"/>
          <path id="path671" d="M9.522,14.448l.139.139" fill="none" stroke="#000" stroke-linecap="round" stroke-linejoin="round" stroke-width="0.056"/>
          <path id="path672" d="M10.01,14.355l.013.158.086-.007" fill="none" stroke="#000" stroke-linecap="round" stroke-linejoin="round" stroke-width="0.056"/>
          <path id="path676" d="M10.01,14.883c-.033-.02-.145-.112-.145-.112" fill="none" stroke="#000" stroke-linecap="round" stroke-linejoin="round" stroke-width="0.056"/>
          <path id="path678" d="M9.687,14.9,9.5,14.837" fill="none" stroke="#000" stroke-linecap="round" stroke-linejoin="round" stroke-width="0.056"/>
          <path id="path679" d="M9.337,14.547l-.178-.059" fill="none" stroke="#000" stroke-width="0.056"/>
          <path id="path681" d="M9,14.441H8.85" fill="none" stroke="#000" stroke-linecap="round" stroke-linejoin="round" stroke-width="0.056"/>
          <path id="path683" d="M9.713,13.94v-.2" fill="none" stroke="#000" stroke-linecap="round" stroke-linejoin="round" stroke-width="0.03"/>
          <path id="path686" d="M9.449,15.009,9.172,15" fill="none" stroke="#000" stroke-linecap="round" stroke-linejoin="round" stroke-width="0.056"/>
          <path id="path687" d="M9.911,15.186l-.2.066" fill="none" stroke="#000" stroke-linecap="round" stroke-linejoin="round" stroke-width="0.056"/>
          <path id="path688" d="M10.208,14.481c.007-.007.165-.086.165-.086" fill="none" stroke="#000" stroke-linecap="round" stroke-linejoin="round" stroke-width="0.056"/>
          <path id="path689" d="M9.76,14.257c0-.007-.053-.218-.053-.218" fill="none" stroke="#000" stroke-linecap="round" stroke-linejoin="round" stroke-width="0.056"/>
          <path id="path694" d="M13.457,18.352c-.148.017-.233.027-.261.134a.745.745,0,0,0,.009.25c.026.137.118.156.256.183H13.7c.1,0,.262-.065.288-.188a.755.755,0,0,0,.011-.2c-.013-.145-.111-.168-.251-.182l-.29,0Z" fill="none" stroke="#000" stroke-width="0.056"/>
          <path id="path695" d="M13.473,18.352l0,.55" fill="none" stroke="#000" stroke-width="0.056"/>
          <path id="path696" d="M13.762,18.352l0,.55" fill="none" stroke="#000" stroke-width="0.056"/>
          <path id="path699" d="M19.713,13.646c.087-.286-.214-.354-.281-.514a1.068,1.068,0,0,0-.065.687c.056.234.264.4.3.593a3.113,3.113,0,0,0,.048-.766Z" fill="#008c00" stroke="#286326" stroke-width="0.05" fill-rule="evenodd"/>
          <path id="path700" d="M20.112,13.38c.006-.157.21-.269.292-.293a3.241,3.241,0,0,0,.016.572c-.018.2-.392.515-.55.688.08-.334.161-.633.241-.967Z" fill="#008c00" stroke="#286326" stroke-width="0.066" fill-rule="evenodd"/>
          <path id="path698" d="M19.682,14.6c.01-.019-.155-1.455.259-1.753.109.064.144.269.152.382a1.692,1.692,0,0,1-.411,1.371Z" fill="#008c00" stroke="#286326" stroke-width="0.071" fill-rule="evenodd"/>
          <path id="path712" d="M11.374,14.566a.277.277,0,0,1,.159.377c-.064.21-.163.345-.319.3-.2-.047-.239-.235-.175-.445s.216-.268.335-.231Z" fill="#dc0000" stroke="#000" stroke-width="0.062" fill-rule="evenodd"/>
          <path id="path717" d="M11.575,14.352a.1.1,0,0,1,.014.145c-.046.063-.121.084-.159.058a.122.122,0,0,1,0-.165.1.1,0,0,1,.144-.038Z" fill="#dc0000" stroke="#000" stroke-width="0.071" fill-rule="evenodd"/>
          <path id="path718" d="M11.263,14.287a.1.1,0,0,1,.116.088c.015.076-.021.146-.066.156s-.105-.037-.12-.113a.1.1,0,0,1,.07-.131Z" fill="#dc0000" stroke="#000" stroke-width="0.071" fill-rule="evenodd"/>
          <path id="path713" d="M11.394,14.454a.1.1,0,0,1,.059.133c-.024.074-.088.118-.133.105a.122.122,0,0,1-.051-.157.1.1,0,0,1,.125-.081Z" fill="#dc0000" stroke="#000" stroke-width="0.071" fill-rule="evenodd"/>
          <path id="path714" d="M11.458,14.189a.072.072,0,0,1,.049.1.108.108,0,0,1-.111.08.089.089,0,0,1-.043-.119.086.086,0,0,1,.1-.061Z" fill="#dc0000" stroke="#000" stroke-width="0.056" fill-rule="evenodd"/>
          <path id="path715" d="M11.651,14.526a.08.08,0,0,1,.01.133.155.155,0,0,1-.176.038.1.1,0,0,1,.007-.15.123.123,0,0,1,.159-.021Z" fill="#dc0000" stroke="#000" stroke-width="0.071" fill-rule="evenodd"/>
          <path id="path716" d="M11.145,14.411c.041,0,.089.019.1.091s-.031.132-.072.137-.091-.042-.1-.114A.094.094,0,0,1,11.145,14.411Z" fill="#dc0000" stroke="#000" stroke-width="0.064" fill-rule="evenodd"/>
          <path id="path701" d="M10.531,18.115v0Z" fill="none" stroke="#000" stroke-width="0.03"/>
          <path id="path750" d="M15.85,15.357a.274.274,0,0,1-.013.488c-.009-.189-.13-.246-.31-.29.095-.053.2-.224.323-.2Z" fill="#fff" stroke="#000" stroke-width="0.056" fill-rule="evenodd"/>
          <path id="path751" d="M13.646,16.508a1.2,1.2,0,0,1,1.666-1.187c.923.67-.013,1.226-1.395,1.262-.123-.068-.148-.008-.272-.076Z" fill="#008d00" stroke="#000" stroke-width="0.058" fill-rule="evenodd"/>
          <path id="path740" d="M13.922,15.1a.275.275,0,0,0-.269.426c.118-.158.268-.146.468-.091-.061-.094-.061-.293-.2-.335Z" fill="#fff" stroke="#000" stroke-width="0.059" fill-rule="evenodd"/>
          <path id="path739" d="M14.076,15.476a.275.275,0,0,0-.017.488c.009-.189.13-.246.31-.29-.095-.053-.166-.224-.293-.2Z" fill="#fff" stroke="#000" stroke-width="0.056" fill-rule="evenodd"/>
          <path id="path738" d="M15.881,15.381a.209.209,0,0,0-.174-.206c-.115-.014-.225.065-.34-.019a3.011,3.011,0,0,1-.357-.347c-.077-.042-.237-.121-.237-.121a1.184,1.184,0,0,1-.3.346.342.342,0,0,1-.218.049c-.128-.06-.269-.091-.342-.026a.616.616,0,0,1,.019.4c.046.026.1-.005.152.007.171,0,.128.188.191.267a.211.211,0,0,0,.3-.184c.048-.075.193-.085.3-.113a.544.544,0,0,1,.355,0,.388.388,0,0,1,.185.191,1.129,1.129,0,0,0,.27-.013c0-.081-.012-.229.2-.231Z" fill="#f6aa00" stroke="#000" stroke-linecap="round" stroke-linejoin="round" stroke-width="0.056" fill-rule="evenodd"/>
          <path id="path741" d="M14.686,14.817l.007.3c.035.108.275.1.3.026l-.007-.336" fill="none" stroke="#000" stroke-width="0.056"/>
          <path id="path742" d="M14.765,15.45c.052-.018.071-.161.071-.161" fill="none" stroke="#000" stroke-linecap="round" stroke-width="0.056"/>
          <path id="path743" d="M14.977,15.411l.013-.119" fill="none" stroke="#000" stroke-linecap="round" stroke-width="0.056"/>
          <path id="path744" d="M15.194,15.411l-.02-.125" fill="none" stroke="#000" stroke-linecap="round" stroke-width="0.056"/>
          <path id="path745" d="M14.62,15.318c-.008,0-.112-.125-.079-.112" fill="none" stroke="#000" stroke-linecap="round" stroke-width="0.056"/>
          <path id="path746" d="M14.429,15.51c.013,0-.172-.192-.139-.179" fill="none" stroke="#000" stroke-linecap="round" stroke-width="0.056"/>
          <path id="path747" d="M14.257,15.154c0-.015-.013-.086.02-.073" fill="none" stroke="#000" stroke-linecap="round" stroke-width="0.056"/>
          <path id="path748" d="M14.671,15.109c-.282.243-.547.141-.585.345" fill="none" stroke="#000" stroke-linecap="round" stroke-width="0.056"/>
          <path id="path749" d="M15.368,15.247c.01-.012.044-.075.008-.075" fill="none" stroke="#000" stroke-linecap="round" stroke-width="0.056"/>
          <path id="path752" d="M10.843,15.367c0-.005.214-.023.214-.023l-.2-.123" fill="none" stroke="#000" stroke-linecap="round" stroke-linejoin="round" stroke-width="0.056"/>
          <path id="path753" d="M12.126,15.577c0-.005.214-.023.214-.023l-.167-.193" fill="none" stroke="#000" stroke-linecap="round" stroke-linejoin="round" stroke-width="0.056"/>
          <path id="path754" d="M12.644,15.613c-.01-.033.221.005.214-.023l-.146-.158" fill="none" stroke="#000" stroke-linecap="round" stroke-linejoin="round" stroke-width="0.056"/>
          <path id="path755" d="M12.367,14.874c.007,0,.139.165.139.165l-.007-.231" fill="none" stroke="#000" stroke-linecap="round" stroke-linejoin="round" stroke-width="0.056"/>
          <path id="path757" d="M16.339,15.975c.005,0,0,.235,0,.235l.151-.164" fill="none" stroke="#000" stroke-linecap="round" stroke-linejoin="round" stroke-width="0.056"/>
          <path id="path758" d="M14.649,15.916s-.025.214-.025.214l.226-.12" fill="none" stroke="#000" stroke-linecap="round" stroke-linejoin="round" stroke-width="0.056"/>
          <path id="path763" d="M10.69,14.844l.139.139" fill="none" stroke="#000" stroke-linecap="round" stroke-linejoin="round" stroke-width="0.056"/>
          <path id="path764" d="M10.438,15.075l.139.139" fill="none" stroke="#000" stroke-linecap="round" stroke-linejoin="round" stroke-width="0.056"/>
          <path id="path765" d="M11.382,15.434l.2-.017" fill="none" stroke="#000" stroke-linecap="round" stroke-linejoin="round" stroke-width="0.056"/>
          <path id="path766" d="M11.072,15.627l.2-.014" fill="none" stroke="#000" stroke-linecap="round" stroke-linejoin="round" stroke-width="0.056"/>
          <path id="path767" d="M12.485,15.183l.139.139" fill="none" stroke="#000" stroke-linecap="round" stroke-linejoin="round" stroke-width="0.056"/>
          <path id="path768" d="M13.061,15.255l.139.139" fill="none" stroke="#000" stroke-linecap="round" stroke-linejoin="round" stroke-width="0.056"/>
          <path id="path769" d="M11.987,15l.139.139" fill="none" stroke="#000" stroke-linecap="round" stroke-linejoin="round" stroke-width="0.056"/>
          <path id="path770" d="M10.531,14.563l.139.139" fill="none" stroke="#000" stroke-linecap="round" stroke-linejoin="round" stroke-width="0.056"/>
          <path id="path771" d="M12.079,16.249l.128-.148" fill="none" stroke="#000" stroke-linecap="round" stroke-linejoin="round" stroke-width="0.056"/>
          <path id="path772" d="M12.728,16.372l.128-.148" fill="none" stroke="#000" stroke-linecap="round" stroke-linejoin="round" stroke-width="0.056"/>
          <path id="path773" d="M10.236,15.614l.2-.017" fill="none" stroke="#000" stroke-linecap="round" stroke-linejoin="round" stroke-width="0.056"/>
          <path id="path774" d="M10.605,15.475a.542.542,0,0,1,.135.006l-.193-.138" fill="none" stroke="#000" stroke-linecap="round" stroke-linejoin="round" stroke-width="0.059"/>
          <path id="path775" d="M10.849,15.888l.2-.017" fill="none" stroke="#000" stroke-linecap="round" stroke-linejoin="round" stroke-width="0.056"/>
          <path id="path776" d="M13.162,15.7l.2-.014" fill="none" stroke="#000" stroke-linecap="round" stroke-linejoin="round" stroke-width="0.056"/>
          <path id="path777" d="M12.831,15.973l.2-.014" fill="none" stroke="#000" stroke-linecap="round" stroke-linejoin="round" stroke-width="0.056"/>
          <path id="path778" d="M13.067,14.968c.007,0,.139.165.139.165L13.2,14.9" fill="none" stroke="#000" stroke-linecap="round" stroke-linejoin="round" stroke-width="0.056"/>
          <path id="path780" d="M14.968,15.558l-.139.139" fill="none" stroke="#000" stroke-linecap="round" stroke-linejoin="round" stroke-width="0.056"/>
          <path id="path781" d="M15.422,15.71l-.139.139" fill="none" stroke="#000" stroke-linecap="round" stroke-linejoin="round" stroke-width="0.056"/>
          <path id="path782" d="M15.22,16.1l-.139.139" fill="none" stroke="#000" stroke-linecap="round" stroke-linejoin="round" stroke-width="0.056"/>
          <path id="path783" d="M16.849,16.135l-.139.139" fill="none" stroke="#000" stroke-linecap="round" stroke-linejoin="round" stroke-width="0.056"/>
          <path id="path784" d="M15.991,16.034l-.139.139" fill="none" stroke="#000" stroke-linecap="round" stroke-linejoin="round" stroke-width="0.056"/>
          <path id="path785" d="M16.834,15.2l-.139.139" fill="none" stroke="#000" stroke-linecap="round" stroke-linejoin="round" stroke-width="0.056"/>
          <path id="path786" d="M17.49,16.141l-.2-.019" fill="none" stroke="#000" stroke-linecap="round" stroke-linejoin="round" stroke-width="0.056"/>
          <path id="path787" d="M15.852,16.575l.009-.2" fill="none" stroke="#000" stroke-linecap="round" stroke-linejoin="round" stroke-width="0.056"/>
          <path id="path788" d="M16.47,15.69l.1-.169" fill="none" stroke="#000" stroke-linecap="round" stroke-linejoin="round" stroke-width="0.056"/>
          <path id="path789" d="M16.78,15.877l.1-.169" fill="none" stroke="#000" stroke-linecap="round" stroke-linejoin="round" stroke-width="0.056"/>
          <path id="path790" d="M17.038,16.414c0,.005-.215,0-.215,0l.151.11" fill="none" stroke="#000" stroke-linecap="round" stroke-linejoin="round" stroke-width="0.056"/>
          <path id="path791" d="M14.108,16.355s-.025.214-.025.214l.226-.12" fill="none" stroke="#000" stroke-linecap="round" stroke-linejoin="round" stroke-width="0.056"/>
          <path id="path792" d="M12.37,15.973c.026-.019.156-.06.149-.088l-.139-.05" fill="none" stroke="#000" stroke-linecap="round" stroke-linejoin="round" stroke-width="0.056"/>
          <path id="path828" d="M18.252,14.654c.092.071.246-.737.222-.99a3.4,3.4,0,0,1,.084-.936,3.5,3.5,0,0,0-.033-1.35c.085-.007.187-.035.2-.138-.391.145-.484-.827-.861-1.386a4.6,4.6,0,0,0-1.3-1.226,1.018,1.018,0,0,1,.164-.273c-.582.292-1.489-.764-2.828-.685-.3.03-.444.048-.521.232-.249.021-.5.078-.5.406a.237.237,0,0,0,.232.224c.219.063.4.014.546.319.011.084.028.232.039.316a1.29,1.29,0,0,0-.3-.29c.028-.041-.017-.07.066-.134a.459.459,0,0,0-.28-.011,1.459,1.459,0,0,0-.7-.134c0-.033-.06-.254-.06-.254-.055.155-.178.147-.2.294-.033-.106-.079-.235-.112-.341-.11.15-.078.312-.117.468a.092.092,0,0,1-.152-.063,1.9,1.9,0,0,1-.026-.281.945.945,0,0,0-.207.444c-.033-.089-.051-.174-.085-.263,0,.311-.264.5-.517.715-.071.132.011.134.017.2l.134.067.24-.017c.039.05.007.053.111.086.279.078.627-.257.9.269-.126.1-.252.352-.212.4.05,0-.1.071.1.006a1.8,1.8,0,0,0-.357.5c-.024.058.086-.008.063.1.03-.079.051-.007.051-.007-.486.525-.016,1.088-.069,1.392.081.13.091,0,.192-.017a3.677,3.677,0,0,0,.48.893.572.572,0,0,0-.316,0,.8.8,0,0,0,.234.4l-.212.067a1.178,1.178,0,0,0-.356.277c-.071.171.337.212.532.241a.274.274,0,0,0-.007.205,1.624,1.624,0,0,0,.662-.078c0-.017.077-.06.077-.06a.169.169,0,0,0,.173.1c.058,0,.148-.231.107-.409.111.134.216.346.328.48.034.035.077.009.105-.014.095.151.225.3.32.451.05.057.039.036.107.041a.172.172,0,0,0,.147-.148.275.275,0,0,1,.05.085c.075.053.128-.075.169-.116.024-.057.116.011.116-.022.033.022.055.12.089.142.051-.019.1-.131.106-.251.051.1.067.1.106.124.033-.028.044-.137.077-.165-.007-.058.4.394.418.394.04.029.271.1.319.018.115.077.426.125.476,0,.255.109.556-.013.543-.135a1.061,1.061,0,0,0,.6.014c.041,0,.154-.114.047-.2-.775-.541-1.927-1.436-2.371-1.651a2.311,2.311,0,0,0-.251-.894c-.024-.082.03-.183.106-.177a.927.927,0,0,0,.57.3c.173.136.235.344.407.534.081.026.178.108.153.028a2.629,2.629,0,0,0-.561-.884,3.966,3.966,0,0,1,.626.465,4.771,4.771,0,0,1,.269.621c.081.051.163.24.151.084a4.019,4.019,0,0,0-.224-.8c.328.262.325.668.424.916.086.126.129.293.164.254a4.119,4.119,0,0,0-.1-.766c-.022-.089-.033-.19-.056-.279.244.141.33.677.444,1.32,0,.1.042.215.036.281.052.065.113.244.11.137a9.418,9.418,0,0,0-.071-1.286,1.2,1.2,0,0,1,.031-.337c.089.435.184.9.273,1.339v.318l.134.134.084-.786s-.1-.919-.1-.936v-.267c0-.094.085-.076.142.031.011.228.01.41.022.638.039.262.066.453.087.786a3.664,3.664,0,0,0,.079.907Z" fill="#9c4314" stroke="rgba(0,0,0,0.77)" stroke-linejoin="round" stroke-width="0.056" fill-rule="evenodd"/>
          <path id="path793" d="M13.922,16.166c-.013-.029-.022-.166-.05-.166l-.081.123" fill="none" stroke="#000" stroke-linecap="round" stroke-linejoin="round" stroke-width="0.056"/>
          <path id="path794" d="M16.366,15.421l-.017.138" fill="none" stroke="#000" stroke-linecap="round" stroke-linejoin="round" stroke-width="0.056"/>
          <path id="path795" d="M15.151,16.439c-.032,0-.165-.025-.173,0l.1.112" fill="none" stroke="#000" stroke-linecap="round" stroke-linejoin="round" stroke-width="0.056"/>
          <path id="path823" d="M13.107,13.347V13.6a.586.586,0,0,1,.007.115.466.466,0,0,0,.029.1.3.3,0,0,0,.029.108.339.339,0,0,0,.029.1.531.531,0,0,0,.022.086.338.338,0,0,0,.036.079c.009.009.013.019.022.022" fill="none" stroke="#000" stroke-width="0.03"/>
          <path id="path825" d="M12.544,14.234a.134.134,0,0,1,.014-.072.742.742,0,0,1,.079-.094.662.662,0,0,0,.1-.086c.036-.023.054-.043.086-.065a.277.277,0,0,1,.065-.043.24.24,0,0,1,.079-.036.29.29,0,0,1,.1-.007c.034,0,.046-.007.079-.007" fill="none" stroke="#000" stroke-width="0.03"/>
          <path id="path829" d="M17.784,11.73a.847.847,0,0,1,.284.574" fill="none" stroke="rgba(0,0,0,0.77)" stroke-linecap="round" stroke-width="0.056"/>
          <path id="path830" d="M17.158,11.838a1.358,1.358,0,0,1,.373.657" fill="none" stroke="rgba(0,0,0,0.77)" stroke-linecap="round" stroke-width="0.056"/>
          <path id="path831" d="M16.767,12.011a1.166,1.166,0,0,1,.212.371" fill="#00c600" stroke="rgba(0,0,0,0.77)" stroke-linecap="round" stroke-width="0.056" fill-rule="evenodd"/>
          <path id="path832" d="M16.1,11.643a2.827,2.827,0,0,1,.44.6" fill="#00c600" stroke="rgba(0,0,0,0.77)" stroke-linecap="round" stroke-width="0.056" fill-rule="evenodd"/>
          <path id="path833" d="M13.377,7.873c.009.642.949.486,1.029,1.089.18.659.1,1.084-.158,1.293-.149.154-.035.393.009.516.244.619.613.719.772,1.253" fill="none" stroke="rgba(0,0,0,0.77)" stroke-width="0.056"/>
          <path id="path834" d="M13.025,8.311c0-.012.022-.034.044-.044a.856.856,0,0,1,.247-.038,1.526,1.526,0,0,1,.241.016" fill="none" stroke="rgba(0,0,0,0.77)" stroke-linecap="round" stroke-width="0.056"/>
          <path id="path835" d="M14.243,14.207l.327.532" fill="none" stroke="rgba(0,0,0,0.77)" stroke-width="0.056"/>
          <path id="path836" d="M15.285,13.416l1.75,1.34" fill="none" stroke="rgba(0,0,0,0.77)" stroke-width="0.056"/>
          <path id="path837" d="M15.238,13.783l1.279,1.123" fill="none" stroke="rgba(0,0,0,0.77)" stroke-width="0.056"/>
          <path id="path838" d="M12.832,12.39a1.978,1.978,0,0,0,.93.849,1.356,1.356,0,0,0-.037-.447" fill="none" stroke="rgba(0,0,0,0.77)" stroke-width="0.056"/>
          <path id="path839" d="M13.373,12.2a1.611,1.611,0,0,0,.769.893,2.075,2.075,0,0,0-.3-1.215" fill="none" stroke="rgba(0,0,0,0.77)" stroke-width="0.056"/>
          <path id="path840" d="M13.453,11.752a1.019,1.019,0,0,0,.4.146,1.566,1.566,0,0,0-.178-1.133" fill="none" stroke="rgba(0,0,0,0.77)" stroke-width="0.056"/>
          <path id="path841" d="M12.861,11.944a.724.724,0,0,0,.513.271,2.744,2.744,0,0,0,.015-1.2" fill="none" stroke="rgba(0,0,0,0.77)" stroke-width="0.056"/>
          <path id="path842" d="M12.273,12.142A7.044,7.044,0,0,0,13.3,13.191a.611.611,0,0,0,.021-.217" fill="none" stroke="rgba(0,0,0,0.77)" stroke-width="0.056"/>
          <path id="path843" d="M16.132,8.93a10.522,10.522,0,0,1,1.361,1.658c.319.719.908.855,1.055.775" fill="none" stroke="rgba(0,0,0,0.77)" stroke-width="0.056"/>
          <path id="path844" d="M14.532,12.812c.084.344.237.969.457,1.068a.325.325,0,0,0,.066-.254" fill="none" stroke="rgba(0,0,0,0.77)" stroke-width="0.056"/>
          <path id="path845" d="M13.262,10.864c.1.1.121.192.224.2a1.547,1.547,0,0,0,.266-1.092" fill="none" stroke="rgba(0,0,0,0.77)" stroke-width="0.056"/>
          <path id="path846" d="M12.744,10.848c.046.226.09.417.25.419a1.266,1.266,0,0,0,.266-1.141" fill="none" stroke="rgba(0,0,0,0.77)" stroke-width="0.056"/>
          <path id="path847" d="M12.641,12.045l-.12-.263" fill="none" stroke="rgba(0,0,0,0.77)" stroke-width="0.056"/>
          <path id="path848" d="M15.228,14.177l.8.729" fill="none" stroke="rgba(0,0,0,0.77)" stroke-width="0.056"/>
          <path id="path849" d="M14.845,13.883l.248.7" fill="none" stroke="rgba(0,0,0,0.77)" stroke-width="0.056"/>
          <path id="path850" d="M13.754,13.245c.168.334.527.817.813.888a1.2,1.2,0,0,0,0-.235" fill="none" stroke="rgba(0,0,0,0.77)" stroke-width="0.056"/>
          <path id="path851" d="M13.32,13.178a3.266,3.266,0,0,0,.949,1.039.362.362,0,0,0,.048-.2" fill="none" stroke="rgba(0,0,0,0.77)" stroke-width="0.056"/>
          <path id="path852" d="M14.552,14.119l.358.593" fill="none" stroke="rgba(0,0,0,0.77)" stroke-width="0.056"/>
          <path id="path853" d="M14.124,12.631a1.289,1.289,0,0,0,.418.183,2.863,2.863,0,0,0-.369-1.391" fill="none" stroke="rgba(0,0,0,0.77)" stroke-width="0.056"/>
          <path id="path854" d="M12.345,10.736c-.046.171-.039.358.121.36.444-.192.179-.383.561-1.03" fill="none" stroke="rgba(0,0,0,0.77)" stroke-width="0.056"/>
          <path id="path855" d="M12.932,9.56c.168.334.218.562.48.648a1.056,1.056,0,0,0-.26-1.094" fill="none" stroke="rgba(0,0,0,0.77)" stroke-width="0.056"/>
          <path id="path856" d="M13.471,9.838a.378.378,0,0,0,.316.118c.1-.2-.114-.768-.4-1.062" fill="none" stroke="rgba(0,0,0,0.77)" stroke-width="0.056"/>
          <path id="path857" d="M15.953,9.375a15.036,15.036,0,0,0,1.536,1.668c.089-.011.222.1.1-.276" fill="none" stroke="rgba(0,0,0,0.77)" stroke-width="0.056"/>
          <path id="path858" d="M15.848,10.032a6.452,6.452,0,0,0,1,1.133.273.273,0,0,0,.228,0,2.608,2.608,0,0,0,.012-.509" fill="none" stroke="rgba(0,0,0,0.77)" stroke-width="0.056"/>
          <path id="path859" d="M15.6,10.407c.242.267.562.574.953.93.1.037.186.039.2,0s.028-.029.006-.269" fill="none" stroke="rgba(0,0,0,0.77)" stroke-width="0.056"/>
          <path id="path860" d="M15.259,10.886a1.518,1.518,0,0,0,.683.512c.106.013.162.014.173-.025s0-.226,0-.441" fill="none" stroke="rgba(0,0,0,0.77)" stroke-width="0.056"/>
          <path id="path861" d="M14.915,11.242c.242.267.242.377.462.426.106.013.185,0,.2-.037a.834.834,0,0,0,.043-.373" fill="none" stroke="rgba(0,0,0,0.77)" stroke-width="0.056"/>
          <path id="path862" d="M14.817,9.5c.244.044.264-.166.244-.317a.243.243,0,0,0-.316-.232" fill="none" stroke="rgba(0,0,0,0.77)" stroke-linecap="round" stroke-width="0.056"/>
          <path id="path863" d="M14.681,10.333c.115.044.259.042.312-.09.042-.1.027-.346-.132-.306" fill="none" stroke="rgba(0,0,0,0.77)" stroke-linecap="round" stroke-width="0.056"/>
          <path id="path864" d="M14.854,9.934c.219.014.24-.086.232-.213a.211.211,0,0,0-.267-.22" fill="none" stroke="rgba(0,0,0,0.77)" stroke-linecap="round" stroke-width="0.056"/>
          <path id="path869" d="M15.067,9.361c.32-.193,1.243.58.541.826" fill="none" stroke="rgba(0,0,0,0.77)" stroke-width="0.056"/>
          <path id="path870" d="M15,9.909c.32-.193,1.025.438.31.683" fill="none" stroke="rgba(0,0,0,0.77)" stroke-width="0.056"/>
          <path id="path871" d="M14.879,10.344c.358.012.769.586.068.656" fill="none" stroke="rgba(0,0,0,0.77)" stroke-width="0.056"/>
          <path id="path872" d="M14.458,10.65c.115.044.181.073.284-.015a.2.2,0,0,0-.057-.3" fill="none" stroke="rgba(0,0,0,0.77)" stroke-linecap="round" stroke-width="0.056"/>
          <path id="path873" d="M11.464,9.957c.121-.156.416-.256.518-.049" fill="none" stroke="rgba(0,0,0,0.77)" stroke-width="0.056"/>
          <path id="path874" d="M14.673,10.678c.208.068.54.648-.017.707" fill="none" stroke="rgba(0,0,0,0.77)" stroke-width="0.056"/>
          <path id="path875" d="M14.408,8.057c.24.045.361.434.553.463.35.052-.045-.405-.121-.457" fill="none" stroke="rgba(0,0,0,0.77)" stroke-linecap="round" stroke-width="0.056"/>
          <path id="path876" d="M10.866,9.716a.264.264,0,0,0,.277-.143" fill="none" stroke="rgba(0,0,0,0.77)" stroke-width="0.056"/>
          <path id="path883" d="M11.934,10.828c.06.112.214.067.341-.01.174-.1.027-.449.442-.747" fill="none" stroke="rgba(0,0,0,0.77)" stroke-width="0.056"/>
          <path id="path884" d="M12.154,12.3a8.506,8.506,0,0,0,.922.963.428.428,0,0,0,.049-.219" fill="none" stroke="rgba(0,0,0,0.77)" stroke-width="0.056"/>
          <path id="path885" d="M13.068,13.244l.514.714" fill="none" stroke="rgba(0,0,0,0.77)" stroke-width="0.056"/>
          <path id="path886" d="M14.139,13.071a1.9,1.9,0,0,0,.638.987.611.611,0,0,0,.06-.334" fill="none" stroke="rgba(0,0,0,0.77)" stroke-width="0.056"/>
          <path id="path887" d="M14.019,14.056l-.031.319" fill="none" stroke="rgba(0,0,0,0.77)" stroke-width="0.056"/>
          <path id="path888" d="M14.789,12.463c.084.344.21,1.18.4,1.332a4.715,4.715,0,0,0,.112-.881" fill="none" stroke="rgba(0,0,0,0.77)" stroke-width="0.056"/>
          <path id="path889" d="M14.529,12.439a1.8,1.8,0,0,0,.27.012,2.407,2.407,0,0,0-.4-1.233" fill="none" stroke="rgba(0,0,0,0.77)" stroke-width="0.056"/>
          <path id="path890" d="M15.166,11.546l-.018.365" fill="#00c600" stroke="rgba(0,0,0,0.77)" stroke-linecap="round" stroke-width="0.056" fill-rule="evenodd"/>
          <path id="path891" d="M13.875,11.39a.65.65,0,0,0,.3.054c.1-.489-.15-.49-.461-.836" fill="none" stroke="rgba(0,0,0,0.77)" stroke-width="0.056"/>
          <path id="path892" d="M15.265,8.136c.24.045.088.4.414.516.274.091.12-.286.044-.338" fill="none" stroke="rgba(0,0,0,0.77)" stroke-linecap="round" stroke-width="0.056"/>
          <path id="path893" d="M14.908,8.943c.173-.126.793.048,1,.225.06.056.152.28-.133.485" fill="none" stroke="rgba(0,0,0,0.77)" stroke-width="0.056"/>
          <path id="path902" d="M11.625,9.239c.5-.485.728-.43,1.3-.072a.323.323,0,0,0,.223-.029.2.2,0,0,0-.036-.195.869.869,0,0,0-.685-.2" fill="none" stroke="rgba(0,0,0,0.77)" stroke-width="0.056"/>
          <path id="path903" d="M12.341,11.04a.961.961,0,0,0-.014.923c.008.046.056.092.007.123a.508.508,0,0,0-.187.2" fill="none" stroke="rgba(0,0,0,0.77)" stroke-width="0.056"/>
          <path id="path904" d="M15.24,13.59a2.993,2.993,0,0,0-.326-1.524" fill="none" stroke="rgba(0,0,0,0.77)" stroke-width="0.056"/>
          <path id="path905" d="M14.2,11.235a1.049,1.049,0,0,0,.229-.01c.024-.088-.044-.2-.071-.28a1.031,1.031,0,0,0,.138-.015,1.24,1.24,0,0,0,0-.275" fill="none" stroke="rgba(0,0,0,0.77)" stroke-width="0.056"/>
          <path id="path906" d="M11.208,9.513a.562.562,0,0,1,.274-.36c.065-.036.108.007.137.022a.3.3,0,0,1,0,.209.407.407,0,0,1-.238.18c-.067-.029-.106-.022-.173-.05Z" fill="#fff" stroke="rgba(0,0,0,0.77)" stroke-width="0.056" fill-rule="evenodd"/>
          <path id="path907" d="M12.361,12.079c.029.014.317.332.317.332h.173l.014-.483" fill="none" stroke="rgba(0,0,0,0.77)" stroke-width="0.056"/>
          <path id="path908" d="M12.829,11.15a1.171,1.171,0,0,0,0,.569" fill="none" stroke="rgba(0,0,0,0.77)" stroke-linecap="round" stroke-linejoin="round" stroke-width="0.056"/>
          <path id="path909" d="M12.454,12.045l.068-.263" fill="none" stroke="rgba(0,0,0,0.77)" stroke-width="0.056"/>
          <path id="path910" d="M12.577,11.048a.956.956,0,0,0-.066.608" fill="none" stroke="rgba(0,0,0,0.77)" stroke-width="0.056"/>
          <path id="path911" d="M14.933,12.1l-.163,0" fill="none" stroke="rgba(0,0,0,0.77)" stroke-width="0.056"/>
          <path id="path1170" d="M9.09,11.49c.023.071-.054.033-.071.053-.081.029-.209-.071-.29-.311.04-.067.272-.212.347-.181,0,0,.146.056.164.117a3.374,3.374,0,0,1-.15.322Z" fill="#9f3000" stroke="#000" stroke-width="0.056" fill-rule="evenodd"/>
          <path id="path912" d="M14.933,12.1l0-.321" fill="none" stroke="rgba(0,0,0,0.77)" stroke-width="0.056"/>
          <path id="path913" d="M15.2,13.79l.046.783" fill="none" stroke="rgba(0,0,0,0.77)" stroke-width="0.056"/>
          <path id="path1153" d="M9.085,11.517c.158.149.406.049.446.412.017.2-.271.61,0,.976a1.409,1.409,0,0,0,.344.294,2.261,2.261,0,0,1,.254.6.534.534,0,0,0,.621.26s.643-.288.643-.294-.327-.44-.327-.435-.367.31-.373.31a.319.319,0,0,1-.333-.254.716.716,0,0,0-.452-.677.374.374,0,0,1-.13-.508.789.789,0,0,0-.107-.818,1.155,1.155,0,0,0-.44-.22c-.224.085-.222.062-.147.35Z" fill="#238700" stroke="#000" stroke-width="0.056" fill-rule="evenodd"/>
          <path id="path914" d="M12.267,8.5a.6.6,0,0,0-.064.412" fill="none" stroke="rgba(0,0,0,0.77)" stroke-width="0.056"/>
          <path id="path915" d="M11.827,9.275h.2a.177.177,0,0,0,.115-.05.621.621,0,0,0,.079-.058.368.368,0,0,1,.072-.043.331.331,0,0,1,.108.014.575.575,0,0,1,.086.05.23.23,0,0,0,.094.014.6.6,0,0,1,.13.007.4.4,0,0,1,.108.022A.421.421,0,0,1,12.9,9.3c0,.038.014.062.014.1a.29.29,0,0,1-.007.1.37.37,0,0,1-.014.1c-.026.025-.036.044-.072.05a.188.188,0,0,1-.115.022h-.115c-.025-.021-.055-.043-.086-.072a.093.093,0,0,0-.065-.065.717.717,0,0,0-.108-.007.139.139,0,0,1-.087-.014.168.168,0,0,0-.079-.036.413.413,0,0,0-.108-.007H12" fill="none" stroke="rgba(0,0,0,0.77)" stroke-width="0.056"/>
          <path id="path916" d="M12.014,9.34l.007.007c-.016-.016-.01-.008.029.007a.776.776,0,0,0,.151.022c.05,0,.095.006.144.007a.332.332,0,0,0,.1-.007" fill="none" stroke="rgba(0,0,0,0.77)" stroke-width="0.056"/>
          <path id="path917" d="M12.476,9.225h-.007c.023,0,.009,0-.022.036a.158.158,0,0,0,.007.1.22.22,0,0,1,.079.043c.023.017.022.031.022.072-.014.023-.026.041-.043.072s-.021.053-.029.079a.422.422,0,0,0-.014.1V9.8" fill="none" stroke="rgba(0,0,0,0.77)" stroke-width="0.056"/>
          <path id="path918" d="M15.086,8.385c.008.015.146.291.318.116a.131.131,0,0,0,.034-.1.3.3,0,0,0-.01-.079" fill="none" stroke="rgba(0,0,0,0.77)" stroke-width="0.056"/>
          <path id="path1183" d="M10.926,13.935a.151.151,0,0,0,.265-.037c-.1.007-.143-.054-.18-.148C10.988,13.8,10.9,13.869,10.926,13.935Z" fill="#fff" stroke="#000" stroke-width="0.03" fill-rule="evenodd"/>
          <path id="path919" d="M15.815,8.643a.544.544,0,0,0,.368.14.672.672,0,0,0,.388-.177" fill="none" stroke="rgba(0,0,0,0.77)" stroke-width="0.056"/>
          <path id="path920" d="M16.121,8.773a1.441,1.441,0,0,1,.01.153.357.357,0,0,1-.008.148.15.15,0,0,1-.1.1c-.045.021-.055,0-.106,0" fill="none" stroke="rgba(0,0,0,0.77)" stroke-width="0.056"/>
          <path id="path921" d="M14.9,8.494a2.319,2.319,0,0,0,.208.412" fill="none" stroke="rgba(0,0,0,0.77)" stroke-width="0.056"/>
          <path id="path1184" d="M11.027,13.868a.151.151,0,0,0,.265-.037c-.1.007-.143-.054-.18-.148C11.09,13.737,11,13.8,11.027,13.868Z" fill="#fff" stroke="#000" stroke-width="0.03" fill-rule="evenodd"/>
          <path id="path1185" d="M11.185,13.8a.151.151,0,0,0,.265-.037c-.1.007-.143-.054-.18-.148C11.248,13.669,11.162,13.734,11.185,13.8Z" fill="#fff" stroke="#000" stroke-width="0.03" fill-rule="evenodd"/>
          <path id="path922" d="M14.012,8.3h.051a1.635,1.635,0,0,1,.8.173" fill="none" stroke="rgba(0,0,0,0.77)" stroke-width="0.056"/>
          <path id="path923" d="M14.113,10.934s.008.062,0,.059c.02.02,0-.054-.014-.1a.27.27,0,0,1-.02-.122V10.73" fill="none" stroke="rgba(0,0,0,0.77)" stroke-width="0.056"/>
          <path id="path924" d="M13.1,13.333v.252a.587.587,0,0,1,.007.115.467.467,0,0,0,.029.1.3.3,0,0,0,.029.108.339.339,0,0,0,.029.1.53.53,0,0,0,.022.086.335.335,0,0,0,.036.079c.009.01.019.058.027.061" fill="none" stroke="rgba(0,0,0,0.77)" stroke-width="0.056"/>
          <path id="path925" d="M12.656,12.908V13.1c.009.048.011.1.022.144a1.088,1.088,0,0,0,.022.115,1.258,1.258,0,0,0,.065.209.806.806,0,0,0,.058.086.351.351,0,0,0,.086.022h.1c.04-.008.054-.012.072-.043s.009-.033.022-.043" fill="none" stroke="rgba(0,0,0,0.77)" stroke-width="0.056"/>
          <path id="path926" d="M12.534,14.22a.134.134,0,0,1,.014-.072.74.74,0,0,1,.079-.094.922.922,0,0,1,.432-.238c.034,0,.046-.007.079-.007" fill="none" stroke="rgba(0,0,0,0.77)" stroke-width="0.056"/>
          <path id="path927" d="M12.569,13.566a.815.815,0,0,0,.244.089" fill="none" stroke="rgba(0,0,0,0.77)" stroke-width="0.056"/>
          <path id="path1104" d="M13.023,13.845h0Z" fill="none" stroke="#000" stroke-width="0.03"/>
          <path id="path1106" d="M12.952,13.837c-.024-.016-.788-.236-.772-.236s-.28.2-.28.2l.729.248.292-.213h.032Z" fill="#ffbc00" stroke="#000" stroke-width="0.056" fill-rule="evenodd"/>
          <path id="path1107" d="M12.222,13.595a.3.3,0,0,0-.123-.384c-.36-.221-.966-.2-1.081.056-.124-.017-.188.084-.206.184-.321.087-.024.458.056.473.108.037.137.01.156-.025a.18.18,0,0,0,.163-.094c.076.014.134.013.136-.064.219.2.52.347.553.083l.345-.228Z" fill="#f7b200" stroke="#000" stroke-width="0.056" fill-rule="evenodd"/>
          <path id="path1109" d="M10.813,13.445a.573.573,0,0,0,.228.446" fill="none" stroke="#000" stroke-width="0.056"/>
          <path id="path1110" d="M11.013,13.266a.674.674,0,0,0,.173.535" fill="none" stroke="#000" stroke-width="0.056"/>
          <path id="path1111" d="M11.239,13.113c-.14.117-.064.481.089.629" fill="none" stroke="#000" stroke-width="0.056"/>
          <path id="path1108" d="M11.613,10.142c.323.427-.129.9-.523,1.172-.465.366-.716,1.078.1,1.122.3-.005.617-.032.8.2a.628.628,0,0,1-.268.935c-.045-.039-.111-.157-.16-.193s-.082.01-.127-.029c-.016-.147.225-.366,0-.419-.294.05-1.324.054-1.311-.928a1.514,1.514,0,0,1,.327-.715c.188-.25.7-.56.752-.7.079-.117-.066-.345-.181-.377-.095-.252.323-.521.591-.072Z" fill="#288800" stroke="#000100" stroke-linejoin="round" stroke-width="0.056" fill-rule="evenodd"/>
          <path id="path1117" d="M10.9,10.9l.011.574" fill="none" stroke="#000" stroke-width="0.056"/>
          <path id="path1118" d="M10.595,11.127l.613.089" fill="none" stroke="#000" stroke-width="0.056"/>
          <path id="path1119" d="M11.046,10.77l.518.106" fill="none" stroke="#000" stroke-width="0.056"/>
          <path id="path1120" d="M10.5,11.227l.431.256" fill="none" stroke="rgba(0,0,0,0.64)" stroke-width="0.056"/>
          <path id="path1121" d="M10.193,11.767l.337.358" fill="none" stroke="rgba(0,0,0,0.64)" stroke-width="0.056"/>
          <path id="path1122" d="M10.5,11.251l.057.846" fill="none" stroke="rgba(0,0,0,0.64)" stroke-width="0.056"/>
          <path id="path1123" d="M10.272,11.605l.554.011" fill="none" stroke="rgba(0,0,0,0.64)" stroke-width="0.056"/>
          <path id="path1125" d="M9.693,13.035a1.15,1.15,0,0,0,.231-.312" fill="none" stroke="#000" stroke-width="0.056"/>
          <path id="path1126" d="M9.866,13.181a1.3,1.3,0,0,1,.412-.158" fill="none" stroke="#000" stroke-width="0.056"/>
          <path id="path1127" d="M10.079,13.673a1.3,1.3,0,0,0,.282-.289" fill="none" stroke="#000" stroke-width="0.056"/>
          <path id="path1128" d="M10.083,13.692a3.4,3.4,0,0,0,.53-.055" fill="none" stroke="#000" stroke-width="0.056"/>
          <path id="path1129" d="M10.4,14.04a1.357,1.357,0,0,0,.349-.2" fill="none" stroke="#000" stroke-width="0.056"/>
          <path id="path1130" d="M9.484,12.858a2.179,2.179,0,0,0,.287-.273" fill="none" stroke="#000" stroke-width="0.056"/>
          <path id="path1131" d="M9.409,12.594a1.431,1.431,0,0,0,.313-.138" fill="none" stroke="#000" stroke-width="0.056"/>
          <path id="path1132" d="M9.448,12.319a.984.984,0,0,1,.291-.055" fill="none" stroke="#000" stroke-width="0.056"/>
          <path id="path1133" d="M9.531,12.066a.646.646,0,0,1,.29.03" fill="none" stroke="#000" stroke-width="0.056"/>
          <path id="path1134" d="M9.55,11.905a.49.49,0,0,1,.291-.066" fill="none" stroke="#000" stroke-width="0.056"/>
          <path id="path1135" d="M9.5,11.786l.312-.213" fill="none" stroke="#000" stroke-width="0.056"/>
          <path id="path1136" d="M9.45,11.7l.266-.264" fill="none" stroke="#000" stroke-width="0.056"/>
          <path id="path1137" d="M9.375,11.662l.195-.333" fill="none" stroke="#000" stroke-width="0.056"/>
          <path id="path1140" d="M10.151,9.695l0,.474" fill="none" stroke="#000" stroke-width="0.056"/>
          <path id="path1141" d="M10.631,9.77a1.6,1.6,0,0,1-.294.419" fill="none" stroke="#000" stroke-width="0.056"/>
          <path id="path1142" d="M10.277,9.679a.543.543,0,0,0-.377.153" fill="none" stroke="#000" stroke-width="0.056"/>
          <path id="path1145" d="M11.02,10.041c.231.085.539.2.507.882a.644.644,0,0,0,.036-.866.332.332,0,0,0-.543-.016Z" fill="rgba(157,70,0,0.99)" stroke="#000" stroke-linecap="round" stroke-linejoin="round" stroke-width="0.03" fill-rule="evenodd"/>
          <path id="path1146" d="M11.124,10.267a.524.524,0,0,1,.291-.331" fill="none" stroke="#000" stroke-width="0.056"/>
          <path id="path1147" d="M11.195,10.387a.64.64,0,0,1,.356-.338" fill="none" stroke="#000" stroke-width="0.056"/>
          <path id="path1148" d="M11.2,10.625a1.126,1.126,0,0,0,.507-.3" fill="none" stroke="#000" stroke-width="0.056"/>
          <path id="path1149" d="M11.227,10.5a3.183,3.183,0,0,1,.411-.283" fill="none" stroke="#000" stroke-width="0.056"/>
          <path id="path1150" d="M11.527,10.637a.54.54,0,0,0,.2-.123" fill="none" stroke="#000" stroke-width="0.056"/>
          <path id="path1151" d="M11.02,10.044c.233.076.518.247.5.878" fill="none" stroke="#000" stroke-width="0.056"/>
          <path id="path1154" d="M10.245,12.481l.317-.384" fill="none" stroke="rgba(0,0,0,0.64)" stroke-width="0.056"/>
          <path id="path1155" d="M10.284,12.56h.283" fill="none" stroke="rgba(0,0,0,0.64)" stroke-width="0.056"/>
          <path id="path1156" d="M10.126,12.176l.4.226" fill="none" stroke="rgba(0,0,0,0.64)" stroke-width="0.056"/>
          <path id="path1157" d="M10.659,12.138a.634.634,0,0,1-.185-.046,1.464,1.464,0,0,0,.163.729,1.3,1.3,0,0,0,.835.079c.019.027.123.156.059.194s-.1.128-.1.264c.041.046.084.006.125.036a.673.673,0,0,1,.129.225s.513-.353.43-.684a.575.575,0,0,0-.265-.418c-.3-.149-.717-.05-.869-.107a.454.454,0,0,1-.322-.271Z" fill="#9d4600" stroke="#000" stroke-width="0.03" fill-rule="evenodd"/>
          <path id="path1158" d="M11.5,13.038a1.311,1.311,0,0,1,.6-.116" fill="none" stroke="#000" stroke-width="0.056"/>
          <path id="path1159" d="M10.5,12.357a.465.465,0,0,1,.232-.1" fill="none" stroke="#000" stroke-width="0.056"/>
          <path id="path1160" d="M10.972,12.919a.9.9,0,0,1,.221-.5" fill="none" stroke="#000" stroke-width="0.056"/>
          <path id="path1161" d="M11.126,12.94a.938.938,0,0,1,.232-.509" fill="none" stroke="#000" stroke-width="0.056"/>
          <path id="path1162" d="M11.3,12.922a.874.874,0,0,1,.221-.491" fill="none" stroke="#000" stroke-width="0.056"/>
          <path id="path1163" d="M11.429,12.9a.7.7,0,0,1,.256-.449" fill="none" stroke="#000" stroke-width="0.056"/>
          <path id="path1164" d="M11.515,12.978a.76.76,0,0,1,.335-.466" fill="none" stroke="#000" stroke-width="0.056"/>
          <path id="path1165" d="M11.522,13.02a.958.958,0,0,1,.487-.35" fill="none" stroke="#000" stroke-width="0.056"/>
          <path id="path1167" d="M10.811,12.884a.758.758,0,0,1,.225-.463" fill="none" stroke="#000" stroke-width="0.056"/>
          <path id="path1168" d="M10.656,12.834a.709.709,0,0,1,.246-.453" fill="none" stroke="#000" stroke-width="0.056"/>
          <path id="path1113" d="M11.458,13.39c.121-.1.2.213.21.25a.157.157,0,0,0,.089.11" fill="none" stroke="#000" stroke-width="0.056"/>
          <path id="path1169" d="M10.562,12.648a.9.9,0,0,1,.218-.333" fill="none" stroke="#000" stroke-width="0.056"/>
          <path id="path1112" d="M11.227,13.125c-.157.25.024.471.228.382-.023-.173-.068-.283.09-.449C11.433,13.065,11.333,13.026,11.227,13.125Z" fill="#fff" stroke="#000" stroke-width="0.059" fill-rule="evenodd"/>
          <path id="path1171" d="M10.633,11.287l.074.367" fill="none" stroke="#000" stroke-width="0.056"/>
          <path id="path1172" d="M10.707,11.624l-.134.452" fill="none" stroke="#000" stroke-width="0.056"/>
          <path id="path1173" d="M11.5,13.062a1.311,1.311,0,0,1,.613.028" fill="none" stroke="#000" stroke-width="0.056"/>
          <path id="path1174" d="M11.466,13.106a1.14,1.14,0,0,1,.593.158" fill="none" stroke="#000" stroke-width="0.06"/>
          <path id="path1175" d="M11.469,13.159a.754.754,0,0,1,.444.259" fill="none" stroke="#000" stroke-width="0.059"/>
          <path id="path1176" d="M11.45,13.222a.636.636,0,0,1,.33.317" fill="none" stroke="#000" stroke-width="0.059"/>
          <rect id="rect1177" width="0.135" height="0.626" transform="matrix(0.974, -0.228, 0.228, 0.974, 7.393, 14.536)" fill="#296526"/>
          <path id="path1179" d="M8.488,16.594l.277.315.1-.087-.26-.326-.12.1Z" fill="#296526" fill-rule="evenodd"/>
          <path id="path1180" d="M16.929,17.94l-.343.241.076.112.352-.223-.085-.13Z" fill="#296526" fill-rule="evenodd"/>
          <path id="path1181" d="M18.736,16.433l-.306.287.091.1.317-.27-.1-.117Z" fill="#296526" fill-rule="evenodd"/>
          <path id="path1182" d="M19.705,14.41l-.111.274.061.079.12-.261Z" fill="#296526" fill-rule="evenodd"/>
          <path id="path1186" d="M10.652,12.849a1.451,1.451,0,0,1-.175-.75.294.294,0,0,0,.186.045" fill="none" stroke="#000" stroke-width="0.056"/>
          <path id="path1187" d="M10.136,9.68a.5.5,0,0,1,.171-.616" fill="none" stroke="#000" stroke-width="0.056"/>
          <path id="path1188" d="M10.335,8.979a.1.1,0,0,1-.035.132c-.045.04-.1.046-.128.014a.1.1,0,0,1,.035-.132C10.251,8.953,10.309,8.946,10.335,8.979Z" fill-rule="evenodd"/>
          <path id="path1189" d="M9.543,11.305c-.026,0-.468-.06-.468-.06" fill="none" stroke="#000" stroke-width="0.072"/>
          <path id="path1190" d="M9.356,11.629c0-.017-.289-.375-.289-.375" fill="none" stroke="#000" stroke-width="0.072"/>
        </g>
      </g>
    </g>
  </g>
</svg>
