<svg xmlns="http://www.w3.org/2000/svg" xmlns:xlink="http://www.w3.org/1999/xlink" width="87" height="87" viewBox="0 0 87 87"><defs><style>.a,.c{fill:#fff;}.a{stroke:#707070;}.b{fill:rgba(0,0,0,0.67);}.d{clip-path:url(#c);}.e{clip-path:url(#d);}.f{fill:#d72828;}.g{fill:#003897;}.h{filter:url(#a);}</style><filter id="a" x="0" y="0" width="87" height="87" filterUnits="userSpaceOnUse"><feOffset dy="3" input="SourceAlpha"/><feGaussianBlur stdDeviation="10" result="b"/><feFlood flood-opacity="0.051"/><feComposite operator="in" in2="b"/><feComposite in="SourceGraphic"/></filter><clipPath id="c"><ellipse class="a" cx="13.5" cy="13.5" rx="13.5" ry="13.5"/></clipPath><clipPath id="d"><rect class="b" width="36" height="27" transform="translate(-1.8 0.338)"/></clipPath></defs><g transform="translate(-397 -423)"><g class="h" transform="matrix(1, 0, 0, 1, 397, 423)"><ellipse class="c" cx="13.5" cy="13.5" rx="13.5" ry="13.5" transform="translate(30 27)"/></g><g class="d" transform="translate(427 450)"><g class="e" transform="translate(-0.065 -0.338)"><rect class="c" width="28.8" height="28.8" transform="translate(0 -1.125)"/><rect class="c" width="39.36" height="28.791" transform="translate(-3.938 -1.116)"/><rect class="f" width="12.54" height="12.458" transform="translate(-5.581 -2.421)"/><rect class="f" width="24.264" height="12.458" transform="translate(13.917 -2.421)"/><rect class="f" width="12.375" height="12.699" transform="translate(-5.581 16.969)"/><rect class="f" width="23.607" height="12.58" transform="translate(14.063 17.088)"/><rect class="g" width="3.624" height="30.694" transform="translate(8.699 -2.421)"/><rect class="g" width="42.919" height="3.569" transform="translate(-5.581 11.522)"/></g></g></g></svg>