<svg xmlns="http://www.w3.org/2000/svg" xmlns:xlink="http://www.w3.org/1999/xlink" width="87" height="87" viewBox="0 0 87 87"><defs><style>.a,.c{fill:#fff;}.a{stroke:#707070;}.b{fill:rgba(0,0,0,0.67);}.d{clip-path:url(#c);}.e{clip-path:url(#d);}.f{fill:#f50013;}.g{fill:#00189a;}.h{fill:#feffff;}.h,.i{fill-rule:evenodd;}.i,.j{fill:#eca300;}.k{filter:url(#a);}</style><filter id="a" x="0" y="0" width="87" height="87" filterUnits="userSpaceOnUse"><feOffset dy="3" input="SourceAlpha"/><feGaussianBlur stdDeviation="10" result="b"/><feFlood flood-opacity="0.051"/><feComposite operator="in" in2="b"/><feComposite in="SourceGraphic"/></filter><clipPath id="c"><ellipse class="a" cx="13.5" cy="13.5" rx="13.5" ry="13.5"/></clipPath><clipPath id="d"><rect class="b" width="36" height="27"/></clipPath></defs><g transform="translate(-239 -483)"><g class="k" transform="matrix(1, 0, 0, 1, 239, 483)"><ellipse class="c" cx="13.5" cy="13.5" rx="13.5" ry="13.5" transform="translate(30 27)"/></g><g class="d" transform="translate(269 510)"><g class="e" transform="translate(-6.865)"><g transform="translate(2.25)"><rect class="f" width="40.5" height="27" transform="translate(-2.25)"/><rect class="g" width="40.5" height="13.5" transform="translate(-2.25)"/><path class="h" d="M-2.25,0,20.99,13.483-2.25,26.948V0Z"/><path class="i" d="M-1.149,24.587l.237-1.04-.934-.516L-.76,22.9l.247-1.038.434.956,1.087-.126-.817.727.425.961-.939-.507-.824.719Z"/><path class="i" d="M3.794,11.166,2.96,9.734l-.48-.054L3.623,11.3l.172-.135Zm-.647.656L1.393,10.473l-.063-.785.709-.024,1.45,1.773-.342.386Zm-.266.309-1.443-.815-.061-.479,1.637,1.12-.133.173Z"/><path class="i" d="M5.858,10.871l.435-1.6L6,8.893l-.354,1.951.217.027Zm-.922,0-.269-2.2.516-.6.515.488-.246,2.277-.515.027Zm-.407.027L4.1,9.3l.3-.379.35,1.952-.217.027Z"/><path class="i" d="M7.53,12.161l1.453-.8.067-.478L7.4,11.986l.131.175ZM6.891,11.5,8.286,9.779l.787-.042.005.709-1.81,1.4L6.891,11.5Zm-.3-.274L7.442,9.8l.48-.048L6.76,11.36l-.17-.137Z"/><path class="i" d="M7.789,14.164l1.6.436.38-.3-1.951-.355-.027.217Zm0-.922,2.2-.268.6.516-.489.514-2.277-.247-.026-.515Zm-.027-.407,1.6-.431.379.3-1.952.349-.027-.217Z"/><path class="i" d="M6.572,15.794l.84,1.428.48.052L6.743,15.658l-.171.136Zm.644-.659,1.759,1.341.066.785-.709.027L6.875,15.522l.341-.387Zm.265-.31,1.447.808.063.479L7.349,15l.132-.174Z"/><path class="i" d="M4.515,16.1l-.424,1.6.3.378.341-1.954L4.515,16.1Zm.922-.005.284,2.194-.512.6L4.692,18.4l.231-2.278.515-.03Zm.406-.03.443,1.6-.3.381-.364-1.95.217-.028Z"/><path class="i" d="M2.847,14.843l-1.44.819-.059.479L2.98,15.016l-.134-.173Zm.65.654-1.367,1.74-.786.055-.017-.709L3.114,15.15,3.5,15.5Zm.306.269L2.973,17.2l-.479.056L3.63,15.631l.172.135Z"/><path class="i" d="M2.562,12.819l-1.6-.425-.378.3,1.954.342.026-.217Zm.005.922-2.194.283-.6-.512.485-.518,2.278.231.03.515Zm.029.406L1,14.59l-.381-.3,1.95-.363.028.217Z"/><path class="i" d="M16.972,14.893l-.618-.869-1.007.353.622-.9-.61-.876,1,.313.63-.894,0,1.094,1,.323-1,.363-.012,1.094Z"/><path class="i" d="M-.554,5.182-.746,4.133l-1.062-.107.945-.552-.182-1.052.776.708L.68,2.587l-.465.99.768.716L-.08,4.2l-.474.986Z"/><circle class="j" cx="2.782" cy="2.782" r="2.782" transform="translate(2.395 10.7)"/></g></g></g></g></svg>