<svg xmlns="http://www.w3.org/2000/svg" xmlns:xlink="http://www.w3.org/1999/xlink" width="29" height="29" viewBox="0 0 29 29">
  <defs>
    <clipPath id="clip-path">
      <ellipse id="Ellipse_25" data-name="Ellipse 25" cx="13.5" cy="13.5" rx="13.5" ry="13.5" fill="#fff" stroke="#707070" stroke-width="1"/>
    </clipPath>
    <clipPath id="clip-path-2">
      <rect id="rect3249" width="36" height="27" fill="rgba(0,0,0,0.67)"/>
    </clipPath>
  </defs>
  <g id="INR" transform="translate(-110 -389)">
    <circle id="Ellipse_37" data-name="Ellipse 37" cx="14.5" cy="14.5" r="14.5" transform="translate(110 389)" fill="#e0e0e0"/>
    <g id="Mask_Group_21" data-name="Mask Group 21" transform="translate(111 390)" clip-path="url(#clip-path)">
      <g id="ind" transform="translate(-4.865)" clip-path="url(#clip-path-2)">
        <rect id="rect171" width="40.5" height="27" transform="translate(-2.25)" fill="#fff"/>
        <rect id="rect256" width="40.5" height="9" transform="translate(-2.25 18)" fill="#329203"/>
        <rect id="rect255" width="40.5" height="9" transform="translate(-2.25)" fill="#e77300"/>
        <circle id="path200" cx="6.918" cy="6.918" r="6.918" transform="translate(11.082 6.582)" fill="#08399c"/>
        <path id="path175" d="M24,11.947c.038.138.046.212.073.344-.271.084-.412.265-.38.446a.4.4,0,0,0,.487.345c.009.135.013.212.013.355-1.025,0-2.106-.057-3.114-.146a3.916,3.916,0,0,0-1.308.175c-.449.037-.8.01-1.729.047.909-.187,1.266-.3,1.686-.369a3.3,3.3,0,0,0,1.315-.209A28.549,28.549,0,0,1,24,11.948Z" fill="#fff" fill-rule="evenodd"/>
        <path id="path205" d="M16.516,7.546c.138-.037.212-.044.345-.071.082.272.262.414.443.383a.4.4,0,0,0,.349-.485c.135-.008.212-.011.356-.011,0,1.025-.07,2.106-.166,3.113a3.917,3.917,0,0,0,.166,1.309c.034.449,0,.8.035,1.73-.181-.91-.293-1.268-.358-1.689a3.3,3.3,0,0,0-.2-1.316,28.554,28.554,0,0,1-.969-2.963Z" fill="#fff" fill-rule="evenodd"/>
        <path id="path206" d="M18.092,7.355c.143,0,.217.011.351.019.01.284.147.467.331.483a.4.4,0,0,0,.461-.38c.132.027.208.043.346.08-.266.99-.606,2.018-.957,2.967a3.916,3.916,0,0,0-.174,1.308c-.082.443-.2.777-.408,1.681.057-.926.041-1.3.086-1.724a3.3,3.3,0,0,0,.142-1.323,28.555,28.555,0,0,1-.179-3.112Z" fill="#fff" fill-rule="evenodd"/>
        <path id="path207" d="M19.68,7.577c.138.037.206.067.334.109-.064.277.022.49.195.552a.4.4,0,0,0,.543-.248c.121.06.19.1.314.167-.513.888-1.107,1.793-1.691,2.62A3.916,3.916,0,0,0,18.87,12c-.194.407-.394.7-.829,1.519.294-.88.376-1.246.528-1.644a3.3,3.3,0,0,0,.479-1.242,28.558,28.558,0,0,1,.631-3.053Z" fill="#fff" fill-rule="evenodd"/>
        <path id="path208" d="M21.157,8.2c.124.071.182.118.295.192-.133.251-.105.479.045.584a.4.4,0,0,0,.589-.1c.1.089.159.141.26.243-.725.725-1.532,1.446-2.31,2.094-.573.479-.552.751-.8,1.047-.292.343-.561.573-1.193,1.253.512-.774.685-1.106.935-1.451a3.3,3.3,0,0,0,.784-1.076,28.551,28.551,0,0,1,1.4-2.786Z" fill="#fff" fill-rule="evenodd"/>
        <path id="path209" d="M22.416,9.18c.1.1.146.161.236.261-.193.208-.225.435-.106.576a.4.4,0,0,0,.595.056c.075.112.117.177.189.3-.887.515-1.852,1-2.77,1.431-.677.316-.727.584-1.045.805-.37.256-.69.41-1.474.9.693-.617.946-.893,1.276-1.163a3.3,3.3,0,0,0,1.034-.838A28.559,28.559,0,0,1,22.416,9.18Z" fill="#fff" fill-rule="evenodd"/>
        <path id="path210" d="M23.4,10.482c.072.124.1.193.159.314-.241.15-.331.361-.254.528a.4.4,0,0,0,.559.21c.043.128.066.2.1.34-.991.264-2.051.482-3.049.652a3.917,3.917,0,0,0-1.22.5c-.425.15-.773.214-1.66.486.831-.413,1.147-.613,1.537-.786a3.3,3.3,0,0,0,1.218-.537A28.562,28.562,0,0,1,23.4,10.482Z" fill="#fff" fill-rule="evenodd"/>
        <path id="path211" d="M12.076,15.037c-.037-.138-.045-.212-.071-.345.272-.082.414-.262.382-.443A.4.4,0,0,0,11.9,13.9c-.008-.135-.011-.212-.011-.356,1.025,0,2.106.07,3.113.165a3.916,3.916,0,0,0,1.309-.167c.449-.034.8-.005,1.73-.036-.91.182-1.268.293-1.689.358a3.3,3.3,0,0,0-1.316.2,28.554,28.554,0,0,1-2.963.97Z" fill="#fff" fill-rule="evenodd"/>
        <path id="path212" d="M24.2,13.52c0,.143-.01.217-.017.351-.284.012-.466.151-.481.334a.4.4,0,0,0,.383.458c-.026.133-.042.208-.078.347-.992-.259-2.022-.593-2.974-.937a3.916,3.916,0,0,0-1.309-.165c-.443-.079-.778-.2-1.684-.4.926.051,1.3.032,1.725.074a3.3,3.3,0,0,0,1.324.133,28.553,28.553,0,0,1,3.111-.2Z" fill="#fff" fill-rule="evenodd"/>
        <path id="path213" d="M23.985,15.112c-.036.139-.065.207-.107.335-.277-.062-.489.025-.551.2a.4.4,0,0,0,.251.542c-.059.121-.094.19-.165.315-.891-.507-1.8-1.1-2.631-1.674a3.916,3.916,0,0,0-1.222-.5c-.408-.191-.7-.39-1.524-.819.882.289,1.248.368,1.647.518a3.3,3.3,0,0,0,1.245.471,28.553,28.553,0,0,1,3.057.611Z" fill="#fff" fill-rule="evenodd"/>
        <path id="path214" d="M23.368,16.6c-.07.125-.117.183-.19.3-.252-.131-.479-.1-.583.049a.4.4,0,0,0,.1.588c-.089.1-.14.16-.241.262-.73-.72-1.455-1.524-2.108-2.3-.483-.57-.754-.548-1.051-.8-.344-.29-.577-.558-1.26-1.185.777.507,1.11.678,1.457.926a3.3,3.3,0,0,0,1.08.777A28.552,28.552,0,0,1,23.368,16.6Z" fill="#fff" fill-rule="evenodd"/>
        <path id="path215" d="M22.387,17.87c-.1.1-.16.146-.26.237-.209-.192-.436-.223-.576-.1a.4.4,0,0,0-.053.595c-.112.075-.177.118-.3.19-.518-.885-1.011-1.848-1.441-2.765-.319-.675-.586-.724-.809-1.042-.258-.369-.412-.688-.91-1.471.619.691.9.943,1.167,1.272a3.3,3.3,0,0,0,.842,1.031,28.562,28.562,0,0,1,2.342,2.058Z" fill="#fff" fill-rule="evenodd"/>
        <path id="path216" d="M21.1,18.853c-.124.073-.193.1-.313.16-.152-.24-.363-.329-.529-.251a.4.4,0,0,0-.207.56c-.128.044-.2.068-.34.105-.269-.989-.493-2.048-.669-3.045a3.917,3.917,0,0,0-.509-1.217c-.152-.424-.218-.772-.495-1.658.417.829.62,1.144.795,1.532a3.3,3.3,0,0,0,.544,1.215,28.549,28.549,0,0,1,1.723,2.6Z" fill="#fff" fill-rule="evenodd"/>
        <path id="path217" d="M19.608,19.464c-.138.038-.212.046-.344.074-.084-.271-.265-.412-.446-.379a.4.4,0,0,0-.345.487c-.135.009-.212.013-.355.013,0-1.025.055-2.106.144-3.115a3.917,3.917,0,0,0-.176-1.308c-.037-.449-.011-.8-.048-1.729.188.909.3,1.266.37,1.686a3.3,3.3,0,0,0,.21,1.314,28.556,28.556,0,0,1,.99,2.956Z" fill="#fff" fill-rule="evenodd"/>
        <path id="path218" d="M18,19.667c-.143,0-.217-.011-.351-.019-.011-.284-.148-.467-.332-.482a.4.4,0,0,0-.46.381c-.132-.027-.208-.043-.347-.08.264-.991.6-2.019.95-2.969a3.916,3.916,0,0,0,.171-1.308c.081-.443.2-.777.4-1.682-.055.926-.038,1.3-.082,1.724a3.3,3.3,0,0,0-.14,1.324A28.554,28.554,0,0,1,18,19.667Z" fill="#fff" fill-rule="evenodd"/>
        <path id="path219" d="M16.414,19.448c-.139-.036-.206-.066-.335-.109.063-.277-.023-.49-.2-.552a.4.4,0,0,0-.543.249c-.121-.06-.19-.1-.314-.167.511-.889,1.1-1.795,1.685-2.623a3.916,3.916,0,0,0,.5-1.22c.193-.407.393-.7.825-1.521-.293.88-.373,1.246-.525,1.645a3.3,3.3,0,0,0-.477,1.243,28.56,28.56,0,0,1-.624,3.054Z" fill="#fff" fill-rule="evenodd"/>
        <path id="path220" d="M14.93,18.823c-.124-.071-.182-.118-.3-.192.133-.251.1-.479-.046-.584a.4.4,0,0,0-.589.1c-.1-.089-.159-.141-.26-.242.724-.726,1.531-1.448,2.307-2.1.572-.48.551-.751.8-1.048.292-.343.561-.574,1.191-1.255-.511.775-.683,1.107-.933,1.452a3.3,3.3,0,0,0-.782,1.077,28.556,28.556,0,0,1-1.395,2.788Z" fill="#fff" fill-rule="evenodd"/>
        <path id="path221" d="M13.658,17.834c-.1-.1-.145-.161-.235-.262.193-.208.226-.435.107-.576a.4.4,0,0,0-.594-.057c-.075-.112-.117-.178-.189-.3.888-.513,1.854-1,2.773-1.426.677-.315.728-.582,1.047-.8.371-.256.691-.409,1.476-.9-.694.615-.947.892-1.278,1.16a3.3,3.3,0,0,0-1.035.837,28.562,28.562,0,0,1-2.071,2.33Z" fill="#fff" fill-rule="evenodd"/>
        <path id="path222" d="M12.679,16.537c-.072-.124-.1-.193-.158-.314.241-.15.332-.361.254-.528a.4.4,0,0,0-.559-.21c-.043-.128-.066-.2-.1-.34.991-.263,2.051-.481,3.049-.651a3.916,3.916,0,0,0,1.22-.5c.425-.15.773-.214,1.661-.485-.831.412-1.148.613-1.537.786a3.3,3.3,0,0,0-1.218.537,28.545,28.545,0,0,1-2.608,1.708Z" fill="#fff" fill-rule="evenodd"/>
        <path id="path223" d="M15.038,8.136c.124-.071.194-.1.315-.157.149.242.359.333.526.256a.4.4,0,0,0,.213-.558c.128-.042.2-.065.341-.1.259.992.472,2.053.638,3.052a3.916,3.916,0,0,0,.5,1.222c.148.425.21.774.478,1.663-.409-.833-.608-1.15-.779-1.541a3.3,3.3,0,0,0-.531-1.22,28.561,28.561,0,0,1-1.7-2.616Z" fill="#fff" fill-rule="evenodd"/>
        <path id="path224" d="M11.884,13.431c0-.143.012-.216.021-.351.284-.009.468-.145.485-.328a.4.4,0,0,0-.377-.463c.027-.132.044-.208.082-.346.989.271,2.015.616,2.963.971a3.916,3.916,0,0,0,1.307.18c.442.084.776.2,1.679.416-.926-.062-1.3-.047-1.724-.094A3.3,3.3,0,0,0,15,13.266a28.554,28.554,0,0,1-3.113.164Z" fill="#fff" fill-rule="evenodd"/>
        <path id="path225" d="M12.111,11.855c.037-.138.067-.206.11-.334.277.064.49-.02.553-.193a.4.4,0,0,0-.246-.544c.06-.121.1-.19.168-.313.886.515,1.79,1.112,2.615,1.7a3.916,3.916,0,0,0,1.217.509c.406.195.7.4,1.517.833-.879-.3-1.245-.379-1.642-.533a3.3,3.3,0,0,0-1.24-.483,28.549,28.549,0,0,1-3.051-.639Z" fill="#fff" fill-rule="evenodd"/>
        <path id="path226" d="M12.742,10.375c.072-.124.118-.182.193-.294.25.134.478.107.584-.043a.4.4,0,0,0-.1-.589c.09-.1.142-.158.244-.259.723.727,1.44,1.538,2.086,2.317.477.574.749.555,1.044.807.342.293.571.564,1.249,1.2-.772-.515-1.1-.689-1.448-.94a3.3,3.3,0,0,0-1.073-.788,28.556,28.556,0,0,1-2.781-1.408Z" fill="#fff" fill-rule="evenodd"/>
        <path id="path227" d="M13.759,9.087c.1-.1.162-.144.264-.233.206.2.433.23.575.112a.4.4,0,0,0,.062-.594c.113-.074.179-.115.3-.186.5.892.983,1.863,1.4,2.786.309.68.575.733.794,1.054.252.373.4.694.888,1.484-.609-.7-.883-.956-1.148-1.289a3.3,3.3,0,0,0-.827-1.043,28.55,28.55,0,0,1-2.311-2.093Z" fill="#fff" fill-rule="evenodd"/>
      </g>
    </g>
  </g>
</svg>
