<svg xmlns="http://www.w3.org/2000/svg" xmlns:xlink="http://www.w3.org/1999/xlink" width="29" height="29" viewBox="0 0 29 29">
  <defs>
    <clipPath id="clip-path">
      <ellipse id="Ellipse_8" data-name="Ellipse 8" cx="13.5" cy="13.5" rx="13.5" ry="13.5" fill="#fff" stroke="#707070" stroke-width="1"/>
    </clipPath>
  </defs>
  <g id="MYR" transform="translate(-268 -449)">
    <circle id="Ellipse_49" data-name="Ellipse 49" cx="14.5" cy="14.5" r="14.5" transform="translate(268 449)" fill="#e0e0e0"/>
    <g id="Mask_Group_6" data-name="Mask Group 6" transform="translate(269 450)" clip-path="url(#clip-path)">
      <g id="mys" transform="translate(0.11)">
        <rect id="rect149" width="36" height="27" transform="translate(0.051)" fill="#e80008"/>
        <rect id="rect299" width="36" height="1.929" transform="translate(0.051 1.929)" fill="#fff"/>
        <rect id="rect300" width="36" height="1.929" transform="translate(0.051 5.786)" fill="#fff"/>
        <rect id="rect301" width="36" height="1.929" transform="translate(0.051 9.643)" fill="#fff"/>
        <rect id="rect302" width="36" height="1.929" transform="translate(0.051 13.5)" fill="#fff"/>
        <rect id="rect303" width="36" height="1.929" transform="translate(0.051 17.357)" fill="#fff"/>
        <rect id="rect304" width="36" height="1.929" transform="translate(0.051 21.214)" fill="#fff"/>
        <rect id="rect305" width="36" height="1.929" transform="translate(0.051 25.071)" fill="#fff"/>
        <rect id="rect298" width="13.791" height="7.953" fill="#000689"/>
        <g id="g4518" transform="translate(0 0.433)">
          <path id="path297" d="M7,6.327A3.024,3.024,0,0,1,2.861,5.1,3.093,3.093,0,0,1,4.1.926,2.9,2.9,0,0,1,6.937.908,2.719,2.719,0,0,0,5.458.939a2.815,2.815,0,0,0-1.874,3.48A2.75,2.75,0,0,0,7,6.327Z" fill="#fe0" fill-rule="evenodd"/>
          <path id="polygon291" d="M8.556,3.761l1.567-.89-1.245,1.3,1.8-.122-1.687.634,1.673.67L8.867,5.195l1.216,1.329L8.536,5.6l.519,1.725-.993-1.5L7.781,7.6h0L7.538,5.817,6.513,7.3l.556-1.714L5.5,6.475l1.245-1.3-1.8.122L6.636,4.66,4.963,3.99l1.795.161L5.541,2.822l1.547.923L6.57,2.02l.993,1.5.281-1.78.242,1.786L9.112,2.047Z" transform="translate(0.949 -1.141)" fill="#fe0" fill-rule="evenodd"/>
        </g>
      </g>
    </g>
  </g>
</svg>
