<svg xmlns="http://www.w3.org/2000/svg" xmlns:xlink="http://www.w3.org/1999/xlink" width="29" height="29" viewBox="0 0 29 29">
  <defs>
    <clipPath id="clip-path">
      <ellipse id="Ellipse_9" data-name="Ellipse 9" cx="13.5" cy="13.5" rx="13.5" ry="13.5" fill="#fff" stroke="#707070" stroke-width="1"/>
    </clipPath>
    <clipPath id="clip-path-2">
      <rect id="rect8675" width="36" height="27" fill="rgba(0,0,0,0.67)"/>
    </clipPath>
  </defs>
  <g id="PHP" transform="translate(-268 -509)">
    <circle id="Ellipse_50" data-name="Ellipse 50" cx="14.5" cy="14.5" r="14.5" transform="translate(268 509)" fill="#e0e0e0"/>
    <g id="Mask_Group_7" data-name="Mask Group 7" transform="translate(269 510)" clip-path="url(#clip-path)">
      <g id="phl" transform="translate(-6.865)" clip-path="url(#clip-path-2)">
        <g id="g8587" transform="translate(2.25)">
          <rect id="rect149" width="40.5" height="27" transform="translate(-2.25)" fill="#f50013"/>
          <rect id="rect280" width="40.5" height="13.5" transform="translate(-2.25)" fill="#00189a"/>
          <path id="path279" d="M-2.25,0,20.99,13.483-2.25,26.948V0Z" fill="#feffff" fill-rule="evenodd"/>
          <path id="path205" d="M-1.149,24.587l.237-1.04-.934-.516L-.76,22.9l.247-1.038.434.956,1.087-.126-.817.727.425.961-.939-.507-.824.719Z" fill="#eca300" fill-rule="evenodd"/>
          <path id="path425" d="M3.794,11.166,2.96,9.734l-.48-.054L3.623,11.3l.172-.135Zm-.647.656L1.393,10.473l-.063-.785.709-.024,1.45,1.773-.342.386Zm-.266.309-1.443-.815-.061-.479,1.637,1.12-.133.173Z" fill="#eca300" fill-rule="evenodd"/>
          <path id="path426" d="M5.858,10.871l.435-1.6L6,8.893l-.354,1.951.217.027Zm-.922,0-.269-2.2.516-.6.515.488-.246,2.277-.515.027Zm-.407.027L4.1,9.3l.3-.379.35,1.952-.217.027Z" fill="#eca300" fill-rule="evenodd"/>
          <path id="path427" d="M7.53,12.161l1.453-.8.067-.478L7.4,11.986l.131.175ZM6.891,11.5,8.286,9.779l.787-.042.005.709-1.81,1.4L6.891,11.5Zm-.3-.274L7.442,9.8l.48-.048L6.76,11.36l-.17-.137Z" fill="#eca300" fill-rule="evenodd"/>
          <path id="path428" d="M7.789,14.164l1.6.436.38-.3-1.951-.355-.027.217Zm0-.922,2.2-.268.6.516-.489.514-2.277-.247-.026-.515Zm-.027-.407,1.6-.431.379.3-1.952.349-.027-.217Z" fill="#eca300" fill-rule="evenodd"/>
          <path id="path429" d="M6.572,15.794l.84,1.428.48.052L6.743,15.658l-.171.136Zm.644-.659,1.759,1.341.066.785-.709.027L6.875,15.522l.341-.387Zm.265-.31,1.447.808.063.479L7.349,15l.132-.174Z" fill="#eca300" fill-rule="evenodd"/>
          <path id="path430" d="M4.515,16.1l-.424,1.6.3.378.341-1.954L4.515,16.1Zm.922-.005.284,2.194-.512.6L4.692,18.4l.231-2.278.515-.03Zm.406-.03.443,1.6-.3.381-.364-1.95.217-.028Z" fill="#eca300" fill-rule="evenodd"/>
          <path id="path431" d="M2.847,14.843l-1.44.819-.059.479L2.98,15.016l-.134-.173Zm.65.654-1.367,1.74-.786.055-.017-.709L3.114,15.15,3.5,15.5Zm.306.269L2.973,17.2l-.479.056L3.63,15.631l.172.135Z" fill="#eca300" fill-rule="evenodd"/>
          <path id="path432" d="M2.562,12.819l-1.6-.425-.378.3,1.954.342.026-.217Zm.005.922-2.194.283-.6-.512.485-.518,2.278.231.03.515Zm.029.406L1,14.59l-.381-.3,1.95-.363.028.217Z" fill="#eca300" fill-rule="evenodd"/>
          <path id="path433" d="M16.972,14.893l-.618-.869-1.007.353.622-.9-.61-.876,1,.313.63-.894,0,1.094,1,.323-1,.363-.012,1.094Z" fill="#eca300" fill-rule="evenodd"/>
          <path id="path434" d="M-.554,5.182-.746,4.133l-1.062-.107.945-.552-.182-1.052.776.708L.68,2.587l-.465.99.768.716L-.08,4.2l-.474.986Z" fill="#eca300" fill-rule="evenodd"/>
          <circle id="path418" cx="2.782" cy="2.782" r="2.782" transform="translate(2.395 10.7)" fill="#eca300"/>
        </g>
      </g>
    </g>
  </g>
</svg>
