<svg xmlns="http://www.w3.org/2000/svg" xmlns:xlink="http://www.w3.org/1999/xlink" width="29" height="29" viewBox="0 0 29 29">
  <defs>
    <clipPath id="clip-path">
      <ellipse id="Ellipse_2" data-name="Ellipse 2" cx="13.5" cy="13.5" rx="13.5" ry="13.5" fill="#fff" stroke="#707070" stroke-width="1"/>
    </clipPath>
  </defs>
  <g id="AUD" transform="translate(-268 -89)">
    <circle id="Ellipse_43" data-name="Ellipse 43" cx="14.5" cy="14.5" r="14.5" transform="translate(268 89)" fill="#e0e0e0"/>
    <g id="Group_1" data-name="Group 1" transform="translate(269 90)" clip-path="url(#clip-path)">
      <g id="aus" transform="translate(-2.865)">
        <rect id="rect124" width="36" height="27" fill="#006"/>
        <g id="g584">
          <path id="path146" d="M0,0V1.572l17.271,12.49h2.174V12.49L2.174,0H0ZM19.445,0V1.572L2.174,14.062H0V12.49L17.271,0Z" fill="#fff"/>
          <path id="path136" d="M8.1,0V14.062h3.241V0ZM0,4.687V9.375H19.445V4.687Z" fill="#fff"/>
          <path id="path141" d="M0,5.625V8.437H19.445V5.625ZM8.75,0V14.062h1.944V0Z" fill="#c00"/>
          <path id="path150" d="M0,14.062,6.482,9.375H7.931L1.449,14.062ZM0,0,6.482,4.687H5.032L0,1.048V0ZM11.514,4.687,18,0h1.449L12.963,4.687Zm7.931,9.375L12.963,9.375h1.449l5.032,3.639Z" fill="#c00"/>
        </g>
        <g id="g3045" transform="translate(0.076 -2.123)">
          <path id="polygon589" d="M16.86,20.438l-2.455.214.338,2.442-1.7-1.787-1.7,1.787.338-2.442L9.23,20.438l2.119-1.258L9.985,17.127l2.3.873.755-2.346h0L13.8,18l2.3-.873L14.741,19.18Z" transform="translate(-0.075 3.764)" fill="#fff" fill-rule="evenodd"/>
          <g id="g596" transform="translate(-7.675 6.786)">
            <path id="polygon590" d="M34.966,19.667l-.593-.892,1,.379.328-1.02h0l.328,1.02,1-.379-.593.892.921.547-1.067.093.147,1.06-.738-.776-.738.776.147-1.06-1.067-.093Z" fill="#fff" fill-rule="evenodd"/>
            <path id="polygon592" d="M34.966,3.8l-.593-.892,1,.379L35.7,2.267h0l.328,1.019,1-.379-.593.892.921.547-1.067.093.147,1.06L35.7,4.723l-.738.776.147-1.06-1.067-.093Z" fill="#fff" fill-rule="evenodd"/>
            <path id="polygon593" d="M29.016,10.245l-.593-.892,1,.379.328-1.02h0l.328,1.02,1-.379-.593.892.921.547-1.067.093.147,1.06-.738-.776-.738.776.147-1.06-1.067-.093Z" fill="#fff" fill-rule="evenodd"/>
            <path id="polygon594" d="M40.257,8.658l-.594-.892,1,.379.325-1.02h0l.329,1.02,1-.379-.591.892.92.547L41.582,9.3l.147,1.06-.738-.776-.738.776L40.4,9.3,39.335,9.2Z" fill="#fff" fill-rule="evenodd"/>
            <path id="polygon595" d="M38.083,13.333l-.583.361.164-.666-.524-.442.684-.05.259-.635h0l.259.635.684.05-.524.442.164.666Z" fill="#fff" fill-rule="evenodd"/>
          </g>
        </g>
      </g>
    </g>
  </g>
</svg>
