<svg xmlns="http://www.w3.org/2000/svg" xmlns:xlink="http://www.w3.org/1999/xlink" width="87" height="87" viewBox="0 0 87 87"><defs><style>.a,.c{fill:#fff;}.a{stroke:#707070;}.b{fill:rgba(0,0,0,0.67);}.d{clip-path:url(#c);}.e{clip-path:url(#d);}.f{fill:#bf0a30;}.g{filter:url(#a);}</style><filter id="a" x="0" y="0" width="87" height="87" filterUnits="userSpaceOnUse"><feOffset dy="3" input="SourceAlpha"/><feGaussianBlur stdDeviation="10" result="b"/><feFlood flood-opacity="0.051"/><feComposite operator="in" in2="b"/><feComposite in="SourceGraphic"/></filter><clipPath id="c"><ellipse class="a" cx="13.5" cy="13.5" rx="13.5" ry="13.5"/></clipPath><clipPath id="d"><rect class="b" width="36" height="27" transform="translate(-4.169)"/></clipPath></defs><g transform="translate(-81 -123)"><g class="g" transform="matrix(1, 0, 0, 1, 81, 123)"><ellipse class="c" cx="13.5" cy="13.5" rx="13.5" ry="13.5" transform="translate(30 27)"/></g><g class="d" transform="translate(111 150)"><g class="e" transform="translate(-0.696)"><g transform="translate(4.207)"><rect class="c" width="19.104" height="27" transform="translate(0.072)"/><rect class="f" width="9.552" height="27" transform="translate(-9.481)"/><rect class="f" width="9.552" height="27" transform="translate(19.176)"/></g><path class="f" d="M7.135,13.047l-.742.254L9.845,16.33c.261.779-.091,1.008-.315,1.416l3.747-.476-.1,3.771.776-.022-.169-3.74,3.751.445a1.727,1.727,0,0,1-.224-1.534l3.45-2.87-.6-.219c-.494-.381.213-1.834.32-2.752,0,0-2.014.693-2.146.33l-.513-.985-1.832,2.013c-.2.048-.285-.032-.332-.2L16.5,7.3l-1.34.754a.227.227,0,0,1-.3-.124L13.574,5.343,12.245,8.03a.2.2,0,0,1-.284.042l-1.276-.716.766,4.174a.242.242,0,0,1-.379.123L9.321,9.662c-.229.367-.384.967-.687,1.1a6.985,6.985,0,0,1-2-.4c.232.838.958,2.231.5,2.687Z"/></g></g></g></svg>