<svg xmlns="http://www.w3.org/2000/svg" xmlns:xlink="http://www.w3.org/1999/xlink" width="87" height="87" viewBox="0 0 87 87"><defs><style>.a,.c{fill:#fff;}.a{stroke:#707070;}.b{fill:rgba(0,0,0,0.67);}.d{clip-path:url(#c);}.e{clip-path:url(#d);}.f{fill:#006;}.g{fill:#c00;}.h{filter:url(#a);}</style><filter id="a" x="0" y="0" width="87" height="87" filterUnits="userSpaceOnUse"><feOffset dy="3" input="SourceAlpha"/><feGaussianBlur stdDeviation="10" result="b"/><feFlood flood-opacity="0.051"/><feComposite operator="in" in2="b"/><feComposite in="SourceGraphic"/></filter><clipPath id="c"><ellipse class="a" cx="13.5" cy="13.5" rx="13.5" ry="13.5"/></clipPath><clipPath id="d"><rect class="b" width="36" height="27" transform="translate(-4.5)"/></clipPath></defs><g transform="translate(-239 -243)"><g class="h" transform="matrix(1, 0, 0, 1, 239, 243)"><ellipse class="c" cx="13.5" cy="13.5" rx="13.5" ry="13.5" transform="translate(30 27)"/></g><g class="d" transform="translate(269 270)"><g class="e" transform="translate(-0.365)"><g transform="translate(-13.5)"><rect class="f" width="54.001" height="27.001"/><path class="c" d="M0,0V3.019L47.964,27H54V23.982L6.037,0H0ZM54,0V3.019L6.037,27H0V23.982L47.964,0Z"/><path class="c" d="M22.5,0V27h9V0ZM0,9v9H54V9Z"/><path class="g" d="M0,10.8v5.4H54V10.8ZM24.3,0V27h5.4V0Z"/><path class="g" d="M0,27l18-9h4.025l-18,9ZM0,0,18,9H13.975L0,2.013V0ZM31.976,9l18-9H54L36,9ZM54,27,36,18h4.025L54,24.988Z"/></g></g></g></g></svg>