<svg xmlns="http://www.w3.org/2000/svg" xmlns:xlink="http://www.w3.org/1999/xlink" width="29" height="29" viewBox="0 0 29 29">
  <defs>
    <clipPath id="clip-path">
      <ellipse id="Ellipse_16" data-name="Ellipse 16" cx="13.5" cy="13.5" rx="13.5" ry="13.5" fill="#fff" stroke="#707070" stroke-width="1"/>
    </clipPath>
    <clipPath id="clip-path-2">
      <rect id="rect3397" width="36" height="27" transform="translate(-4.696)" fill="rgba(0,0,0,0.67)"/>
    </clipPath>
  </defs>
  <g id="HKD" transform="translate(-426 -269)">
    <circle id="Ellipse_57" data-name="Ellipse 57" cx="14.5" cy="14.5" r="14.5" transform="translate(426 269)" fill="#e0e0e0"/>
    <g id="Mask_Group_12" data-name="Mask Group 12" transform="translate(427 270)" clip-path="url(#clip-path)">
      <g id="hkg" transform="translate(0.831)" clip-path="url(#clip-path-2)">
        <rect id="rect148" width="38.572" height="27" transform="translate(32.59 27) rotate(180)" fill="#ba0000"/>
        <g id="g694" transform="translate(-6.502 0.24)">
          <g id="g669" transform="translate(0.227 -0.136)">
            <path id="path573" d="M19.03,12.964A4.073,4.073,0,0,1,16.7,8.755a4.076,4.076,0,0,1,2.256-3,8.107,8.107,0,0,1,1.739-.3,1.278,1.278,0,0,0-.353.479,1.119,1.119,0,0,0,.139.97A2.8,2.8,0,0,1,20.87,8.15,1.932,1.932,0,0,1,20.1,9.927c-.349.269-.76.361-1.1.668a1.489,1.489,0,0,0-.479.958,1.876,1.876,0,0,0,.5,1.412Z" fill="#fff" fill-rule="evenodd"/>
            <path id="path574" d="M18.513,8.57V8.557" fill="#ba0000" stroke="#000" stroke-width="0.113" fill-rule="evenodd"/>
            <path id="path575" d="M18.685,12.649a3.334,3.334,0,0,1-.16-4.079" fill="none" stroke="#ba0000" stroke-width="0.113"/>
            <path id="polygon638" d="M19.176,8.043l.174.291h0L19.027,8.2l-.241.259.042-.34L18.5,7.99l.349-.079.041-.34.173.291.349-.079Z" fill="#ba0000" fill-rule="evenodd"/>
          </g>
          <g id="g674" transform="translate(26.307 -9.366) rotate(72.961)">
            <path id="path675" d="M19.03,12.964A4.073,4.073,0,0,1,16.7,8.755a4.076,4.076,0,0,1,2.256-3,8.107,8.107,0,0,1,1.739-.3,1.278,1.278,0,0,0-.353.479,1.119,1.119,0,0,0,.139.97A2.8,2.8,0,0,1,20.87,8.15,1.932,1.932,0,0,1,20.1,9.927c-.349.269-.76.361-1.1.668a1.489,1.489,0,0,0-.479.958,1.876,1.876,0,0,0,.5,1.412Z" fill="#fff" fill-rule="evenodd"/>
            <path id="path676" d="M18.513,8.57V8.557" fill="#ba0000" stroke="#000" stroke-width="0.113" fill-rule="evenodd"/>
            <path id="path677" d="M18.685,12.649a3.334,3.334,0,0,1-.16-4.079" fill="none" stroke="#ba0000" stroke-width="0.113"/>
            <path id="polygon678" d="M19.176,8.043l.174.291h0L19.027,8.2l-.241.259.042-.34L18.5,7.99l.349-.079.041-.34.173.291.349-.079Z" fill="#ba0000" fill-rule="evenodd"/>
          </g>
          <g id="g679" transform="matrix(-0.814, 0.582, -0.582, -0.814, 42.712, 12.321)">
            <path id="path680" d="M19.03,12.964A4.073,4.073,0,0,1,16.7,8.755a4.076,4.076,0,0,1,2.256-3,8.107,8.107,0,0,1,1.739-.3,1.278,1.278,0,0,0-.353.479,1.119,1.119,0,0,0,.139.97A2.8,2.8,0,0,1,20.87,8.15,1.932,1.932,0,0,1,20.1,9.927c-.349.269-.76.361-1.1.668a1.489,1.489,0,0,0-.479.958,1.875,1.875,0,0,0,.5,1.411Z" fill="#fff" fill-rule="evenodd"/>
            <path id="path681" d="M18.513,8.57V8.557" fill="#ba0000" stroke="#000" stroke-width="0.113" fill-rule="evenodd"/>
            <path id="path682" d="M18.685,12.649a3.334,3.334,0,0,1-.16-4.079" fill="none" stroke="#ba0000" stroke-width="0.113"/>
            <path id="polygon683" d="M19.175,8.043l.174.291h0L19.027,8.2l-.241.259.042-.34L18.5,7.99l.349-.079.041-.34.173.291.349-.079Z" fill="#ba0000" fill-rule="evenodd"/>
          </g>
          <g id="g684" transform="matrix(-0.787, -0.618, 0.618, -0.787, 26.589, 35.087)">
            <path id="path685" d="M19.03,12.964A4.073,4.073,0,0,1,16.7,8.755a4.076,4.076,0,0,1,2.256-3,8.107,8.107,0,0,1,1.739-.3,1.278,1.278,0,0,0-.353.479,1.119,1.119,0,0,0,.139.97A2.8,2.8,0,0,1,20.87,8.15,1.932,1.932,0,0,1,20.1,9.927c-.349.269-.76.361-1.1.668a1.489,1.489,0,0,0-.479.958,1.875,1.875,0,0,0,.5,1.412Z" fill="#fff" fill-rule="evenodd"/>
            <path id="path686" d="M18.513,8.57V8.557" fill="#ba0000" stroke="#000" stroke-width="0.113" fill-rule="evenodd"/>
            <path id="path687" d="M18.685,12.649a3.334,3.334,0,0,1-.16-4.079" fill="none" stroke="#ba0000" stroke-width="0.113"/>
            <path id="polygon688" d="M19.176,8.043l.174.291h0L19.027,8.2l-.241.259.042-.34L18.5,7.99l.349-.079.041-.34.173.291.349-.079Z" fill="#ba0000" fill-rule="evenodd"/>
          </g>
          <g id="g689" transform="translate(0.918 26.942) rotate(-71.272)">
            <path id="path690" d="M19.03,12.964A4.073,4.073,0,0,1,16.7,8.755a4.076,4.076,0,0,1,2.256-3,8.107,8.107,0,0,1,1.739-.3,1.278,1.278,0,0,0-.353.479,1.119,1.119,0,0,0,.139.97A2.8,2.8,0,0,1,20.87,8.15,1.932,1.932,0,0,1,20.1,9.927c-.349.269-.76.361-1.1.668a1.489,1.489,0,0,0-.479.958,1.875,1.875,0,0,0,.5,1.411Z" fill="#fff" fill-rule="evenodd"/>
            <path id="path691" d="M18.513,8.57V8.557" fill="#ba0000" stroke="#000" stroke-width="0.113" fill-rule="evenodd"/>
            <path id="path692" d="M18.685,12.649a3.334,3.334,0,0,1-.16-4.079" fill="none" stroke="#ba0000" stroke-width="0.113"/>
            <path id="polygon693" d="M19.175,8.043l.174.291h0L19.027,8.2l-.241.259.042-.34L18.5,7.99l.349-.079.041-.34.173.291.349-.079Z" fill="#ba0000" fill-rule="evenodd"/>
          </g>
        </g>
      </g>
    </g>
  </g>
</svg>
