<svg xmlns="http://www.w3.org/2000/svg" xmlns:xlink="http://www.w3.org/1999/xlink" width="87" height="87" viewBox="0 0 87 87"><defs><style>.a,.c,.g{fill:#fff;}.a{stroke:#707070;}.b{fill:rgba(0,0,0,0.67);}.d{clip-path:url(#c);}.e{clip-path:url(#d);}.f,.h,.j,.k,.m,.o,.q{fill:#ba0000;}.g,.h,.j,.k,.m,.o,.q{fill-rule:evenodd;}.h,.k,.m,.o,.q{stroke:#000;}.h,.i{stroke-width:0.113px;}.i,.l,.n,.p,.r{fill:none;stroke:#ba0000;}.k,.l{stroke-width:0.113px;}.m,.n{stroke-width:0.113px;}.o,.p{stroke-width:0.113px;}.q,.r{stroke-width:0.113px;}.s{filter:url(#a);}</style><filter id="a" x="0" y="0" width="87" height="87" filterUnits="userSpaceOnUse"><feOffset dy="3" input="SourceAlpha"/><feGaussianBlur stdDeviation="10" result="b"/><feFlood flood-opacity="0.051"/><feComposite operator="in" in2="b"/><feComposite in="SourceGraphic"/></filter><clipPath id="c"><ellipse class="a" cx="13.5" cy="13.5" rx="13.5" ry="13.5"/></clipPath><clipPath id="d"><rect class="b" width="36" height="27" transform="translate(-4.696)"/></clipPath></defs><g transform="translate(-397 -243)"><g class="s" transform="matrix(1, 0, 0, 1, 397, 243)"><ellipse class="c" cx="13.5" cy="13.5" rx="13.5" ry="13.5" transform="translate(30 27)"/></g><g class="d" transform="translate(427 270)"><g class="e" transform="translate(0.831)"><rect class="f" width="38.572" height="27" transform="translate(32.59 27) rotate(180)"/><g transform="translate(-6.502 0.24)"><g transform="translate(0.227 -0.136)"><path class="g" d="M19.03,12.964A4.073,4.073,0,0,1,16.7,8.755a4.076,4.076,0,0,1,2.256-3,8.107,8.107,0,0,1,1.739-.3,1.278,1.278,0,0,0-.353.479,1.119,1.119,0,0,0,.139.97A2.8,2.8,0,0,1,20.87,8.15,1.932,1.932,0,0,1,20.1,9.927c-.349.269-.76.361-1.1.668a1.489,1.489,0,0,0-.479.958,1.876,1.876,0,0,0,.5,1.412Z"/><path class="h" d="M18.513,8.57V8.557"/><path class="i" d="M18.685,12.649a3.334,3.334,0,0,1-.16-4.079"/><path class="j" d="M19.176,8.043l.174.291h0L19.027,8.2l-.241.259.042-.34L18.5,7.99l.349-.079.041-.34.173.291.349-.079Z"/></g><g transform="translate(26.307 -9.366) rotate(72.961)"><path class="g" d="M19.03,12.964A4.073,4.073,0,0,1,16.7,8.755a4.076,4.076,0,0,1,2.256-3,8.107,8.107,0,0,1,1.739-.3,1.278,1.278,0,0,0-.353.479,1.119,1.119,0,0,0,.139.97A2.8,2.8,0,0,1,20.87,8.15,1.932,1.932,0,0,1,20.1,9.927c-.349.269-.76.361-1.1.668a1.489,1.489,0,0,0-.479.958,1.876,1.876,0,0,0,.5,1.412Z"/><path class="k" d="M18.513,8.57V8.557"/><path class="l" d="M18.685,12.649a3.334,3.334,0,0,1-.16-4.079"/><path class="j" d="M19.176,8.043l.174.291h0L19.027,8.2l-.241.259.042-.34L18.5,7.99l.349-.079.041-.34.173.291.349-.079Z"/></g><g transform="matrix(-0.814, 0.582, -0.582, -0.814, 42.712, 12.321)"><path class="g" d="M19.03,12.964A4.073,4.073,0,0,1,16.7,8.755a4.076,4.076,0,0,1,2.256-3,8.107,8.107,0,0,1,1.739-.3,1.278,1.278,0,0,0-.353.479,1.119,1.119,0,0,0,.139.97A2.8,2.8,0,0,1,20.87,8.15,1.932,1.932,0,0,1,20.1,9.927c-.349.269-.76.361-1.1.668a1.489,1.489,0,0,0-.479.958,1.875,1.875,0,0,0,.5,1.411Z"/><path class="m" d="M18.513,8.57V8.557"/><path class="n" d="M18.685,12.649a3.334,3.334,0,0,1-.16-4.079"/><path class="j" d="M19.175,8.043l.174.291h0L19.027,8.2l-.241.259.042-.34L18.5,7.99l.349-.079.041-.34.173.291.349-.079Z"/></g><g transform="matrix(-0.787, -0.618, 0.618, -0.787, 26.589, 35.087)"><path class="g" d="M19.03,12.964A4.073,4.073,0,0,1,16.7,8.755a4.076,4.076,0,0,1,2.256-3,8.107,8.107,0,0,1,1.739-.3,1.278,1.278,0,0,0-.353.479,1.119,1.119,0,0,0,.139.97A2.8,2.8,0,0,1,20.87,8.15,1.932,1.932,0,0,1,20.1,9.927c-.349.269-.76.361-1.1.668a1.489,1.489,0,0,0-.479.958,1.875,1.875,0,0,0,.5,1.412Z"/><path class="o" d="M18.513,8.57V8.557"/><path class="p" d="M18.685,12.649a3.334,3.334,0,0,1-.16-4.079"/><path class="j" d="M19.176,8.043l.174.291h0L19.027,8.2l-.241.259.042-.34L18.5,7.99l.349-.079.041-.34.173.291.349-.079Z"/></g><g transform="translate(0.918 26.942) rotate(-71.272)"><path class="g" d="M19.03,12.964A4.073,4.073,0,0,1,16.7,8.755a4.076,4.076,0,0,1,2.256-3,8.107,8.107,0,0,1,1.739-.3,1.278,1.278,0,0,0-.353.479,1.119,1.119,0,0,0,.139.97A2.8,2.8,0,0,1,20.87,8.15,1.932,1.932,0,0,1,20.1,9.927c-.349.269-.76.361-1.1.668a1.489,1.489,0,0,0-.479.958,1.875,1.875,0,0,0,.5,1.411Z"/><path class="q" d="M18.513,8.57V8.557"/><path class="r" d="M18.685,12.649a3.334,3.334,0,0,1-.16-4.079"/><path class="j" d="M19.175,8.043l.174.291h0L19.027,8.2l-.241.259.042-.34L18.5,7.99l.349-.079.041-.34.173.291.349-.079Z"/></g></g></g></g></g></svg>