<svg xmlns="http://www.w3.org/2000/svg" xmlns:xlink="http://www.w3.org/1999/xlink" width="87" height="87" viewBox="0 0 87 87"><defs><style>.a,.b{fill:#fff;}.a{stroke:#707070;}.c{clip-path:url(#c);}.d{fill:#e80008;}.e{fill:#000689;}.f{fill:#fe0;fill-rule:evenodd;}.g{filter:url(#a);}</style><filter id="a" x="0" y="0" width="87" height="87" filterUnits="userSpaceOnUse"><feOffset dy="3" input="SourceAlpha"/><feGaussianBlur stdDeviation="10" result="b"/><feFlood flood-opacity="0.051"/><feComposite operator="in" in2="b"/><feComposite in="SourceGraphic"/></filter><clipPath id="c"><ellipse class="a" cx="13.5" cy="13.5" rx="13.5" ry="13.5"/></clipPath></defs><g transform="translate(-239 -423)"><g class="g" transform="matrix(1, 0, 0, 1, 239, 423)"><ellipse class="b" cx="13.5" cy="13.5" rx="13.5" ry="13.5" transform="translate(30 27)"/></g><g class="c" transform="translate(269 450)"><g transform="translate(0.11)"><rect class="d" width="36" height="27" transform="translate(0.051)"/><rect class="b" width="36" height="1.929" transform="translate(0.051 1.929)"/><rect class="b" width="36" height="1.929" transform="translate(0.051 5.786)"/><rect class="b" width="36" height="1.929" transform="translate(0.051 9.643)"/><rect class="b" width="36" height="1.929" transform="translate(0.051 13.5)"/><rect class="b" width="36" height="1.929" transform="translate(0.051 17.357)"/><rect class="b" width="36" height="1.929" transform="translate(0.051 21.214)"/><rect class="b" width="36" height="1.929" transform="translate(0.051 25.071)"/><rect class="e" width="13.791" height="7.953"/><g transform="translate(0 0.433)"><path class="f" d="M7,6.327A3.024,3.024,0,0,1,2.861,5.1,3.093,3.093,0,0,1,4.1.926,2.9,2.9,0,0,1,6.937.908,2.719,2.719,0,0,0,5.458.939a2.815,2.815,0,0,0-1.874,3.48A2.75,2.75,0,0,0,7,6.327Z"/><path class="f" d="M8.556,3.761l1.567-.89-1.245,1.3,1.8-.122-1.687.634,1.673.67L8.867,5.195l1.216,1.329L8.536,5.6l.519,1.725-.993-1.5L7.781,7.6h0L7.538,5.817,6.513,7.3l.556-1.714L5.5,6.475l1.245-1.3-1.8.122L6.636,4.66,4.963,3.99l1.795.161L5.541,2.822l1.547.923L6.57,2.02l.993,1.5.281-1.78.242,1.786L9.112,2.047Z" transform="translate(0.949 -1.141)"/></g></g></g></g></svg>