<svg xmlns="http://www.w3.org/2000/svg" xmlns:xlink="http://www.w3.org/1999/xlink" width="87" height="87" viewBox="0 0 87 87"><defs><style>.a,.b,.e{fill:#fff;}.a{stroke:#707070;}.c{clip-path:url(#c);}.d{fill:#00006a;}.e,.f{fill-rule:evenodd;}.f,.g{fill:red;}.h{filter:url(#a);}</style><filter id="a" x="0" y="0" width="87" height="87" filterUnits="userSpaceOnUse"><feOffset dy="3" input="SourceAlpha"/><feGaussianBlur stdDeviation="10" result="b"/><feFlood flood-opacity="0.051"/><feComposite operator="in" in2="b"/><feComposite in="SourceGraphic"/></filter><clipPath id="c"><ellipse class="a" cx="13.5" cy="13.5" rx="13.5" ry="13.5"/></clipPath></defs><g transform="translate(-81 -483)"><g class="h" transform="matrix(1, 0, 0, 1, 81, 483)"><ellipse class="b" cx="13.5" cy="13.5" rx="13.5" ry="13.5" transform="translate(30 27)"/></g><g class="c" transform="translate(111 510)"><g transform="translate(-1.865 0)"><rect class="d" width="36" height="27" transform="translate(0)"/><g transform="translate(0 -0.077)"><path class="e" d="M2.251,9.813,20.194,26.932h3.681L6.319,9.821,2.251,9.813Z" transform="translate(-2.251 -9.736)"/><path class="f" d="M3.68,10,21.248,27.118l1.367-.021L4.974,10H3.68Z" transform="translate(23.959 27.196) rotate(180)"/><path class="e" d="M2.251-9.813,20.194-26.932h3.681L6.319-9.821l-4.068.008Z" transform="translate(23.875 -9.736) rotate(180)"/><path class="f" d="M3.678-10,21.239-27.118h1.367L4.972-10H3.679Z" transform="translate(23.954 -9.922) rotate(180)"/><rect class="b" width="3.46" height="17.119" transform="translate(9.082 0.078)"/><rect class="b" width="21.623" height="3.424" transform="translate(0 6.925)"/><rect class="g" width="1.946" height="17.119" transform="translate(9.839 0.078)"/><rect class="g" width="21.623" height="1.712" transform="translate(0 7.781)"/></g><g transform="translate(3.304 4.722)"><g transform="translate(0 0)"><path class="e" d="M25.946,5.464l-1.1-.814L23.7,5.405l.43-1.3-1.067-.858,1.367.008.482-1.285.415,1.309,1.365.064-1.11.8Z" transform="translate(0 -0.099)"/><path class="f" d="M25.553,4.575l-.673-.439-.643.482.207-.779-.655-.466.8-.043.238-.77.288.753.8-.01-.623.508Z" transform="matrix(0.999, 0.049, -0.048, 0.999, 0.202, -1.105)"/></g><g transform="translate(-4.226 7.015)"><path class="e" d="M25.946,5.464l-1.1-.814L23.7,5.405l.43-1.3-1.067-.858,1.367.008.482-1.285.415,1.309,1.365.064-1.11.8Z" transform="translate(0 -0.099)"/><path class="f" d="M25.553,4.575l-.673-.439-.643.482.207-.779-.655-.466.8-.043.238-.77.288.753.8-.01-.623.508Z" transform="matrix(0.999, 0.049, -0.048, 0.999, 0.202, -1.105)"/></g><g transform="translate(4.423 6.324)"><path class="e" d="M25.946,5.464l-1.1-.814L23.7,5.405l.43-1.3-1.067-.858,1.367.008.482-1.285.415,1.309,1.365.064-1.11.8Z" transform="translate(0 -0.099)"/><path class="f" d="M25.553,4.575l-.673-.439-.643.482.207-.779-.655-.466.8-.043.238-.77.288.753.8-.01-.623.508Z" transform="matrix(0.999, 0.049, -0.048, 0.999, 0.202, -1.105)"/></g><g transform="translate(-0.098 16.304)"><path class="e" d="M25.946,5.464l-1.1-.814L23.7,5.405l.43-1.3-1.067-.858,1.367.008.482-1.285.415,1.309,1.365.064-1.11.8Z" transform="translate(0 -0.099)"/><path class="f" d="M25.553,4.575l-.673-.439-.643.482.207-.779-.655-.466.8-.043.238-.77.288.753.8-.01-.623.508Z" transform="matrix(0.999, 0.049, -0.048, 0.999, 0.202, -1.105)"/></g></g></g></g></g></svg>