<svg xmlns="http://www.w3.org/2000/svg" xmlns:xlink="http://www.w3.org/1999/xlink" width="87" height="87" viewBox="0 0 87 87"><defs><style>.a,.c,.g{fill:#fff;}.a{stroke:#707070;}.b{fill:rgba(0,0,0,0.67);}.d{clip-path:url(#c);}.e{clip-path:url(#d);}.f{fill:#0c590b;}.g{fill-rule:evenodd;}.h{filter:url(#a);}</style><filter id="a" x="0" y="0" width="87" height="87" filterUnits="userSpaceOnUse"><feOffset dy="3" input="SourceAlpha"/><feGaussianBlur stdDeviation="10" result="b"/><feFlood flood-opacity="0.051"/><feComposite operator="in" in2="b"/><feComposite in="SourceGraphic"/></filter><clipPath id="c"><ellipse class="a" cx="13.5" cy="13.5" rx="13.5" ry="13.5"/></clipPath><clipPath id="d"><rect class="b" width="36" height="27" transform="translate(-2.76)"/></clipPath></defs><g transform="translate(-397 -483)"><g class="h" transform="matrix(1, 0, 0, 1, 397, 483)"><ellipse class="c" cx="13.5" cy="13.5" rx="13.5" ry="13.5" transform="translate(30 27)"/></g><g class="d" transform="translate(427 510)"><g class="e" transform="translate(0.895)"><rect class="f" width="40.5" height="27" transform="translate(-5.01 0)"/><rect class="c" width="10.152" height="27" transform="translate(-5.01)"/><g transform="translate(0.059 2.907)"><path class="g" d="M21.23,8.979l-1.643-.346-.864,1.44L18.543,8.4l-1.637-.377L18.44,7.34l-.147-1.673,1.126,1.246,1.546-.657-.837,1.456,1.1,1.267Z"/><path class="g" d="M21.85,13.234A6.423,6.423,0,1,1,10.2,7.813a6.253,6.253,0,0,1,3.769-3.391A8.234,8.234,0,0,0,13.349,5a5.918,5.918,0,1,0,8.5,8.237Z"/></g></g></g></g></svg>