<svg xmlns="http://www.w3.org/2000/svg" xmlns:xlink="http://www.w3.org/1999/xlink" width="87" height="87" viewBox="0 0 87 87"><defs><style>.a,.b,.f{fill:#fff;}.a{stroke:#707070;}.c{clip-path:url(#c);}.d{fill:#f31930;}.e{fill:none;stroke:#000;stroke-width:0.055px;}.f,.g{fill-rule:evenodd;}.g{fill:#f31830;}.h{filter:url(#a);}</style><filter id="a" x="0" y="0" width="87" height="87" filterUnits="userSpaceOnUse"><feOffset dy="3" input="SourceAlpha"/><feGaussianBlur stdDeviation="10" result="b"/><feFlood flood-opacity="0.051"/><feComposite operator="in" in2="b"/><feComposite in="SourceGraphic"/></filter><clipPath id="c"><ellipse class="a" cx="13.5" cy="13.5" rx="13.5" ry="13.5"/></clipPath></defs><g transform="translate(-397 -603)"><g class="h" transform="matrix(1, 0, 0, 1, 397, 603)"><ellipse class="b" cx="13.5" cy="13.5" rx="13.5" ry="13.5" transform="translate(30 27)"/></g><g class="c" transform="translate(427 630)"><g transform="translate(-4.865)"><rect class="d" width="36" height="27"/><g transform="translate(7.426 0.408)"><path class="e" d="M20.743,11.635"/><path class="f" d="M6.712,16.484A6.8,6.8,0,0,1-.148,23.228a6.8,6.8,0,0,1-6.861-6.744A6.8,6.8,0,0,1-.148,9.741,6.8,6.8,0,0,1,6.712,16.484Z" transform="translate(8.754 -2.972)"/><path class="g" d="M-1.08,10.593a5.442,5.442,0,0,1-5.489,5.395,5.442,5.442,0,0,1-5.489-5.395A5.442,5.442,0,0,1-6.568,5.2,5.442,5.442,0,0,1-1.08,10.593Z" transform="translate(16.89 2.92)"/><path class="f" d="M16.8,10.362l-.055,2.493-2.326.631,2.293.816-.055,2.286,1.5-1.785,2.259.784-1.307-1.916L20.7,11.767l-2.448.675L16.8,10.362Z"/></g></g></g></g></svg>