<svg xmlns="http://www.w3.org/2000/svg" xmlns:xlink="http://www.w3.org/1999/xlink" width="87" height="87" viewBox="0 0 87 87"><defs><style>.a,.c,.h{fill:#fff;}.a{stroke:#707070;}.b{fill:rgba(0,0,0,0.67);}.d{clip-path:url(#c);}.e{clip-path:url(#d);}.f{fill:#de2110;}.g{fill:#08399c;}.h,.i{fill-rule:evenodd;}.i{fill:#005387;}.j{filter:url(#a);}</style><filter id="a" x="0" y="0" width="87" height="87" filterUnits="userSpaceOnUse"><feOffset dy="3" input="SourceAlpha"/><feGaussianBlur stdDeviation="10" result="b"/><feFlood flood-opacity="0.051"/><feComposite operator="in" in2="b"/><feComposite in="SourceGraphic"/></filter><clipPath id="c"><ellipse class="a" cx="13.5" cy="13.5" rx="13.5" ry="13.5"/></clipPath><clipPath id="d"><rect class="b" width="36" height="27" transform="translate(0 0)"/></clipPath></defs><g transform="translate(-81 -663)"><g class="j" transform="matrix(1, 0, 0, 1, 81, 663)"><ellipse class="c" cx="13.5" cy="13.5" rx="13.5" ry="13.5" transform="translate(30 27)"/></g><g class="d" transform="translate(111 690)"><g class="e" transform="translate(-1.865 0)"><rect class="f" width="40.5" height="27"/><rect class="g" width="20.339" height="13.5" transform="translate(0 0)"/><path class="h" d="M14.833,9.361l-2.5-.513.532,2.492L10.963,9.648l-.786,2.424-.8-2.419L7.481,11.36l.513-2.5L5.5,9.4l1.692-1.9L4.77,6.7l2.418-.8L5.482,4.008l2.5.513L7.447,2.029l1.9,1.692L10.138,1.3l.8,2.418,1.892-1.707-.513,2.5,2.492-.532L13.121,5.879l2.424.785-2.418.8Z" transform="translate(0.043 0.055)"/><path class="i" d="M12.682,9.2l-.788.418-.768.454-.892-.031-.892.01-.757-.472-.778-.436-.419-.786-.455-.766.03-.89-.01-.89.473-.755.438-.776.788-.418.768-.454.892.031.893-.01.757.471.778.436.419.786.455.766-.03.89.01.89-.473.755Z" transform="translate(-0.106 0.024)"/><path class="h" d="M12.893,6.684a2.735,2.735,0,1,1-2.735-2.735,2.735,2.735,0,0,1,2.735,2.735Z" transform="translate(0.008 0.081)"/></g></g></g></svg>