<svg xmlns="http://www.w3.org/2000/svg" xmlns:xlink="http://www.w3.org/1999/xlink" width="87" height="87" viewBox="0 0 87 87"><defs><style>.a,.c,.h{fill:#fff;}.a{stroke:#707070;}.b{fill:rgba(0,0,0,0.67);}.d{clip-path:url(#c);}.e{clip-path:url(#d);}.f{fill:#bd3d44;}.g{fill:#192f5d;}.h{fill-rule:evenodd;}.i{filter:url(#a);}</style><filter id="a" x="0" y="0" width="87" height="87" filterUnits="userSpaceOnUse"><feOffset dy="3" input="SourceAlpha"/><feGaussianBlur stdDeviation="10" result="b"/><feFlood flood-opacity="0.051"/><feComposite operator="in" in2="b"/><feComposite in="SourceGraphic"/></filter><clipPath id="c"><ellipse class="a" cx="13.5" cy="13.5" rx="13.5" ry="13.5"/></clipPath><clipPath id="d"><rect class="b" width="36" height="27" transform="translate(0 0)"/></clipPath></defs><g transform="translate(-81 -64)"><g class="i" transform="matrix(1, 0, 0, 1, 81, 64)"><ellipse class="c" cx="13.5" cy="13.5" rx="13.5" ry="13.5" transform="translate(30 27)"/></g><g class="d" transform="translate(111 91)"><g class="e" transform="translate(-4.865 0)"><g transform="translate(0 0)"><rect class="f" width="51.301" height="2.077"/><rect class="f" width="51.301" height="2.077" transform="translate(0 4.154)"/><rect class="f" width="51.301" height="2.077" transform="translate(0 8.308)"/><rect class="f" width="51.301" height="2.077" transform="translate(0 12.462)"/><rect class="f" width="51.301" height="2.077" transform="translate(0 16.616)"/><rect class="f" width="51.301" height="2.077" transform="translate(0 20.769)"/><rect class="f" width="51.301" height="2.077" transform="translate(0 24.923)"/><rect class="c" width="51.301" height="2.077" transform="translate(0 2.077)"/><rect class="c" width="51.301" height="2.077" transform="translate(0 6.231)"/><rect class="c" width="51.301" height="2.077" transform="translate(0 10.385)"/><rect class="c" width="51.301" height="2.077" transform="translate(0 14.539)"/><rect class="c" width="51.301" height="2.077" transform="translate(0 18.692)"/><rect class="c" width="51.301" height="2.077" transform="translate(0 22.846)"/></g><rect class="g" width="20.52" height="14.538" transform="translate(0 0)"/><g transform="translate(0 0)"><path class="h" d="M0-.832l.187.575h.6L.3.1.489.673,0,.318-.489.673-.3.1-.791-.257h.6Z" transform="translate(1.71 1.454)"/><path class="h" d="M0-.832l.187.575h.6L.3.1.489.673,0,.318-.489.673-.3.1-.791-.257h.6Z" transform="translate(5.13 1.454)"/><path class="h" d="M0-.832l.187.575h.6L.3.1.489.673,0,.318-.489.673-.3.1-.791-.257h.6Z" transform="translate(8.55 1.454)"/><path class="h" d="M0-.832l.187.575h.6L.3.1.489.673,0,.318-.489.673-.3.1-.791-.257h.6Z" transform="translate(11.97 1.454)"/><path class="h" d="M0-.832l.187.575h.6L.3.1.489.673,0,.318-.489.673-.3.1-.791-.257h.6Z" transform="translate(15.39 1.454)"/><path class="h" d="M0-.832l.187.575h.6L.3.1.489.673,0,.318-.489.673-.3.1-.791-.257h.6Z" transform="translate(18.81 1.454)"/><path class="h" d="M0-.832l.187.575h.6L.3.1.489.673,0,.318-.489.673-.3.1-.791-.257h.6Z" transform="translate(3.42 2.908)"/><path class="h" d="M0-.832l.187.575h.6L.3.1.489.673,0,.318-.489.673-.3.1-.791-.257h.6Z" transform="translate(6.84 2.908)"/><path class="h" d="M0-.832l.187.575h.6L.3.1.489.673,0,.318-.489.673-.3.1-.791-.257h.6Z" transform="translate(10.26 2.908)"/><path class="h" d="M0-.832l.187.575h.6L.3.1.489.673,0,.318-.489.673-.3.1-.791-.257h.6Z" transform="translate(13.68 2.908)"/><path class="h" d="M0-.832l.187.575h.6L.3.1.489.673,0,.318-.489.673-.3.1-.791-.257h.6Z" transform="translate(17.1 2.908)"/><g transform="translate(0 2.908)"><path class="h" d="M0-.832l.187.575h.6L.3.1.489.673,0,.318-.489.673-.3.1-.791-.257h.6Z" transform="translate(1.71 1.454)"/><path class="h" d="M0-.832l.187.575h.6L.3.1.489.673,0,.318-.489.673-.3.1-.791-.257h.6Z" transform="translate(5.13 1.454)"/><path class="h" d="M0-.832l.187.575h.6L.3.1.489.673,0,.318-.489.673-.3.1-.791-.257h.6Z" transform="translate(8.55 1.454)"/><path class="h" d="M0-.832l.187.575h.6L.3.1.489.673,0,.318-.489.673-.3.1-.791-.257h.6Z" transform="translate(11.97 1.454)"/><path class="h" d="M0-.832l.187.575h.6L.3.1.489.673,0,.318-.489.673-.3.1-.791-.257h.6Z" transform="translate(15.39 1.454)"/><path class="h" d="M0-.832l.187.575h.6L.3.1.489.673,0,.318-.489.673-.3.1-.791-.257h.6Z" transform="translate(18.81 1.454)"/><path class="h" d="M0-.832l.187.575h.6L.3.1.489.673,0,.318-.489.673-.3.1-.791-.257h.6Z" transform="translate(3.42 2.908)"/><path class="h" d="M0-.832l.187.575h.6L.3.1.489.673,0,.318-.489.673-.3.1-.791-.257h.6Z" transform="translate(6.84 2.908)"/><path class="h" d="M0-.832l.187.575h.6L.3.1.489.673,0,.318-.489.673-.3.1-.791-.257h.6Z" transform="translate(10.26 2.908)"/><path class="h" d="M0-.832l.187.575h.6L.3.1.489.673,0,.318-.489.673-.3.1-.791-.257h.6Z" transform="translate(13.68 2.908)"/><path class="h" d="M0-.832l.187.575h.6L.3.1.489.673,0,.318-.489.673-.3.1-.791-.257h.6Z" transform="translate(17.1 2.908)"/></g><g transform="translate(0 5.815)"><path class="h" d="M0-.832l.187.575h.6L.3.1.489.673,0,.318-.489.673-.3.1-.791-.257h.6Z" transform="translate(1.71 1.454)"/><path class="h" d="M0-.832l.187.575h.6L.3.1.489.673,0,.318-.489.673-.3.1-.791-.257h.6Z" transform="translate(5.13 1.454)"/><path class="h" d="M0-.832l.187.575h.6L.3.1.489.673,0,.318-.489.673-.3.1-.791-.257h.6Z" transform="translate(8.55 1.454)"/><path class="h" d="M0-.832l.187.575h.6L.3.1.489.673,0,.318-.489.673-.3.1-.791-.257h.6Z" transform="translate(11.97 1.454)"/><path class="h" d="M0-.832l.187.575h.6L.3.1.489.673,0,.318-.489.673-.3.1-.791-.257h.6Z" transform="translate(15.39 1.454)"/><path class="h" d="M0-.832l.187.575h.6L.3.1.489.673,0,.318-.489.673-.3.1-.791-.257h.6Z" transform="translate(18.81 1.454)"/><path class="h" d="M0-.832l.187.575h.6L.3.1.489.673,0,.318-.489.673-.3.1-.791-.257h.6Z" transform="translate(3.42 2.908)"/><path class="h" d="M0-.832l.187.575h.6L.3.1.489.673,0,.318-.489.673-.3.1-.791-.257h.6Z" transform="translate(6.84 2.908)"/><path class="h" d="M0-.832l.187.575h.6L.3.1.489.673,0,.318-.489.673-.3.1-.791-.257h.6Z" transform="translate(10.26 2.908)"/><path class="h" d="M0-.832l.187.575h.6L.3.1.489.673,0,.318-.489.673-.3.1-.791-.257h.6Z" transform="translate(13.68 2.908)"/><path class="h" d="M0-.832l.187.575h.6L.3.1.489.673,0,.318-.489.673-.3.1-.791-.257h.6Z" transform="translate(17.1 2.908)"/></g><g transform="translate(0 8.723)"><path class="h" d="M0-.832l.187.575h.6L.3.1.489.673,0,.318-.489.673-.3.1-.791-.257h.6Z" transform="translate(1.71 1.454)"/><path class="h" d="M0-.832l.187.575h.6L.3.1.489.673,0,.318-.489.673-.3.1-.791-.257h.6Z" transform="translate(5.13 1.454)"/><path class="h" d="M0-.832l.187.575h.6L.3.1.489.673,0,.318-.489.673-.3.1-.791-.257h.6Z" transform="translate(8.55 1.454)"/><path class="h" d="M0-.832l.187.575h.6L.3.1.489.673,0,.318-.489.673-.3.1-.791-.257h.6Z" transform="translate(11.97 1.454)"/><path class="h" d="M0-.832l.187.575h.6L.3.1.489.673,0,.318-.489.673-.3.1-.791-.257h.6Z" transform="translate(15.39 1.454)"/><path class="h" d="M0-.832l.187.575h.6L.3.1.489.673,0,.318-.489.673-.3.1-.791-.257h.6Z" transform="translate(18.81 1.454)"/><path class="h" d="M0-.832l.187.575h.6L.3.1.489.673,0,.318-.489.673-.3.1-.791-.257h.6Z" transform="translate(3.42 2.908)"/><path class="h" d="M0-.832l.187.575h.6L.3.1.489.673,0,.318-.489.673-.3.1-.791-.257h.6Z" transform="translate(6.84 2.908)"/><path class="h" d="M0-.832l.187.575h.6L.3.1.489.673,0,.318-.489.673-.3.1-.791-.257h.6Z" transform="translate(10.26 2.908)"/><path class="h" d="M0-.832l.187.575h.6L.3.1.489.673,0,.318-.489.673-.3.1-.791-.257h.6Z" transform="translate(13.68 2.908)"/><path class="h" d="M0-.832l.187.575h.6L.3.1.489.673,0,.318-.489.673-.3.1-.791-.257h.6Z" transform="translate(17.1 2.908)"/></g><g transform="translate(0 11.631)"><path class="h" d="M0-.832l.187.575h.6L.3.1.489.673,0,.318-.489.673-.3.1-.791-.257h.6Z" transform="translate(1.71 1.454)"/><path class="h" d="M0-.832l.187.575h.6L.3.1.489.673,0,.318-.489.673-.3.1-.791-.257h.6Z" transform="translate(5.13 1.454)"/><path class="h" d="M0-.832l.187.575h.6L.3.1.489.673,0,.318-.489.673-.3.1-.791-.257h.6Z" transform="translate(8.55 1.454)"/><path class="h" d="M0-.832l.187.575h.6L.3.1.489.673,0,.318-.489.673-.3.1-.791-.257h.6Z" transform="translate(11.97 1.454)"/><path class="h" d="M0-.832l.187.575h.6L.3.1.489.673,0,.318-.489.673-.3.1-.791-.257h.6Z" transform="translate(15.39 1.454)"/><path class="h" d="M0-.832l.187.575h.6L.3.1.489.673,0,.318-.489.673-.3.1-.791-.257h.6Z" transform="translate(18.81 1.454)"/></g></g></g></g></g></svg>