<svg xmlns="http://www.w3.org/2000/svg" xmlns:xlink="http://www.w3.org/1999/xlink" width="87" height="87" viewBox="0 0 87 87"><defs><style>.a,.c,.k{fill:#fff;}.a{stroke:#707070;}.b{fill:rgba(0,0,0,0.67);}.d{clip-path:url(#c);}.e{clip-path:url(#d);}.f,.g,.h,.i,.j,.k{fill-rule:evenodd;}.g{fill:#00c;}.h{fill:red;}.i{fill:#fc0;}.j{fill:#093;}.l{filter:url(#a);}</style><filter id="a" x="0" y="0" width="87" height="87" filterUnits="userSpaceOnUse"><feOffset dy="3" input="SourceAlpha"/><feGaussianBlur stdDeviation="10" result="b"/><feFlood flood-opacity="0.051"/><feComposite operator="in" in2="b"/><feComposite in="SourceGraphic"/></filter><clipPath id="c"><ellipse class="a" cx="13.5" cy="13.5" rx="13.5" ry="13.5"/></clipPath><clipPath id="d"><rect class="b" width="36" height="27" transform="translate(-3.79 -0.001)"/></clipPath></defs><g transform="translate(-239 -663)"><g class="l" transform="matrix(1, 0, 0, 1, 239, 663)"><ellipse class="c" cx="13.5" cy="13.5" rx="13.5" ry="13.5" transform="translate(30 27)"/></g><g class="d" transform="translate(269 690)"><g class="e" transform="translate(0.925 0.001)"><g transform="translate(-7.835 -83.962)"><path class="f" d="M4.044,105.469v-16l11.909,8-11.909,8Z"/><path class="g" d="M12.17,110.968l13.37-9h19v9H12.17Z"/><path class="h" d="M11.311,83.965H44.543v9h-19S11.489,83.876,11.311,83.965Z"/><path class="i" d="M4.044,87.341v2.127l11.909,8-11.909,8v2.127l15-10.131-15-10.122Z"/><path class="j" d="M4.044,87.341V83.965h5L24.937,94.717H44.543v5.5H24.937L9.048,110.964h-5v-3.37l15-10.131-15-10.122Z"/><path class="k" d="M9.048,83.965H12.17l13.37,9h19v1.751H24.938L9.049,83.965Z"/><path class="k" d="M9.048,110.968H12.17l13.37-9h19v-1.751H24.938L9.049,110.968Z"/></g></g></g></g></svg>